<?xml version="1.0" encoding="us-ascii" standalone="no"?><svg xmlns="http://www.w3.org/2000/svg" xmlns:xlink="http://www.w3.org/1999/xlink" contentStyleType="text/css" height="1486px" preserveAspectRatio="none" style="width:6025px;height:1486px;background:#FFFFFF;" version="1.1" viewBox="0 0 6025 1486" width="6025px" zoomAndPan="magnify"><defs/><g><!--cluster DanskeBank--><g id="cluster_DanskeBank"><path d="M73.0963,6 L172.0963,6 A3.75,3.75 0 0 1 174.5963,8.5 L181.5963,28.2969 L6016.0963,28.2969 A2.5,2.5 0 0 1 6018.5963,30.7969 L6018.5963,1476.5 A2.5,2.5 0 0 1 6016.0963,1479 L73.0963,1479 A2.5,2.5 0 0 1 70.5963,1476.5 L70.5963,8.5 A2.5,2.5 0 0 1 73.0963,6 " fill="none" style="stroke:#000000;stroke-width:1.5;"/><line style="stroke:#000000;stroke-width:1.5;" x1="70.5963" x2="181.5963" y1="28.2969" y2="28.2969"/><text fill="#000000" font-family="sans-serif" font-size="14" font-weight="bold" lengthAdjust="spacing" textLength="98" x="74.5963" y="20.9951">DanskeBank</text></g><!--cluster Guard--><g id="cluster_Guard"><path d="M1510.0963,1215.5 L1560.0963,1215.5 A3.75,3.75 0 0 1 1562.5963,1218 L1569.5963,1237.7969 L4025.0963,1237.7969 A2.5,2.5 0 0 1 4027.5963,1240.2969 L4027.5963,1452.5 A2.5,2.5 0 0 1 4025.0963,1455 L1510.0963,1455 A2.5,2.5 0 0 1 1507.5963,1452.5 L1507.5963,1218 A2.5,2.5 0 0 1 1510.0963,1215.5 " fill="none" style="stroke:#000000;stroke-width:1.5;"/><line style="stroke:#000000;stroke-width:1.5;" x1="1507.5963" x2="1569.5963" y1="1237.7969" y2="1237.7969"/><text fill="#000000" font-family="sans-serif" font-size="14" font-weight="bold" lengthAdjust="spacing" textLength="49" x="1511.5963" y="1230.4951">Guard</text></g><!--cluster FileReader--><g id="cluster_FileReader"><path d="M110.0963,812.5 L195.0963,812.5 A3.75,3.75 0 0 1 197.5963,815 L204.5963,834.7969 L1089.0963,834.7969 A2.5,2.5 0 0 1 1091.5963,837.2969 L1091.5963,1147 A2.5,2.5 0 0 1 1089.0963,1149.5 L110.0963,1149.5 A2.5,2.5 0 0 1 107.5963,1147 L107.5963,815 A2.5,2.5 0 0 1 110.0963,812.5 " fill="none" style="stroke:#000000;stroke-width:1.5;"/><line style="stroke:#000000;stroke-width:1.5;" x1="107.5963" x2="204.5963" y1="834.7969" y2="834.7969"/><text fill="#000000" font-family="sans-serif" font-size="14" font-weight="bold" lengthAdjust="spacing" textLength="84" x="111.5963" y="827.4951">FileReader</text></g><!--cluster FileWriter--><g id="cluster_FileWriter"><path d="M2352.0963,812.5 L2432.0963,812.5 A3.75,3.75 0 0 1 2434.5963,815 L2441.5963,834.7969 L3477.0963,834.7969 A2.5,2.5 0 0 1 3479.5963,837.2969 L3479.5963,1147 A2.5,2.5 0 0 1 3477.0963,1149.5 L2352.0963,1149.5 A2.5,2.5 0 0 1 2349.5963,1147 L2349.5963,815 A2.5,2.5 0 0 1 2352.0963,812.5 " fill="none" style="stroke:#000000;stroke-width:1.5;"/><line style="stroke:#000000;stroke-width:1.5;" x1="2349.5963" x2="2441.5963" y1="834.7969" y2="834.7969"/><text fill="#000000" font-family="sans-serif" font-size="14" font-weight="bold" lengthAdjust="spacing" textLength="79" x="2353.5963" y="827.4951">FileWriter</text></g><!--cluster LineSplitter--><g id="cluster_LineSplitter"><path d="M1118.0963,812.5 L1214.0963,812.5 A3.75,3.75 0 0 1 1216.5963,815 L1223.5963,834.7969 L2307.0963,834.7969 A2.5,2.5 0 0 1 2309.5963,837.2969 L2309.5963,1155 A2.5,2.5 0 0 1 2307.0963,1157.5 L1118.0963,1157.5 A2.5,2.5 0 0 1 1115.5963,1155 L1115.5963,815 A2.5,2.5 0 0 1 1118.0963,812.5 " fill="none" style="stroke:#000000;stroke-width:1.5;"/><line style="stroke:#000000;stroke-width:1.5;" x1="1115.5963" x2="1223.5963" y1="834.7969" y2="834.7969"/><text fill="#000000" font-family="sans-serif" font-size="14" font-weight="bold" lengthAdjust="spacing" textLength="95" x="1119.5963" y="827.4951">LineSplitter</text></g><!--cluster WordCounter--><g id="cluster_WordCounter"><path d="M4326.0963,804 L4433.0963,804 A3.75,3.75 0 0 1 4435.5963,806.5 L4442.5963,826.2969 L5992.0963,826.2969 A2.5,2.5 0 0 1 5994.5963,828.7969 L5994.5963,1328.5 A2.5,2.5 0 0 1 5992.0963,1331 L4326.0963,1331 A2.5,2.5 0 0 1 4323.5963,1328.5 L4323.5963,806.5 A2.5,2.5 0 0 1 4326.0963,804 " fill="none" style="stroke:#000000;stroke-width:1.5;"/><line style="stroke:#000000;stroke-width:1.5;" x1="4323.5963" x2="4442.5963" y1="826.2969" y2="826.2969"/><text fill="#000000" font-family="sans-serif" font-size="14" font-weight="bold" lengthAdjust="spacing" textLength="106" x="4327.5963" y="818.9951">WordCounter</text></g><!--cluster WordExcluder--><g id="cluster_WordExcluder"><path d="M3506.0963,788 L3617.0963,788 A3.75,3.75 0 0 1 3619.5963,790.5 L3626.5963,810.2969 L4281.0963,810.2969 A2.5,2.5 0 0 1 4283.5963,812.7969 L4283.5963,1187.5 A2.5,2.5 0 0 1 4281.0963,1190 L3506.0963,1190 A2.5,2.5 0 0 1 3503.5963,1187.5 L3503.5963,790.5 A2.5,2.5 0 0 1 3506.0963,788 " fill="none" style="stroke:#000000;stroke-width:1.5;"/><line style="stroke:#000000;stroke-width:1.5;" x1="3503.5963" x2="3626.5963" y1="810.2969" y2="810.2969"/><text fill="#000000" font-family="sans-serif" font-size="14" font-weight="bold" lengthAdjust="spacing" textLength="110" x="3507.5963" y="802.9951">WordExcluder</text></g><!--cluster FileReaderManager--><g id="cluster_FileReaderManager"><path d="M937.0963,410.5 L1092.0963,410.5 A3.75,3.75 0 0 1 1094.5963,413 L1101.5963,432.7969 L1834.0963,432.7969 A2.5,2.5 0 0 1 1836.5963,435.2969 L1836.5963,753.5 A2.5,2.5 0 0 1 1834.0963,756 L937.0963,756 A2.5,2.5 0 0 1 934.5963,753.5 L934.5963,413 A2.5,2.5 0 0 1 937.0963,410.5 " fill="none" style="stroke:#000000;stroke-width:1.5;"/><line style="stroke:#000000;stroke-width:1.5;" x1="934.5963" x2="1101.5963" y1="432.7969" y2="432.7969"/><text fill="#000000" font-family="sans-serif" font-size="14" font-weight="bold" lengthAdjust="spacing" textLength="154" x="938.5963" y="425.4951">FileReaderManager</text></g><!--cluster FileWriterManager--><g id="cluster_FileWriterManager"><path d="M1863.0963,402 L2013.0963,402 A3.75,3.75 0 0 1 2015.5963,404.5 L2022.5963,424.2969 L3090.0963,424.2969 A2.5,2.5 0 0 1 3092.5963,426.7969 L3092.5963,745 A2.5,2.5 0 0 1 3090.0963,747.5 L1863.0963,747.5 A2.5,2.5 0 0 1 1860.5963,745 L1860.5963,404.5 A2.5,2.5 0 0 1 1863.0963,402 " fill="none" style="stroke:#000000;stroke-width:1.5;"/><line style="stroke:#000000;stroke-width:1.5;" x1="1860.5963" x2="2022.5963" y1="424.2969" y2="424.2969"/><text fill="#000000" font-family="sans-serif" font-size="14" font-weight="bold" lengthAdjust="spacing" textLength="149" x="1864.5963" y="416.9951">FileWriterManager</text></g><!--cluster WordCountManager--><g id="cluster_WordCountManager"><path d="M3562.0963,394 L3723.0963,394 A3.75,3.75 0 0 1 3725.5963,396.5 L3732.5963,416.2969 L4691.0963,416.2969 A2.5,2.5 0 0 1 4693.5963,418.7969 L4693.5963,761.5 A2.5,2.5 0 0 1 4691.0963,764 L3562.0963,764 A2.5,2.5 0 0 1 3559.5963,761.5 L3559.5963,396.5 A2.5,2.5 0 0 1 3562.0963,394 " fill="none" style="stroke:#000000;stroke-width:1.5;"/><line style="stroke:#000000;stroke-width:1.5;" x1="3559.5963" x2="3732.5963" y1="416.2969" y2="416.2969"/><text fill="#000000" font-family="sans-serif" font-size="14" font-weight="bold" lengthAdjust="spacing" textLength="160" x="3563.5963" y="408.9951">WordCountManager</text></g><!--cluster WordCountWorkFlow--><g id="cluster_WordCountWorkFlow"><path d="M1305.0963,49 L1474.0963,49 A3.75,3.75 0 0 1 1476.5963,51.5 L1483.5963,71.2969 L2642.0963,71.2969 A2.5,2.5 0 0 1 2644.5963,73.7969 L2644.5963,367.5 A2.5,2.5 0 0 1 2642.0963,370 L1305.0963,370 A2.5,2.5 0 0 1 1302.5963,367.5 L1302.5963,51.5 A2.5,2.5 0 0 1 1305.0963,49 " fill="none" style="stroke:#000000;stroke-width:1.5;"/><line style="stroke:#000000;stroke-width:1.5;" x1="1302.5963" x2="1483.5963" y1="71.2969" y2="71.2969"/><text fill="#000000" font-family="sans-serif" font-size="14" font-weight="bold" lengthAdjust="spacing" textLength="168" x="1306.5963" y="63.9951">WordCountWorkFlow</text></g><!--class Guard--><g id="elem_Guard"><rect codeLine="2" fill="#F1F1F1" height="64.2969" id="Guard" rx="2.5" ry="2.5" style="stroke:#181818;stroke-width:0.5;" width="109" x="1524.0963" y="1375"/><ellipse cx="1554.8463" cy="1391" fill="#ADD1B2" rx="11" ry="11" style="stroke:#181818;stroke-width:1.0;"/><path d="M1557.1901,1386.6719 C1556.2526,1386.2344 1555.6588,1386.0938 1554.7838,1386.0938 C1552.1588,1386.0938 1550.1588,1388.1719 1550.1588,1390.8906 L1550.1588,1392.0156 C1550.1588,1394.5938 1552.2682,1396.4844 1555.1588,1396.4844 C1556.3776,1396.4844 1557.5338,1396.1875 1558.2838,1395.6406 C1558.8619,1395.2344 1559.1901,1394.7813 1559.1901,1394.3906 C1559.1901,1393.9375 1558.7994,1393.5469 1558.3307,1393.5469 C1558.1119,1393.5469 1557.9088,1393.625 1557.7213,1393.8125 C1557.2682,1394.2969 1557.2682,1394.2969 1557.0807,1394.3906 C1556.6588,1394.6563 1555.9713,1394.7813 1555.2057,1394.7813 C1553.1588,1394.7813 1551.8619,1393.6875 1551.8619,1391.9844 L1551.8619,1390.8906 C1551.8619,1389.1094 1553.1119,1387.7969 1554.8463,1387.7969 C1555.4244,1387.7969 1556.0338,1387.9531 1556.5026,1388.2031 C1556.9869,1388.4844 1557.1588,1388.7031 1557.2526,1389.1094 C1557.3151,1389.5156 1557.3463,1389.6406 1557.4869,1389.7656 C1557.6276,1389.9063 1557.8619,1390.0156 1558.0807,1390.0156 C1558.3463,1390.0156 1558.6119,1389.875 1558.7838,1389.6563 C1558.8932,1389.5 1558.9244,1389.3125 1558.9244,1388.8906 L1558.9244,1387.4688 C1558.9244,1387.0313 1558.9088,1386.9063 1558.8151,1386.75 C1558.6588,1386.4844 1558.3776,1386.3438 1558.0807,1386.3438 C1557.7838,1386.3438 1557.5807,1386.4375 1557.3619,1386.75 L1557.1901,1386.6719 Z " fill="#000000"/><text fill="#000000" font-family="sans-serif" font-size="14" lengthAdjust="spacing" textLength="42" x="1572.3463" y="1395.8467">Guard</text><line style="stroke:#181818;stroke-width:0.5;" x1="1525.0963" x2="1632.0963" y1="1407" y2="1407"/><ellipse cx="1535.0963" cy="1420.6484" fill="none" rx="3" ry="3" style="stroke:#038048;stroke-width:1.0;"/><text fill="#000000" font-family="sans-serif" font-size="14" lengthAdjust="spacing" textLength="83" x="1544.0963" y="1423.9951">Init : IGuard</text><line style="stroke:#181818;stroke-width:0.5;" x1="1525.0963" x2="1632.0963" y1="1431.2969" y2="1431.2969"/></g><!--class IGuard--><g id="elem_IGuard"><rect codeLine="6" fill="#F1F1F1" height="48" id="IGuard" rx="2.5" ry="2.5" style="stroke:#181818;stroke-width:0.5;" width="80" x="2560.5963" y="1250.5"/><ellipse cx="2575.5963" cy="1266.5" fill="#B4A7E5" rx="11" ry="11" style="stroke:#181818;stroke-width:1.0;"/><path d="M2576.5494,1263.2813 L2578.2682,1263.2813 C2578.6588,1263.2813 2578.8463,1263.25 2578.9713,1263.1719 C2579.2369,1263.0156 2579.3776,1262.7344 2579.3776,1262.4375 C2579.3776,1262.1719 2579.2682,1261.9063 2579.0338,1261.7344 C2578.8619,1261.625 2578.7213,1261.5938 2578.2682,1261.5938 L2573.1276,1261.5938 C2572.6901,1261.5938 2572.5651,1261.6094 2572.4088,1261.7031 C2572.1588,1261.8594 2572.0026,1262.1563 2572.0026,1262.4375 C2572.0026,1262.7188 2572.1432,1262.9688 2572.3619,1263.1406 C2572.5182,1263.25 2572.7057,1263.2813 2573.1276,1263.2813 L2574.8463,1263.2813 L2574.8463,1269.7969 L2573.1276,1269.7969 C2572.6901,1269.7969 2572.5651,1269.8125 2572.4088,1269.9219 C2572.1588,1270.0781 2572.0026,1270.3594 2572.0026,1270.6563 C2572.0026,1270.9063 2572.1432,1271.1719 2572.3619,1271.3281 C2572.5182,1271.4531 2572.7213,1271.5 2573.1276,1271.5 L2578.2682,1271.5 C2579.0182,1271.5 2579.3776,1271.2188 2579.3776,1270.6563 C2579.3776,1270.375 2579.2682,1270.125 2579.0338,1269.9531 C2578.8619,1269.8281 2578.7213,1269.7969 2578.2682,1269.7969 L2576.5494,1269.7969 L2576.5494,1263.2813 Z " fill="#000000"/><text fill="#000000" font-family="sans-serif" font-size="14" font-style="italic" lengthAdjust="spacing" textLength="48" x="2589.5963" y="1271.3467">IGuard</text><line style="stroke:#181818;stroke-width:0.5;" x1="2561.5963" x2="2639.5963" y1="1282.5" y2="1282.5"/><line style="stroke:#181818;stroke-width:0.5;" x1="2561.5963" x2="2639.5963" y1="1290.5" y2="1290.5"/></g><!--class GuardAgainstEmptyAndWhiteSpaceExtension--><g id="elem_GuardAgainstEmptyAndWhiteSpaceExtension"><rect codeLine="9" fill="#F1F1F1" height="64.2969" id="GuardAgainstEmptyAndWhiteSpaceExtension" rx="2.5" ry="2.5" style="stroke:#181818;stroke-width:0.5;" width="967" x="1668.0963" y="1375"/><ellipse cx="1982.3463" cy="1391" fill="#ADD1B2" rx="11" ry="11" style="stroke:#181818;stroke-width:1.0;"/><path d="M1984.6901,1386.6719 C1983.7526,1386.2344 1983.1588,1386.0938 1982.2838,1386.0938 C1979.6588,1386.0938 1977.6588,1388.1719 1977.6588,1390.8906 L1977.6588,1392.0156 C1977.6588,1394.5938 1979.7682,1396.4844 1982.6588,1396.4844 C1983.8776,1396.4844 1985.0338,1396.1875 1985.7838,1395.6406 C1986.3619,1395.2344 1986.6901,1394.7813 1986.6901,1394.3906 C1986.6901,1393.9375 1986.2994,1393.5469 1985.8307,1393.5469 C1985.6119,1393.5469 1985.4088,1393.625 1985.2213,1393.8125 C1984.7682,1394.2969 1984.7682,1394.2969 1984.5807,1394.3906 C1984.1588,1394.6563 1983.4713,1394.7813 1982.7057,1394.7813 C1980.6588,1394.7813 1979.3619,1393.6875 1979.3619,1391.9844 L1979.3619,1390.8906 C1979.3619,1389.1094 1980.6119,1387.7969 1982.3463,1387.7969 C1982.9244,1387.7969 1983.5338,1387.9531 1984.0026,1388.2031 C1984.4869,1388.4844 1984.6588,1388.7031 1984.7526,1389.1094 C1984.8151,1389.5156 1984.8463,1389.6406 1984.9869,1389.7656 C1985.1276,1389.9063 1985.3619,1390.0156 1985.5807,1390.0156 C1985.8463,1390.0156 1986.1119,1389.875 1986.2838,1389.6563 C1986.3932,1389.5 1986.4244,1389.3125 1986.4244,1388.8906 L1986.4244,1387.4688 C1986.4244,1387.0313 1986.4088,1386.9063 1986.3151,1386.75 C1986.1588,1386.4844 1985.8776,1386.3438 1985.5807,1386.3438 C1985.2838,1386.3438 1985.0807,1386.4375 1984.8619,1386.75 L1984.6901,1386.6719 Z " fill="#000000"/><text fill="#000000" font-family="sans-serif" font-size="14" lengthAdjust="spacing" textLength="330" x="2002.8463" y="1395.8467">GuardAgainstEmptyAndWhiteSpaceExtension</text><line style="stroke:#181818;stroke-width:0.5;" x1="1669.0963" x2="2634.0963" y1="1407" y2="1407"/><line style="stroke:#181818;stroke-width:0.5;" x1="1669.0963" x2="2634.0963" y1="1415" y2="1415"/><ellipse cx="1679.0963" cy="1428.6484" fill="#84BE84" rx="3" ry="3" style="stroke:#038048;stroke-width:1.0;"/><text fill="#000000" font-family="sans-serif" font-size="14" lengthAdjust="spacing" textLength="941" x="1688.0963" y="1431.9951">GuardAgainstEmptyOrWhiteSpace(input: ReadOnlySpan&lt;char&gt;, parameterName: string?, message: string?): ReadOnlySpan&lt;char&gt;</text></g><!--class GuardAgainstFileSystemInfoNotFoundExtension--><g id="elem_GuardAgainstFileSystemInfoNotFoundExtension"><rect codeLine="13" fill="#F1F1F1" height="64.2969" id="GuardAgainstFileSystemInfoNotFoundExtension" rx="2.5" ry="2.5" style="stroke:#181818;stroke-width:0.5;" width="761" x="2670.0963" y="1375"/><ellipse cx="2874.8463" cy="1391" fill="#ADD1B2" rx="11" ry="11" style="stroke:#181818;stroke-width:1.0;"/><path d="M2877.1901,1386.6719 C2876.2526,1386.2344 2875.6588,1386.0938 2874.7838,1386.0938 C2872.1588,1386.0938 2870.1588,1388.1719 2870.1588,1390.8906 L2870.1588,1392.0156 C2870.1588,1394.5938 2872.2682,1396.4844 2875.1588,1396.4844 C2876.3776,1396.4844 2877.5338,1396.1875 2878.2838,1395.6406 C2878.8619,1395.2344 2879.1901,1394.7813 2879.1901,1394.3906 C2879.1901,1393.9375 2878.7994,1393.5469 2878.3307,1393.5469 C2878.1119,1393.5469 2877.9088,1393.625 2877.7213,1393.8125 C2877.2682,1394.2969 2877.2682,1394.2969 2877.0807,1394.3906 C2876.6588,1394.6563 2875.9713,1394.7813 2875.2057,1394.7813 C2873.1588,1394.7813 2871.8619,1393.6875 2871.8619,1391.9844 L2871.8619,1390.8906 C2871.8619,1389.1094 2873.1119,1387.7969 2874.8463,1387.7969 C2875.4244,1387.7969 2876.0338,1387.9531 2876.5026,1388.2031 C2876.9869,1388.4844 2877.1588,1388.7031 2877.2526,1389.1094 C2877.3151,1389.5156 2877.3463,1389.6406 2877.4869,1389.7656 C2877.6276,1389.9063 2877.8619,1390.0156 2878.0807,1390.0156 C2878.3463,1390.0156 2878.6119,1389.875 2878.7838,1389.6563 C2878.8932,1389.5 2878.9244,1389.3125 2878.9244,1388.8906 L2878.9244,1387.4688 C2878.9244,1387.0313 2878.9088,1386.9063 2878.8151,1386.75 C2878.6588,1386.4844 2878.3776,1386.3438 2878.0807,1386.3438 C2877.7838,1386.3438 2877.5807,1386.4375 2877.3619,1386.75 L2877.1901,1386.6719 Z " fill="#000000"/><text fill="#000000" font-family="sans-serif" font-size="14" lengthAdjust="spacing" textLength="343" x="2895.3463" y="1395.8467">GuardAgainstFileSystemInfoNotFoundExtension</text><line style="stroke:#181818;stroke-width:0.5;" x1="2671.0963" x2="3430.0963" y1="1407" y2="1407"/><line style="stroke:#181818;stroke-width:0.5;" x1="2671.0963" x2="3430.0963" y1="1415" y2="1415"/><ellipse cx="2681.0963" cy="1428.6484" fill="#84BE84" rx="3" ry="3" style="stroke:#038048;stroke-width:1.0;"/><text fill="#000000" font-family="sans-serif" font-size="14" lengthAdjust="spacing" textLength="735" x="2690.0963" y="1431.9951">GuardAgainstFileSystemInfoNotFound(input: string, parameterName: string?, message: string?): string</text></g><!--class GuardAgainstNullExtensions--><g id="elem_GuardAgainstNullExtensions"><rect codeLine="17" fill="#F1F1F1" height="64.2969" id="GuardAgainstNullExtensions" rx="2.5" ry="2.5" style="stroke:#181818;stroke-width:0.5;" width="545" x="3466.0963" y="1375"/><ellipse cx="3634.3463" cy="1391" fill="#ADD1B2" rx="11" ry="11" style="stroke:#181818;stroke-width:1.0;"/><path d="M3636.6901,1386.6719 C3635.7526,1386.2344 3635.1588,1386.0938 3634.2838,1386.0938 C3631.6588,1386.0938 3629.6588,1388.1719 3629.6588,1390.8906 L3629.6588,1392.0156 C3629.6588,1394.5938 3631.7682,1396.4844 3634.6588,1396.4844 C3635.8776,1396.4844 3637.0338,1396.1875 3637.7838,1395.6406 C3638.3619,1395.2344 3638.6901,1394.7813 3638.6901,1394.3906 C3638.6901,1393.9375 3638.2994,1393.5469 3637.8307,1393.5469 C3637.6119,1393.5469 3637.4088,1393.625 3637.2213,1393.8125 C3636.7682,1394.2969 3636.7682,1394.2969 3636.5807,1394.3906 C3636.1588,1394.6563 3635.4713,1394.7813 3634.7057,1394.7813 C3632.6588,1394.7813 3631.3619,1393.6875 3631.3619,1391.9844 L3631.3619,1390.8906 C3631.3619,1389.1094 3632.6119,1387.7969 3634.3463,1387.7969 C3634.9244,1387.7969 3635.5338,1387.9531 3636.0026,1388.2031 C3636.4869,1388.4844 3636.6588,1388.7031 3636.7526,1389.1094 C3636.8151,1389.5156 3636.8463,1389.6406 3636.9869,1389.7656 C3637.1276,1389.9063 3637.3619,1390.0156 3637.5807,1390.0156 C3637.8463,1390.0156 3638.1119,1389.875 3638.2838,1389.6563 C3638.3932,1389.5 3638.4244,1389.3125 3638.4244,1388.8906 L3638.4244,1387.4688 C3638.4244,1387.0313 3638.4088,1386.9063 3638.3151,1386.75 C3638.1588,1386.4844 3637.8776,1386.3438 3637.5807,1386.3438 C3637.2838,1386.3438 3637.0807,1386.4375 3636.8619,1386.75 L3636.6901,1386.6719 Z " fill="#000000"/><text fill="#000000" font-family="sans-serif" font-size="14" lengthAdjust="spacing" textLength="200" x="3654.8463" y="1395.8467">GuardAgainstNullExtensions</text><line style="stroke:#181818;stroke-width:0.5;" x1="3467.0963" x2="4010.0963" y1="1407" y2="1407"/><line style="stroke:#181818;stroke-width:0.5;" x1="3467.0963" x2="4010.0963" y1="1415" y2="1415"/><ellipse cx="3477.0963" cy="1428.6484" fill="#84BE84" rx="3" ry="3" style="stroke:#038048;stroke-width:1.0;"/><text fill="#000000" font-family="sans-serif" font-size="14" lengthAdjust="spacing" textLength="519" x="3486.0963" y="1431.9951">GuardAgainstNull(input: T, parameterName: string?, message: string?): T</text></g><!--class IFileReader--><g id="elem_IFileReader"><rect codeLine="29" fill="#F1F1F1" height="64.2969" id="IFileReader" rx="2.5" ry="2.5" style="stroke:#181818;stroke-width:0.5;" width="764" x="264.5963" y="847.5"/><ellipse cx="601.8463" cy="863.5" fill="#B4A7E5" rx="11" ry="11" style="stroke:#181818;stroke-width:1.0;"/><path d="M602.7994,860.2813 L604.5182,860.2813 C604.9088,860.2813 605.0963,860.25 605.2213,860.1719 C605.4869,860.0156 605.6275,859.7344 605.6275,859.4375 C605.6275,859.1719 605.5182,858.9063 605.2838,858.7344 C605.1119,858.625 604.9713,858.5938 604.5182,858.5938 L599.3775,858.5938 C598.94,858.5938 598.815,858.6094 598.6588,858.7031 C598.4088,858.8594 598.2525,859.1563 598.2525,859.4375 C598.2525,859.7188 598.3932,859.9688 598.6119,860.1406 C598.7682,860.25 598.9557,860.2813 599.3775,860.2813 L601.0963,860.2813 L601.0963,866.7969 L599.3775,866.7969 C598.94,866.7969 598.815,866.8125 598.6588,866.9219 C598.4088,867.0781 598.2525,867.3594 598.2525,867.6563 C598.2525,867.9063 598.3932,868.1719 598.6119,868.3281 C598.7682,868.4531 598.9713,868.5 599.3775,868.5 L604.5182,868.5 C605.2682,868.5 605.6275,868.2188 605.6275,867.6563 C605.6275,867.375 605.5182,867.125 605.2838,866.9531 C605.1119,866.8281 604.9713,866.7969 604.5182,866.7969 L602.7994,866.7969 L602.7994,860.2813 Z " fill="#000000"/><text fill="#000000" font-family="sans-serif" font-size="14" font-style="italic" lengthAdjust="spacing" textLength="81" x="622.3463" y="868.3467">IFileReader</text><line style="stroke:#181818;stroke-width:0.5;" x1="265.5963" x2="1027.5963" y1="879.5" y2="879.5"/><line style="stroke:#181818;stroke-width:0.5;" x1="265.5963" x2="1027.5963" y1="887.5" y2="887.5"/><ellipse cx="275.5963" cy="901.1484" fill="#84BE84" rx="3" ry="3" style="stroke:#038048;stroke-width:1.0;"/><text fill="#000000" font-family="sans-serif" font-size="14" lengthAdjust="spacing" textLength="738" x="284.5963" y="904.4951">ReadAllLinesAsync(filePath: string, cancellationToken: CancellationToken): IAsyncEnumerable&lt;string&gt;</text></g><!--class StreamFileReader--><g id="elem_StreamFileReader"><rect codeLine="33" fill="#F1F1F1" height="96.8906" id="StreamFileReader" rx="2.5" ry="2.5" style="stroke:#181818;stroke-width:0.5;" width="952" x="123.5963" y="1036.5"/><ellipse cx="530.8463" cy="1052.5" fill="#ADD1B2" rx="11" ry="11" style="stroke:#181818;stroke-width:1.0;"/><path d="M533.1901,1048.1719 C532.2526,1047.7344 531.6588,1047.5938 530.7838,1047.5938 C528.1588,1047.5938 526.1588,1049.6719 526.1588,1052.3906 L526.1588,1053.5156 C526.1588,1056.0938 528.2682,1057.9844 531.1588,1057.9844 C532.3776,1057.9844 533.5338,1057.6875 534.2838,1057.1406 C534.8619,1056.7344 535.1901,1056.2813 535.1901,1055.8906 C535.1901,1055.4375 534.7994,1055.0469 534.3307,1055.0469 C534.1119,1055.0469 533.9088,1055.125 533.7213,1055.3125 C533.2682,1055.7969 533.2682,1055.7969 533.0807,1055.8906 C532.6588,1056.1563 531.9713,1056.2813 531.2057,1056.2813 C529.1588,1056.2813 527.8619,1055.1875 527.8619,1053.4844 L527.8619,1052.3906 C527.8619,1050.6094 529.1119,1049.2969 530.8463,1049.2969 C531.4244,1049.2969 532.0338,1049.4531 532.5026,1049.7031 C532.9869,1049.9844 533.1588,1050.2031 533.2526,1050.6094 C533.3151,1051.0156 533.3463,1051.1406 533.4869,1051.2656 C533.6276,1051.4063 533.8619,1051.5156 534.0807,1051.5156 C534.3463,1051.5156 534.6119,1051.375 534.7838,1051.1563 C534.8932,1051 534.9244,1050.8125 534.9244,1050.3906 L534.9244,1048.9688 C534.9244,1048.5313 534.9088,1048.4063 534.8151,1048.25 C534.6588,1047.9844 534.3776,1047.8438 534.0807,1047.8438 C533.7838,1047.8438 533.5807,1047.9375 533.3619,1048.25 L533.1901,1048.1719 Z " fill="#000000"/><text fill="#000000" font-family="sans-serif" font-size="14" lengthAdjust="spacing" textLength="129" x="551.3463" y="1057.3467">StreamFileReader</text><line style="stroke:#181818;stroke-width:0.5;" x1="124.5963" x2="1074.5963" y1="1068.5" y2="1068.5"/><rect fill="none" height="6" style="stroke:#C82930;stroke-width:1.0;" width="6" x="131.5963" y="1079.1484"/><text fill="#000000" font-family="sans-serif" font-size="14" lengthAdjust="spacing" textLength="161" x="143.5963" y="1085.4951">readonly guard: IGuard</text><line style="stroke:#181818;stroke-width:0.5;" x1="124.5963" x2="1074.5963" y1="1092.7969" y2="1092.7969"/><ellipse cx="134.5963" cy="1106.4453" fill="#84BE84" rx="3" ry="3" style="stroke:#038048;stroke-width:1.0;"/><text fill="#000000" font-family="sans-serif" font-size="14" lengthAdjust="spacing" textLength="344" x="143.5963" y="1109.792">{constructor} StreamFileReader(guard: IGuard )</text><ellipse cx="134.5963" cy="1122.7422" fill="#84BE84" rx="3" ry="3" style="stroke:#038048;stroke-width:1.0;"/><text fill="#000000" font-family="sans-serif" font-size="14" lengthAdjust="spacing" textLength="926" x="143.5963" y="1126.0889">ReadAllLinesAsync(filePath: string, cancellationToken: [EnumeratorCancellation] CancellationToken): IAsyncEnumerable&lt;string&gt;</text></g><!--class IFileWriter--><g id="elem_IFileWriter"><rect codeLine="45" fill="#F1F1F1" height="64.2969" id="IFileWriter" rx="2.5" ry="2.5" style="stroke:#181818;stroke-width:0.5;" width="1097" x="2366.0963" y="847.5"/><ellipse cx="2873.8463" cy="863.5" fill="#B4A7E5" rx="11" ry="11" style="stroke:#181818;stroke-width:1.0;"/><path d="M2874.7994,860.2813 L2876.5182,860.2813 C2876.9088,860.2813 2877.0963,860.25 2877.2213,860.1719 C2877.4869,860.0156 2877.6276,859.7344 2877.6276,859.4375 C2877.6276,859.1719 2877.5182,858.9063 2877.2838,858.7344 C2877.1119,858.625 2876.9713,858.5938 2876.5182,858.5938 L2871.3776,858.5938 C2870.9401,858.5938 2870.8151,858.6094 2870.6588,858.7031 C2870.4088,858.8594 2870.2526,859.1563 2870.2526,859.4375 C2870.2526,859.7188 2870.3932,859.9688 2870.6119,860.1406 C2870.7682,860.25 2870.9557,860.2813 2871.3776,860.2813 L2873.0963,860.2813 L2873.0963,866.7969 L2871.3776,866.7969 C2870.9401,866.7969 2870.8151,866.8125 2870.6588,866.9219 C2870.4088,867.0781 2870.2526,867.3594 2870.2526,867.6563 C2870.2526,867.9063 2870.3932,868.1719 2870.6119,868.3281 C2870.7682,868.4531 2870.9713,868.5 2871.3776,868.5 L2876.5182,868.5 C2877.2682,868.5 2877.6276,868.2188 2877.6276,867.6563 C2877.6276,867.375 2877.5182,867.125 2877.2838,866.9531 C2877.1119,866.8281 2876.9713,866.7969 2876.5182,866.7969 L2874.7994,866.7969 L2874.7994,860.2813 Z " fill="#000000"/><text fill="#000000" font-family="sans-serif" font-size="14" font-style="italic" lengthAdjust="spacing" textLength="73" x="2894.3463" y="868.3467">IFileWriter</text><line style="stroke:#181818;stroke-width:0.5;" x1="2367.0963" x2="3462.0963" y1="879.5" y2="879.5"/><line style="stroke:#181818;stroke-width:0.5;" x1="2367.0963" x2="3462.0963" y1="887.5" y2="887.5"/><ellipse cx="2377.0963" cy="901.1484" fill="#84BE84" rx="3" ry="3" style="stroke:#038048;stroke-width:1.0;"/><text fill="#000000" font-family="sans-serif" font-size="14" lengthAdjust="spacing" textLength="1071" x="2386.0963" y="904.4951">WriteFileAsync(outputPath: string, fileName: string, values: IEnumerable&lt;KeyValuePair&lt;string, long&gt;&gt;, cancellationToken: CancellationToken) : Task</text></g><!--class StreamFileWriter--><g id="elem_StreamFileWriter"><rect codeLine="49" fill="#F1F1F1" height="96.8906" id="StreamFileWriter" rx="2.5" ry="2.5" style="stroke:#181818;stroke-width:0.5;" width="1097" x="2366.0963" y="1036.5"/><ellipse cx="2848.3463" cy="1052.5" fill="#ADD1B2" rx="11" ry="11" style="stroke:#181818;stroke-width:1.0;"/><path d="M2850.6901,1048.1719 C2849.7526,1047.7344 2849.1588,1047.5938 2848.2838,1047.5938 C2845.6588,1047.5938 2843.6588,1049.6719 2843.6588,1052.3906 L2843.6588,1053.5156 C2843.6588,1056.0938 2845.7682,1057.9844 2848.6588,1057.9844 C2849.8776,1057.9844 2851.0338,1057.6875 2851.7838,1057.1406 C2852.3619,1056.7344 2852.6901,1056.2813 2852.6901,1055.8906 C2852.6901,1055.4375 2852.2994,1055.0469 2851.8307,1055.0469 C2851.6119,1055.0469 2851.4088,1055.125 2851.2213,1055.3125 C2850.7682,1055.7969 2850.7682,1055.7969 2850.5807,1055.8906 C2850.1588,1056.1563 2849.4713,1056.2813 2848.7057,1056.2813 C2846.6588,1056.2813 2845.3619,1055.1875 2845.3619,1053.4844 L2845.3619,1052.3906 C2845.3619,1050.6094 2846.6119,1049.2969 2848.3463,1049.2969 C2848.9244,1049.2969 2849.5338,1049.4531 2850.0026,1049.7031 C2850.4869,1049.9844 2850.6588,1050.2031 2850.7526,1050.6094 C2850.8151,1051.0156 2850.8463,1051.1406 2850.9869,1051.2656 C2851.1276,1051.4063 2851.3619,1051.5156 2851.5807,1051.5156 C2851.8463,1051.5156 2852.1119,1051.375 2852.2838,1051.1563 C2852.3932,1051 2852.4244,1050.8125 2852.4244,1050.3906 L2852.4244,1048.9688 C2852.4244,1048.5313 2852.4088,1048.4063 2852.3151,1048.25 C2852.1588,1047.9844 2851.8776,1047.8438 2851.5807,1047.8438 C2851.2838,1047.8438 2851.0807,1047.9375 2850.8619,1048.25 L2850.6901,1048.1719 Z " fill="#000000"/><text fill="#000000" font-family="sans-serif" font-size="14" lengthAdjust="spacing" textLength="124" x="2868.8463" y="1057.3467">StreamFileWriter</text><line style="stroke:#181818;stroke-width:0.5;" x1="2367.0963" x2="3462.0963" y1="1068.5" y2="1068.5"/><rect fill="none" height="6" style="stroke:#C82930;stroke-width:1.0;" width="6" x="2374.0963" y="1079.1484"/><text fill="#000000" font-family="sans-serif" font-size="14" lengthAdjust="spacing" textLength="161" x="2386.0963" y="1085.4951">readonly guard: IGuard</text><line style="stroke:#181818;stroke-width:0.5;" x1="2367.0963" x2="3462.0963" y1="1092.7969" y2="1092.7969"/><ellipse cx="2377.0963" cy="1106.4453" fill="#84BE84" rx="3" ry="3" style="stroke:#038048;stroke-width:1.0;"/><text fill="#000000" font-family="sans-serif" font-size="14" lengthAdjust="spacing" textLength="339" x="2386.0963" y="1109.792">{constructor} StreamFileWriter(guard: IGuard )</text><ellipse cx="2377.0963" cy="1122.7422" fill="#84BE84" rx="3" ry="3" style="stroke:#038048;stroke-width:1.0;"/><text fill="#000000" font-family="sans-serif" font-size="14" lengthAdjust="spacing" textLength="1071" x="2386.0963" y="1126.0889">WriteFileAsync(outputPath: string, fileName: string, values: IEnumerable&lt;KeyValuePair&lt;string, long&gt;&gt;, cancellationToken: CancellationToken) : Task</text></g><!--class ILineSplitter--><g id="elem_ILineSplitter"><rect codeLine="62" fill="#F1F1F1" height="64.2969" id="ILineSplitter" rx="2.5" ry="2.5" style="stroke:#181818;stroke-width:0.5;" width="445" x="1311.0963" y="847.5"/><ellipse cx="1486.8463" cy="863.5" fill="#B4A7E5" rx="11" ry="11" style="stroke:#181818;stroke-width:1.0;"/><path d="M1487.7994,860.2813 L1489.5182,860.2813 C1489.9088,860.2813 1490.0963,860.25 1490.2213,860.1719 C1490.4869,860.0156 1490.6276,859.7344 1490.6276,859.4375 C1490.6276,859.1719 1490.5182,858.9063 1490.2838,858.7344 C1490.1119,858.625 1489.9713,858.5938 1489.5182,858.5938 L1484.3776,858.5938 C1483.9401,858.5938 1483.8151,858.6094 1483.6588,858.7031 C1483.4088,858.8594 1483.2526,859.1563 1483.2526,859.4375 C1483.2526,859.7188 1483.3932,859.9688 1483.6119,860.1406 C1483.7682,860.25 1483.9557,860.2813 1484.3776,860.2813 L1486.0963,860.2813 L1486.0963,866.7969 L1484.3776,866.7969 C1483.9401,866.7969 1483.8151,866.8125 1483.6588,866.9219 C1483.4088,867.0781 1483.2526,867.3594 1483.2526,867.6563 C1483.2526,867.9063 1483.3932,868.1719 1483.6119,868.3281 C1483.7682,868.4531 1483.9713,868.5 1484.3776,868.5 L1489.5182,868.5 C1490.2682,868.5 1490.6276,868.2188 1490.6276,867.6563 C1490.6276,867.375 1490.5182,867.125 1490.2838,866.9531 C1490.1119,866.8281 1489.9713,866.7969 1489.5182,866.7969 L1487.7994,866.7969 L1487.7994,860.2813 Z " fill="#000000"/><text fill="#000000" font-family="sans-serif" font-size="14" font-style="italic" lengthAdjust="spacing" textLength="85" x="1507.3463" y="868.3467">ILineSplitter</text><line style="stroke:#181818;stroke-width:0.5;" x1="1312.0963" x2="1755.0963" y1="879.5" y2="879.5"/><line style="stroke:#181818;stroke-width:0.5;" x1="1312.0963" x2="1755.0963" y1="887.5" y2="887.5"/><ellipse cx="1322.0963" cy="901.1484" fill="#84BE84" rx="3" ry="3" style="stroke:#038048;stroke-width:1.0;"/><text fill="#000000" font-family="sans-serif" font-size="14" lengthAdjust="spacing" textLength="419" x="1331.0963" y="904.4951">Split(line: string, separators: char[]): IEnumerable&lt;string&gt;</text></g><!--class LineSplitter--><g id="elem_LineSplitter"><rect codeLine="66" fill="#F1F1F1" height="113.1875" id="LineSplitter" rx="2.5" ry="2.5" style="stroke:#181818;stroke-width:0.5;" width="1162" x="1131.5963" y="1028.5"/><ellipse cx="1665.3463" cy="1044.5" fill="#ADD1B2" rx="11" ry="11" style="stroke:#181818;stroke-width:1.0;"/><path d="M1667.6901,1040.1719 C1666.7526,1039.7344 1666.1588,1039.5938 1665.2838,1039.5938 C1662.6588,1039.5938 1660.6588,1041.6719 1660.6588,1044.3906 L1660.6588,1045.5156 C1660.6588,1048.0938 1662.7682,1049.9844 1665.6588,1049.9844 C1666.8776,1049.9844 1668.0338,1049.6875 1668.7838,1049.1406 C1669.3619,1048.7344 1669.6901,1048.2813 1669.6901,1047.8906 C1669.6901,1047.4375 1669.2994,1047.0469 1668.8307,1047.0469 C1668.6119,1047.0469 1668.4088,1047.125 1668.2213,1047.3125 C1667.7682,1047.7969 1667.7682,1047.7969 1667.5807,1047.8906 C1667.1588,1048.1563 1666.4713,1048.2813 1665.7057,1048.2813 C1663.6588,1048.2813 1662.3619,1047.1875 1662.3619,1045.4844 L1662.3619,1044.3906 C1662.3619,1042.6094 1663.6119,1041.2969 1665.3463,1041.2969 C1665.9244,1041.2969 1666.5338,1041.4531 1667.0026,1041.7031 C1667.4869,1041.9844 1667.6588,1042.2031 1667.7526,1042.6094 C1667.8151,1043.0156 1667.8463,1043.1406 1667.9869,1043.2656 C1668.1276,1043.4063 1668.3619,1043.5156 1668.5807,1043.5156 C1668.8463,1043.5156 1669.1119,1043.375 1669.2838,1043.1563 C1669.3932,1043 1669.4244,1042.8125 1669.4244,1042.3906 L1669.4244,1040.9688 C1669.4244,1040.5313 1669.4088,1040.4063 1669.3151,1040.25 C1669.1588,1039.9844 1668.8776,1039.8438 1668.5807,1039.8438 C1668.2838,1039.8438 1668.0807,1039.9375 1667.8619,1040.25 L1667.6901,1040.1719 Z " fill="#000000"/><text fill="#000000" font-family="sans-serif" font-size="14" lengthAdjust="spacing" textLength="86" x="1685.8463" y="1049.3467">LineSplitter</text><line style="stroke:#181818;stroke-width:0.5;" x1="1132.5963" x2="2292.5963" y1="1060.5" y2="1060.5"/><rect fill="none" height="6" style="stroke:#C82930;stroke-width:1.0;" width="6" x="1139.5963" y="1071.1484"/><text fill="#000000" font-family="sans-serif" font-size="14" lengthAdjust="spacing" textLength="161" x="1151.5963" y="1077.4951">readonly guard: IGuard</text><rect fill="none" height="6" style="stroke:#C82930;stroke-width:1.0;" width="6" x="1139.5963" y="1087.4453"/><text fill="#000000" font-family="sans-serif" font-size="14" lengthAdjust="spacing" textLength="343" x="1151.5963" y="1093.792">readonly stringSplitOptions: StringSplitOptions</text><line style="stroke:#181818;stroke-width:0.5;" x1="1132.5963" x2="2292.5963" y1="1101.0938" y2="1101.0938"/><ellipse cx="1142.5963" cy="1114.7422" fill="#84BE84" rx="3" ry="3" style="stroke:#038048;stroke-width:1.0;"/><text fill="#000000" font-family="sans-serif" font-size="14" lengthAdjust="spacing" textLength="1136" x="1151.5963" y="1118.0889">{constructor} LineSplitter(guard: IGuard, stringSplitOptions: StringSplitOptions = StringSplitOptions.RemoveEmptyEntries | StringSplitOptions.TrimEntries)</text><ellipse cx="1142.5963" cy="1131.0391" fill="#84BE84" rx="3" ry="3" style="stroke:#038048;stroke-width:1.0;"/><text fill="#000000" font-family="sans-serif" font-size="14" lengthAdjust="spacing" textLength="419" x="1151.5963" y="1134.3857">Split(line: string, separators: char[]): IEnumerable&lt;string&gt;</text></g><!--class IWordCounter--><g id="elem_IWordCounter"><rect codeLine="80" fill="#F1F1F1" height="80.5938" id="IWordCounter" rx="2.5" ry="2.5" style="stroke:#181818;stroke-width:0.5;" width="461" x="4527.0963" y="839"/><ellipse cx="4703.8463" cy="855" fill="#B4A7E5" rx="11" ry="11" style="stroke:#181818;stroke-width:1.0;"/><path d="M4704.7994,851.7813 L4706.5182,851.7813 C4706.9088,851.7813 4707.0963,851.75 4707.2213,851.6719 C4707.4869,851.5156 4707.6276,851.2344 4707.6276,850.9375 C4707.6276,850.6719 4707.5182,850.4063 4707.2838,850.2344 C4707.1119,850.125 4706.9713,850.0938 4706.5182,850.0938 L4701.3776,850.0938 C4700.9401,850.0938 4700.8151,850.1094 4700.6588,850.2031 C4700.4088,850.3594 4700.2526,850.6563 4700.2526,850.9375 C4700.2526,851.2188 4700.3932,851.4688 4700.6119,851.6406 C4700.7682,851.75 4700.9557,851.7813 4701.3776,851.7813 L4703.0963,851.7813 L4703.0963,858.2969 L4701.3776,858.2969 C4700.9401,858.2969 4700.8151,858.3125 4700.6588,858.4219 C4700.4088,858.5781 4700.2526,858.8594 4700.2526,859.1563 C4700.2526,859.4063 4700.3932,859.6719 4700.6119,859.8281 C4700.7682,859.9531 4700.9713,860 4701.3776,860 L4706.5182,860 C4707.2682,860 4707.6276,859.7188 4707.6276,859.1563 C4707.6276,858.875 4707.5182,858.625 4707.2838,858.4531 C4707.1119,858.3281 4706.9713,858.2969 4706.5182,858.2969 L4704.7994,858.2969 L4704.7994,851.7813 Z " fill="#000000"/><text fill="#000000" font-family="sans-serif" font-size="14" font-style="italic" lengthAdjust="spacing" textLength="99" x="4724.3463" y="859.8467">IWordCounter</text><line style="stroke:#181818;stroke-width:0.5;" x1="4528.0963" x2="4987.0963" y1="871" y2="871"/><line style="stroke:#181818;stroke-width:0.5;" x1="4528.0963" x2="4987.0963" y1="879" y2="879"/><ellipse cx="4538.0963" cy="892.6484" fill="#84BE84" rx="3" ry="3" style="stroke:#038048;stroke-width:1.0;"/><text fill="#000000" font-family="sans-serif" font-size="14" lengthAdjust="spacing" textLength="201" x="4547.0963" y="895.9951">AddWord(word: string): void</text><ellipse cx="4538.0963" cy="908.9453" fill="#84BE84" rx="3" ry="3" style="stroke:#038048;stroke-width:1.0;"/><text fill="#000000" font-family="sans-serif" font-size="14" lengthAdjust="spacing" textLength="435" x="4547.0963" y="912.292">GetWordCount(): IEnumerable&lt;KeyValuePair&lt;string, long&gt;&gt;</text></g><!--class ConcurrentDictionaryWordCounter--><g id="elem_ConcurrentDictionaryWordCounter"><rect codeLine="85" fill="#F1F1F1" height="145.7813" id="ConcurrentDictionaryWordCounter" rx="2.5" ry="2.5" style="stroke:#181818;stroke-width:0.5;" width="835" x="4340.0963" y="1012"/><ellipse cx="4627.8463" cy="1028" fill="#ADD1B2" rx="11" ry="11" style="stroke:#181818;stroke-width:1.0;"/><path d="M4630.1901,1023.6719 C4629.2526,1023.2344 4628.6588,1023.0938 4627.7838,1023.0938 C4625.1588,1023.0938 4623.1588,1025.1719 4623.1588,1027.8906 L4623.1588,1029.0156 C4623.1588,1031.5938 4625.2682,1033.4844 4628.1588,1033.4844 C4629.3776,1033.4844 4630.5338,1033.1875 4631.2838,1032.6406 C4631.8619,1032.2344 4632.1901,1031.7813 4632.1901,1031.3906 C4632.1901,1030.9375 4631.7994,1030.5469 4631.3307,1030.5469 C4631.1119,1030.5469 4630.9088,1030.625 4630.7213,1030.8125 C4630.2682,1031.2969 4630.2682,1031.2969 4630.0807,1031.3906 C4629.6588,1031.6563 4628.9713,1031.7813 4628.2057,1031.7813 C4626.1588,1031.7813 4624.8619,1030.6875 4624.8619,1028.9844 L4624.8619,1027.8906 C4624.8619,1026.1094 4626.1119,1024.7969 4627.8463,1024.7969 C4628.4244,1024.7969 4629.0338,1024.9531 4629.5026,1025.2031 C4629.9869,1025.4844 4630.1588,1025.7031 4630.2526,1026.1094 C4630.3151,1026.5156 4630.3463,1026.6406 4630.4869,1026.7656 C4630.6276,1026.9063 4630.8619,1027.0156 4631.0807,1027.0156 C4631.3463,1027.0156 4631.6119,1026.875 4631.7838,1026.6563 C4631.8932,1026.5 4631.9244,1026.3125 4631.9244,1025.8906 L4631.9244,1024.4688 C4631.9244,1024.0313 4631.9088,1023.9063 4631.8151,1023.75 C4631.6588,1023.4844 4631.3776,1023.3438 4631.0807,1023.3438 C4630.7838,1023.3438 4630.5807,1023.4375 4630.3619,1023.75 L4630.1901,1023.6719 Z " fill="#000000"/><text fill="#000000" font-family="sans-serif" font-size="14" lengthAdjust="spacing" textLength="251" x="4648.3463" y="1032.8467">ConcurrentDictionaryWordCounter</text><line style="stroke:#181818;stroke-width:0.5;" x1="4341.0963" x2="5174.0963" y1="1044" y2="1044"/><rect fill="none" height="6" style="stroke:#C82930;stroke-width:1.0;" width="6" x="4348.0963" y="1054.6484"/><text fill="#000000" font-family="sans-serif" font-size="14" lengthAdjust="spacing" textLength="161" x="4360.0963" y="1060.9951">readonly guard: IGuard</text><rect fill="none" height="6" style="stroke:#C82930;stroke-width:1.0;" width="6" x="4348.0963" y="1070.9453"/><text fill="#000000" font-family="sans-serif" font-size="14" lengthAdjust="spacing" textLength="405" x="4360.0963" y="1077.292">readonly dictionary: ConcurrentDictionary&lt;string, long&gt;</text><line style="stroke:#181818;stroke-width:0.5;" x1="4341.0963" x2="5174.0963" y1="1084.5938" y2="1084.5938"/><ellipse cx="4351.0963" cy="1098.2422" fill="#84BE84" rx="3" ry="3" style="stroke:#038048;stroke-width:1.0;"/><text fill="#000000" font-family="sans-serif" font-size="14" lengthAdjust="spacing" textLength="462" x="4360.0963" y="1101.5889">{constructor} ConcurrentDictionaryWordCounter(guard: IGuard)</text><ellipse cx="4351.0963" cy="1114.5391" fill="#84BE84" rx="3" ry="3" style="stroke:#038048;stroke-width:1.0;"/><text fill="#000000" font-family="sans-serif" font-size="14" lengthAdjust="spacing" textLength="809" x="4360.0963" y="1117.8857">{constructor} ConcurrentDictionaryWordCounter(guard: IGuard, dictionary: ConcurrentDictionary&lt;string, long&gt;)</text><ellipse cx="4351.0963" cy="1130.8359" fill="#84BE84" rx="3" ry="3" style="stroke:#038048;stroke-width:1.0;"/><text fill="#000000" font-family="sans-serif" font-size="14" lengthAdjust="spacing" textLength="201" x="4360.0963" y="1134.1826">AddWord(word: string): void</text><ellipse cx="4351.0963" cy="1147.1328" fill="#84BE84" rx="3" ry="3" style="stroke:#038048;stroke-width:1.0;"/><text fill="#000000" font-family="sans-serif" font-size="14" lengthAdjust="spacing" textLength="435" x="4360.0963" y="1150.4795">GetWordCount(): IEnumerable&lt;KeyValuePair&lt;string, long&gt;&gt;</text></g><!--class TrieWordCounter--><g id="elem_TrieWordCounter"><rect codeLine="95" fill="#F1F1F1" height="145.7813" id="TrieWordCounter" rx="2.5" ry="2.5" style="stroke:#181818;stroke-width:0.5;" width="768" x="5210.5963" y="1012"/><ellipse cx="5528.3463" cy="1028" fill="#ADD1B2" rx="11" ry="11" style="stroke:#181818;stroke-width:1.0;"/><path d="M5530.6901,1023.6719 C5529.7526,1023.2344 5529.1588,1023.0938 5528.2838,1023.0938 C5525.6588,1023.0938 5523.6588,1025.1719 5523.6588,1027.8906 L5523.6588,1029.0156 C5523.6588,1031.5938 5525.7682,1033.4844 5528.6588,1033.4844 C5529.8776,1033.4844 5531.0338,1033.1875 5531.7838,1032.6406 C5532.3619,1032.2344 5532.6901,1031.7813 5532.6901,1031.3906 C5532.6901,1030.9375 5532.2994,1030.5469 5531.8307,1030.5469 C5531.6119,1030.5469 5531.4088,1030.625 5531.2213,1030.8125 C5530.7682,1031.2969 5530.7682,1031.2969 5530.5807,1031.3906 C5530.1588,1031.6563 5529.4713,1031.7813 5528.7057,1031.7813 C5526.6588,1031.7813 5525.3619,1030.6875 5525.3619,1028.9844 L5525.3619,1027.8906 C5525.3619,1026.1094 5526.6119,1024.7969 5528.3463,1024.7969 C5528.9244,1024.7969 5529.5338,1024.9531 5530.0026,1025.2031 C5530.4869,1025.4844 5530.6588,1025.7031 5530.7526,1026.1094 C5530.8151,1026.5156 5530.8463,1026.6406 5530.9869,1026.7656 C5531.1276,1026.9063 5531.3619,1027.0156 5531.5807,1027.0156 C5531.8463,1027.0156 5532.1119,1026.875 5532.2838,1026.6563 C5532.3932,1026.5 5532.4244,1026.3125 5532.4244,1025.8906 L5532.4244,1024.4688 C5532.4244,1024.0313 5532.4088,1023.9063 5532.3151,1023.75 C5532.1588,1023.4844 5531.8776,1023.3438 5531.5807,1023.3438 C5531.2838,1023.3438 5531.0807,1023.4375 5530.8619,1023.75 L5530.6901,1023.6719 Z " fill="#000000"/><text fill="#000000" font-family="sans-serif" font-size="14" lengthAdjust="spacing" textLength="124" x="5548.8463" y="1032.8467">TrieWordCounter</text><line style="stroke:#181818;stroke-width:0.5;" x1="5211.5963" x2="5977.5963" y1="1044" y2="1044"/><rect fill="none" height="6" style="stroke:#C82930;stroke-width:1.0;" width="6" x="5218.5963" y="1054.6484"/><text fill="#000000" font-family="sans-serif" font-size="14" lengthAdjust="spacing" textLength="171" x="5230.5963" y="1060.9951">readonly root: TrieNode</text><rect fill="none" height="6" style="stroke:#C82930;stroke-width:1.0;" width="6" x="5218.5963" y="1070.9453"/><text fill="#000000" font-family="sans-serif" font-size="14" lengthAdjust="spacing" textLength="156" x="5230.5963" y="1077.292">readonly Lock: object</text><line style="stroke:#181818;stroke-width:0.5;" x1="5211.5963" x2="5977.5963" y1="1084.5938" y2="1084.5938"/><ellipse cx="5221.5963" cy="1098.2422" fill="#84BE84" rx="3" ry="3" style="stroke:#038048;stroke-width:1.0;"/><text fill="#000000" font-family="sans-serif" font-size="14" lengthAdjust="spacing" textLength="240" x="5230.5963" y="1101.5889">{constructor} TrieWordCounter()</text><ellipse cx="5221.5963" cy="1114.5391" fill="#84BE84" rx="3" ry="3" style="stroke:#038048;stroke-width:1.0;"/><text fill="#000000" font-family="sans-serif" font-size="14" lengthAdjust="spacing" textLength="201" x="5230.5963" y="1117.8857">AddWord(word: string): void</text><ellipse cx="5221.5963" cy="1130.8359" fill="#84BE84" rx="3" ry="3" style="stroke:#038048;stroke-width:1.0;"/><text fill="#000000" font-family="sans-serif" font-size="14" lengthAdjust="spacing" textLength="435" x="5230.5963" y="1134.1826">GetWordCount(): IEnumerable&lt;KeyValuePair&lt;string, long&gt;&gt;</text><rect fill="#F24D5C" height="6" style="stroke:#C82930;stroke-width:1.0;" width="6" x="5218.5963" y="1144.1328"/><text fill="#000000" font-family="sans-serif" font-size="14" lengthAdjust="spacing" textLength="742" x="5230.5963" y="1150.4795">TraverseTrie(node: TrieNode, prefix: StringBuilder, wordCount: List&lt;KeyValuePair&lt;string, long&gt;&gt;): void</text></g><!--class TrieNode--><g id="elem_TrieNode"><rect codeLine="105" fill="#F1F1F1" height="80.5938" id="TrieNode" rx="2.5" ry="2.5" style="stroke:#181818;stroke-width:0.5;" width="170" x="5509.5963" y="1234"/><ellipse cx="5557.8463" cy="1250" fill="#ADD1B2" rx="11" ry="11" style="stroke:#181818;stroke-width:1.0;"/><path d="M5560.1901,1245.6719 C5559.2526,1245.2344 5558.6588,1245.0938 5557.7838,1245.0938 C5555.1588,1245.0938 5553.1588,1247.1719 5553.1588,1249.8906 L5553.1588,1251.0156 C5553.1588,1253.5938 5555.2682,1255.4844 5558.1588,1255.4844 C5559.3776,1255.4844 5560.5338,1255.1875 5561.2838,1254.6406 C5561.8619,1254.2344 5562.1901,1253.7813 5562.1901,1253.3906 C5562.1901,1252.9375 5561.7994,1252.5469 5561.3307,1252.5469 C5561.1119,1252.5469 5560.9088,1252.625 5560.7213,1252.8125 C5560.2682,1253.2969 5560.2682,1253.2969 5560.0807,1253.3906 C5559.6588,1253.6563 5558.9713,1253.7813 5558.2057,1253.7813 C5556.1588,1253.7813 5554.8619,1252.6875 5554.8619,1250.9844 L5554.8619,1249.8906 C5554.8619,1248.1094 5556.1119,1246.7969 5557.8463,1246.7969 C5558.4244,1246.7969 5559.0338,1246.9531 5559.5026,1247.2031 C5559.9869,1247.4844 5560.1588,1247.7031 5560.2526,1248.1094 C5560.3151,1248.5156 5560.3463,1248.6406 5560.4869,1248.7656 C5560.6276,1248.9063 5560.8619,1249.0156 5561.0807,1249.0156 C5561.3463,1249.0156 5561.6119,1248.875 5561.7838,1248.6563 C5561.8932,1248.5 5561.9244,1248.3125 5561.9244,1247.8906 L5561.9244,1246.4688 C5561.9244,1246.0313 5561.9088,1245.9063 5561.8151,1245.75 C5561.6588,1245.4844 5561.3776,1245.3438 5561.0807,1245.3438 C5560.7838,1245.3438 5560.5807,1245.4375 5560.3619,1245.75 L5560.1901,1245.6719 Z " fill="#000000"/><text fill="#000000" font-family="sans-serif" font-size="14" lengthAdjust="spacing" textLength="65" x="5578.3463" y="1254.8467">TrieNode</text><line style="stroke:#181818;stroke-width:0.5;" x1="5510.5963" x2="5678.5963" y1="1266" y2="1266"/><ellipse cx="5520.5963" cy="1279.6484" fill="none" rx="3" ry="3" style="stroke:#038048;stroke-width:1.0;"/><text fill="#000000" font-family="sans-serif" font-size="14" lengthAdjust="spacing" textLength="83" x="5529.5963" y="1282.9951">Count: long</text><ellipse cx="5520.5963" cy="1295.9453" fill="none" rx="3" ry="3" style="stroke:#038048;stroke-width:1.0;"/><text fill="#000000" font-family="sans-serif" font-size="14" lengthAdjust="spacing" textLength="144" x="5529.5963" y="1299.292">Children: TrieNode[]</text><line style="stroke:#181818;stroke-width:0.5;" x1="5510.5963" x2="5678.5963" y1="1306.5938" y2="1306.5938"/></g><!--class IWordExcluder--><g id="elem_IWordExcluder"><rect codeLine="119" fill="#F1F1F1" height="113.1875" id="IWordExcluder" rx="2.5" ry="2.5" style="stroke:#181818;stroke-width:0.5;" width="520" x="3690.5963" y="823"/><ellipse cx="3894.3463" cy="839" fill="#B4A7E5" rx="11" ry="11" style="stroke:#181818;stroke-width:1.0;"/><path d="M3895.2994,835.7813 L3897.0182,835.7813 C3897.4088,835.7813 3897.5963,835.75 3897.7213,835.6719 C3897.9869,835.5156 3898.1276,835.2344 3898.1276,834.9375 C3898.1276,834.6719 3898.0182,834.4063 3897.7838,834.2344 C3897.6119,834.125 3897.4713,834.0938 3897.0182,834.0938 L3891.8776,834.0938 C3891.4401,834.0938 3891.3151,834.1094 3891.1588,834.2031 C3890.9088,834.3594 3890.7526,834.6563 3890.7526,834.9375 C3890.7526,835.2188 3890.8932,835.4688 3891.1119,835.6406 C3891.2682,835.75 3891.4557,835.7813 3891.8776,835.7813 L3893.5963,835.7813 L3893.5963,842.2969 L3891.8776,842.2969 C3891.4401,842.2969 3891.3151,842.3125 3891.1588,842.4219 C3890.9088,842.5781 3890.7526,842.8594 3890.7526,843.1563 C3890.7526,843.4063 3890.8932,843.6719 3891.1119,843.8281 C3891.2682,843.9531 3891.4713,844 3891.8776,844 L3897.0182,844 C3897.7682,844 3898.1276,843.7188 3898.1276,843.1563 C3898.1276,842.875 3898.0182,842.625 3897.7838,842.4531 C3897.6119,842.3281 3897.4713,842.2969 3897.0182,842.2969 L3895.2994,842.2969 L3895.2994,835.7813 Z " fill="#000000"/><text fill="#000000" font-family="sans-serif" font-size="14" font-style="italic" lengthAdjust="spacing" textLength="104" x="3914.8463" y="843.8467">IWordExcluder</text><line style="stroke:#181818;stroke-width:0.5;" x1="3691.5963" x2="4209.5963" y1="855" y2="855"/><line style="stroke:#181818;stroke-width:0.5;" x1="3691.5963" x2="4209.5963" y1="863" y2="863"/><ellipse cx="3701.5963" cy="876.6484" fill="#84BE84" rx="3" ry="3" style="stroke:#038048;stroke-width:1.0;"/><text fill="#000000" font-family="sans-serif" font-size="14" lengthAdjust="spacing" textLength="216" x="3710.5963" y="879.9951">IsExcluded(word: string) : bool</text><ellipse cx="3701.5963" cy="892.9453" fill="#84BE84" rx="3" ry="3" style="stroke:#038048;stroke-width:1.0;"/><text fill="#000000" font-family="sans-serif" font-size="14" lengthAdjust="spacing" textLength="365" x="3710.5963" y="896.292">IncrementExcludeWord(excludeWord: string) : void</text><ellipse cx="3701.5963" cy="909.2422" fill="#84BE84" rx="3" ry="3" style="stroke:#038048;stroke-width:1.0;"/><text fill="#000000" font-family="sans-serif" font-size="14" lengthAdjust="spacing" textLength="385" x="3710.5963" y="912.5889">AddExcludeWord(excludeWord: params string[]) : void</text><ellipse cx="3701.5963" cy="925.5391" fill="#84BE84" rx="3" ry="3" style="stroke:#038048;stroke-width:1.0;"/><text fill="#000000" font-family="sans-serif" font-size="14" lengthAdjust="spacing" textLength="494" x="3710.5963" y="928.8857">GetExcludeWordCount() : IEnumerable&lt;KeyValuePair&lt;string, long&gt;&gt;</text></g><!--class WordExcluder--><g id="elem_WordExcluder"><rect codeLine="126" fill="#F1F1F1" height="178.375" id="WordExcluder" rx="2.5" ry="2.5" style="stroke:#181818;stroke-width:0.5;" width="747" x="3520.0963" y="996"/><ellipse cx="3839.8463" cy="1012" fill="#ADD1B2" rx="11" ry="11" style="stroke:#181818;stroke-width:1.0;"/><path d="M3842.1901,1007.6719 C3841.2526,1007.2344 3840.6588,1007.0938 3839.7838,1007.0938 C3837.1588,1007.0938 3835.1588,1009.1719 3835.1588,1011.8906 L3835.1588,1013.0156 C3835.1588,1015.5938 3837.2682,1017.4844 3840.1588,1017.4844 C3841.3776,1017.4844 3842.5338,1017.1875 3843.2838,1016.6406 C3843.8619,1016.2344 3844.1901,1015.7813 3844.1901,1015.3906 C3844.1901,1014.9375 3843.7994,1014.5469 3843.3307,1014.5469 C3843.1119,1014.5469 3842.9088,1014.625 3842.7213,1014.8125 C3842.2682,1015.2969 3842.2682,1015.2969 3842.0807,1015.3906 C3841.6588,1015.6563 3840.9713,1015.7813 3840.2057,1015.7813 C3838.1588,1015.7813 3836.8619,1014.6875 3836.8619,1012.9844 L3836.8619,1011.8906 C3836.8619,1010.1094 3838.1119,1008.7969 3839.8463,1008.7969 C3840.4244,1008.7969 3841.0338,1008.9531 3841.5026,1009.2031 C3841.9869,1009.4844 3842.1588,1009.7031 3842.2526,1010.1094 C3842.3151,1010.5156 3842.3463,1010.6406 3842.4869,1010.7656 C3842.6276,1010.9063 3842.8619,1011.0156 3843.0807,1011.0156 C3843.3463,1011.0156 3843.6119,1010.875 3843.7838,1010.6563 C3843.8932,1010.5 3843.9244,1010.3125 3843.9244,1009.8906 L3843.9244,1008.4688 C3843.9244,1008.0313 3843.9088,1007.9063 3843.8151,1007.75 C3843.6588,1007.4844 3843.3776,1007.3438 3843.0807,1007.3438 C3842.7838,1007.3438 3842.5807,1007.4375 3842.3619,1007.75 L3842.1901,1007.6719 Z " fill="#000000"/><text fill="#000000" font-family="sans-serif" font-size="14" lengthAdjust="spacing" textLength="99" x="3860.3463" y="1016.8467">WordExcluder</text><line style="stroke:#181818;stroke-width:0.5;" x1="3521.0963" x2="4266.0963" y1="1028" y2="1028"/><rect fill="none" height="6" style="stroke:#C82930;stroke-width:1.0;" width="6" x="3528.0963" y="1038.6484"/><text fill="#000000" font-family="sans-serif" font-size="14" lengthAdjust="spacing" textLength="161" x="3540.0963" y="1044.9951">readonly guard: IGuard</text><rect fill="none" height="6" style="stroke:#C82930;stroke-width:1.0;" width="6" x="3528.0963" y="1054.9453"/><text fill="#000000" font-family="sans-serif" font-size="14" lengthAdjust="spacing" textLength="469" x="3540.0963" y="1061.292">readonly excludeWordCount: ConcurrentDictionary&lt;string, long&gt;</text><line style="stroke:#181818;stroke-width:0.5;" x1="3521.0963" x2="4266.0963" y1="1068.5938" y2="1068.5938"/><ellipse cx="3531.0963" cy="1082.2422" fill="#84BE84" rx="3" ry="3" style="stroke:#038048;stroke-width:1.0;"/><text fill="#000000" font-family="sans-serif" font-size="14" lengthAdjust="spacing" textLength="721" x="3540.0963" y="1085.5889">{constructor} WordExcluder(guard: IGuard, excludeWordCount: ConcurrentDictionary&lt;string, long&gt;)</text><ellipse cx="3531.0963" cy="1098.5391" fill="#84BE84" rx="3" ry="3" style="stroke:#038048;stroke-width:1.0;"/><text fill="#000000" font-family="sans-serif" font-size="14" lengthAdjust="spacing" textLength="310" x="3540.0963" y="1101.8857">{constructor} WordExcluder(guard: IGuard)</text><ellipse cx="3531.0963" cy="1114.8359" fill="#84BE84" rx="3" ry="3" style="stroke:#038048;stroke-width:1.0;"/><text fill="#000000" font-family="sans-serif" font-size="14" lengthAdjust="spacing" textLength="216" x="3540.0963" y="1118.1826">IsExcluded(word: string) : bool</text><ellipse cx="3531.0963" cy="1131.1328" fill="#84BE84" rx="3" ry="3" style="stroke:#038048;stroke-width:1.0;"/><text fill="#000000" font-family="sans-serif" font-size="14" lengthAdjust="spacing" textLength="365" x="3540.0963" y="1134.4795">IncrementExcludeWord(excludeWord: string) : void</text><ellipse cx="3531.0963" cy="1147.4297" fill="#84BE84" rx="3" ry="3" style="stroke:#038048;stroke-width:1.0;"/><text fill="#000000" font-family="sans-serif" font-size="14" lengthAdjust="spacing" textLength="385" x="3540.0963" y="1150.7764">AddExcludeWord(excludeWord: params string[]) : void</text><ellipse cx="3531.0963" cy="1163.7266" fill="#84BE84" rx="3" ry="3" style="stroke:#038048;stroke-width:1.0;"/><text fill="#000000" font-family="sans-serif" font-size="14" lengthAdjust="spacing" textLength="494" x="3540.0963" y="1167.0732">GetExcludeWordCount() : IEnumerable&lt;KeyValuePair&lt;string, long&gt;&gt;</text></g><!--class IFileReaderManager--><g id="elem_IFileReaderManager"><rect codeLine="144" fill="#F1F1F1" height="64.2969" id="IFileReaderManager" rx="2.5" ry="2.5" style="stroke:#181818;stroke-width:0.5;" width="698" x="1079.5963" y="445.5"/><ellipse cx="1352.3463" cy="461.5" fill="#B4A7E5" rx="11" ry="11" style="stroke:#181818;stroke-width:1.0;"/><path d="M1353.2994,458.2813 L1355.0182,458.2813 C1355.4088,458.2813 1355.5963,458.25 1355.7213,458.1719 C1355.9869,458.0156 1356.1276,457.7344 1356.1276,457.4375 C1356.1276,457.1719 1356.0182,456.9063 1355.7838,456.7344 C1355.6119,456.625 1355.4713,456.5938 1355.0182,456.5938 L1349.8776,456.5938 C1349.4401,456.5938 1349.3151,456.6094 1349.1588,456.7031 C1348.9088,456.8594 1348.7526,457.1563 1348.7526,457.4375 C1348.7526,457.7188 1348.8932,457.9688 1349.1119,458.1406 C1349.2682,458.25 1349.4557,458.2813 1349.8776,458.2813 L1351.5963,458.2813 L1351.5963,464.7969 L1349.8776,464.7969 C1349.4401,464.7969 1349.3151,464.8125 1349.1588,464.9219 C1348.9088,465.0781 1348.7526,465.3594 1348.7526,465.6563 C1348.7526,465.9063 1348.8932,466.1719 1349.1119,466.3281 C1349.2682,466.4531 1349.4713,466.5 1349.8776,466.5 L1355.0182,466.5 C1355.7682,466.5 1356.1276,466.2188 1356.1276,465.6563 C1356.1276,465.375 1356.0182,465.125 1355.7838,464.9531 C1355.6119,464.8281 1355.4713,464.7969 1355.0182,464.7969 L1353.2994,464.7969 L1353.2994,458.2813 Z " fill="#000000"/><text fill="#000000" font-family="sans-serif" font-size="14" font-style="italic" lengthAdjust="spacing" textLength="144" x="1372.8463" y="466.3467">IFileReaderManager</text><line style="stroke:#181818;stroke-width:0.5;" x1="1080.5963" x2="1776.5963" y1="477.5" y2="477.5"/><line style="stroke:#181818;stroke-width:0.5;" x1="1080.5963" x2="1776.5963" y1="485.5" y2="485.5"/><ellipse cx="1090.5963" cy="499.1484" fill="#84BE84" rx="3" ry="3" style="stroke:#038048;stroke-width:1.0;"/><text fill="#000000" font-family="sans-serif" font-size="14" lengthAdjust="spacing" textLength="672" x="1099.5963" y="502.4951">Execute(channel: ChannelWriter&lt;string&gt;, filePaths: string[], cancel: CancellationToken): Task</text></g><!--class FileReaderManager--><g id="elem_FileReaderManager"><rect codeLine="148" fill="#F1F1F1" height="145.7813" id="FileReaderManager" rx="2.5" ry="2.5" style="stroke:#181818;stroke-width:0.5;" width="869" x="951.0963" y="594"/><ellipse cx="1312.8463" cy="610" fill="#ADD1B2" rx="11" ry="11" style="stroke:#181818;stroke-width:1.0;"/><path d="M1315.1901,605.6719 C1314.2526,605.2344 1313.6588,605.0938 1312.7838,605.0938 C1310.1588,605.0938 1308.1588,607.1719 1308.1588,609.8906 L1308.1588,611.0156 C1308.1588,613.5938 1310.2682,615.4844 1313.1588,615.4844 C1314.3776,615.4844 1315.5338,615.1875 1316.2838,614.6406 C1316.8619,614.2344 1317.1901,613.7813 1317.1901,613.3906 C1317.1901,612.9375 1316.7994,612.5469 1316.3307,612.5469 C1316.1119,612.5469 1315.9088,612.625 1315.7213,612.8125 C1315.2682,613.2969 1315.2682,613.2969 1315.0807,613.3906 C1314.6588,613.6563 1313.9713,613.7813 1313.2057,613.7813 C1311.1588,613.7813 1309.8619,612.6875 1309.8619,610.9844 L1309.8619,609.8906 C1309.8619,608.1094 1311.1119,606.7969 1312.8463,606.7969 C1313.4244,606.7969 1314.0338,606.9531 1314.5026,607.2031 C1314.9869,607.4844 1315.1588,607.7031 1315.2526,608.1094 C1315.3151,608.5156 1315.3463,608.6406 1315.4869,608.7656 C1315.6276,608.9063 1315.8619,609.0156 1316.0807,609.0156 C1316.3463,609.0156 1316.6119,608.875 1316.7838,608.6563 C1316.8932,608.5 1316.9244,608.3125 1316.9244,607.8906 L1316.9244,606.4688 C1316.9244,606.0313 1316.9088,605.9063 1316.8151,605.75 C1316.6588,605.4844 1316.3776,605.3438 1316.0807,605.3438 C1315.7838,605.3438 1315.5807,605.4375 1315.3619,605.75 L1315.1901,605.6719 Z " fill="#000000"/><text fill="#000000" font-family="sans-serif" font-size="14" lengthAdjust="spacing" textLength="137" x="1333.3463" y="614.8467">FileReaderManager</text><line style="stroke:#181818;stroke-width:0.5;" x1="952.0963" x2="1819.0963" y1="626" y2="626"/><rect fill="none" height="6" style="stroke:#C82930;stroke-width:1.0;" width="6" x="959.0963" y="636.6484"/><text fill="#000000" font-family="sans-serif" font-size="14" lengthAdjust="spacing" textLength="161" x="971.0963" y="642.9951">readonly guard: IGuard</text><rect fill="none" height="6" style="stroke:#C82930;stroke-width:1.0;" width="6" x="959.0963" y="652.9453"/><text fill="#000000" font-family="sans-serif" font-size="14" lengthAdjust="spacing" textLength="229" x="971.0963" y="659.292">readonly fileReader: IFileReader</text><rect fill="none" height="6" style="stroke:#C82930;stroke-width:1.0;" width="6" x="959.0963" y="669.2422"/><text fill="#000000" font-family="sans-serif" font-size="14" lengthAdjust="spacing" textLength="247" x="971.0963" y="675.5889">readonly lineSplitter: ILineSplitter</text><rect fill="none" height="6" style="stroke:#C82930;stroke-width:1.0;" width="6" x="959.0963" y="685.5391"/><text fill="#000000" font-family="sans-serif" font-size="14" lengthAdjust="spacing" textLength="193" x="971.0963" y="691.8857">readonly separators: char[]</text><line style="stroke:#181818;stroke-width:0.5;" x1="952.0963" x2="1819.0963" y1="699.1875" y2="699.1875"/><ellipse cx="962.0963" cy="712.8359" fill="#84BE84" rx="3" ry="3" style="stroke:#038048;stroke-width:1.0;"/><text fill="#000000" font-family="sans-serif" font-size="14" lengthAdjust="spacing" textLength="843" x="971.0963" y="716.1826">{constructor} FileReaderManager(guard: IGuard, fileReader: IFileReader, lineSplitter: ILineSplitter, separators: char[])</text><ellipse cx="962.0963" cy="729.1328" fill="#84BE84" rx="3" ry="3" style="stroke:#038048;stroke-width:1.0;"/><text fill="#000000" font-family="sans-serif" font-size="14" lengthAdjust="spacing" textLength="672" x="971.0963" y="732.4795">Execute(channel: ChannelWriter&lt;string&gt;, filePaths: string[], cancel: CancellationToken): Task</text></g><!--class IFileWriterManager--><g id="elem_IFileWriterManager"><rect codeLine="165" fill="#F1F1F1" height="80.5938" id="IFileWriterManager" rx="2.5" ry="2.5" style="stroke:#181818;stroke-width:0.5;" width="1199" x="1877.0963" y="437"/><ellipse cx="2404.3463" cy="453" fill="#B4A7E5" rx="11" ry="11" style="stroke:#181818;stroke-width:1.0;"/><path d="M2405.2994,449.7813 L2407.0182,449.7813 C2407.4088,449.7813 2407.5963,449.75 2407.7213,449.6719 C2407.9869,449.5156 2408.1276,449.2344 2408.1276,448.9375 C2408.1276,448.6719 2408.0182,448.4063 2407.7838,448.2344 C2407.6119,448.125 2407.4713,448.0938 2407.0182,448.0938 L2401.8776,448.0938 C2401.4401,448.0938 2401.3151,448.1094 2401.1588,448.2031 C2400.9088,448.3594 2400.7526,448.6563 2400.7526,448.9375 C2400.7526,449.2188 2400.8932,449.4688 2401.1119,449.6406 C2401.2682,449.75 2401.4557,449.7813 2401.8776,449.7813 L2403.5963,449.7813 L2403.5963,456.2969 L2401.8776,456.2969 C2401.4401,456.2969 2401.3151,456.3125 2401.1588,456.4219 C2400.9088,456.5781 2400.7526,456.8594 2400.7526,457.1563 C2400.7526,457.4063 2400.8932,457.6719 2401.1119,457.8281 C2401.2682,457.9531 2401.4713,458 2401.8776,458 L2407.0182,458 C2407.7682,458 2408.1276,457.7188 2408.1276,457.1563 C2408.1276,456.875 2408.0182,456.625 2407.7838,456.4531 C2407.6119,456.3281 2407.4713,456.2969 2407.0182,456.2969 L2405.2994,456.2969 L2405.2994,449.7813 Z " fill="#000000"/><text fill="#000000" font-family="sans-serif" font-size="14" font-style="italic" lengthAdjust="spacing" textLength="136" x="2424.8463" y="457.8467">IFileWriterManager</text><line style="stroke:#181818;stroke-width:0.5;" x1="1878.0963" x2="3075.0963" y1="469" y2="469"/><line style="stroke:#181818;stroke-width:0.5;" x1="1878.0963" x2="3075.0963" y1="477" y2="477"/><ellipse cx="1888.0963" cy="490.6484" fill="#84BE84" rx="3" ry="3" style="stroke:#038048;stroke-width:1.0;"/><text fill="#000000" font-family="sans-serif" font-size="14" lengthAdjust="spacing" textLength="1045" x="1897.0963" y="493.9951">WriteWordCountFiles(outputPath: string, keyValuePairs: IEnumerable&lt;KeyValuePair&lt;string, long&gt;&gt;, cancellationToken: CancellationToken): Task</text><ellipse cx="1888.0963" cy="506.9453" fill="#84BE84" rx="3" ry="3" style="stroke:#038048;stroke-width:1.0;"/><text fill="#000000" font-family="sans-serif" font-size="14" lengthAdjust="spacing" textLength="1173" x="1897.0963" y="510.292">WriteWordExcludeFile(outputPath: string, fileName: string, keyValuePairs: IEnumerable&lt;KeyValuePair&lt;string, long&gt;&gt;, cancellationToken: CancellationToken): Task</text></g><!--class FileWriterManager--><g id="elem_FileWriterManager"><rect codeLine="170" fill="#F1F1F1" height="129.4844" id="FileWriterManager" rx="2.5" ry="2.5" style="stroke:#181818;stroke-width:0.5;" width="1199" x="1877.0963" y="602.5"/><ellipse cx="2406.3463" cy="618.5" fill="#ADD1B2" rx="11" ry="11" style="stroke:#181818;stroke-width:1.0;"/><path d="M2408.6901,614.1719 C2407.7526,613.7344 2407.1588,613.5938 2406.2838,613.5938 C2403.6588,613.5938 2401.6588,615.6719 2401.6588,618.3906 L2401.6588,619.5156 C2401.6588,622.0938 2403.7682,623.9844 2406.6588,623.9844 C2407.8776,623.9844 2409.0338,623.6875 2409.7838,623.1406 C2410.3619,622.7344 2410.6901,622.2813 2410.6901,621.8906 C2410.6901,621.4375 2410.2994,621.0469 2409.8307,621.0469 C2409.6119,621.0469 2409.4088,621.125 2409.2213,621.3125 C2408.7682,621.7969 2408.7682,621.7969 2408.5807,621.8906 C2408.1588,622.1563 2407.4713,622.2813 2406.7057,622.2813 C2404.6588,622.2813 2403.3619,621.1875 2403.3619,619.4844 L2403.3619,618.3906 C2403.3619,616.6094 2404.6119,615.2969 2406.3463,615.2969 C2406.9244,615.2969 2407.5338,615.4531 2408.0026,615.7031 C2408.4869,615.9844 2408.6588,616.2031 2408.7526,616.6094 C2408.8151,617.0156 2408.8463,617.1406 2408.9869,617.2656 C2409.1276,617.4063 2409.3619,617.5156 2409.5807,617.5156 C2409.8463,617.5156 2410.1119,617.375 2410.2838,617.1563 C2410.3932,617 2410.4244,616.8125 2410.4244,616.3906 L2410.4244,614.9688 C2410.4244,614.5313 2410.4088,614.4063 2410.3151,614.25 C2410.1588,613.9844 2409.8776,613.8438 2409.5807,613.8438 C2409.2838,613.8438 2409.0807,613.9375 2408.8619,614.25 L2408.6901,614.1719 Z " fill="#000000"/><text fill="#000000" font-family="sans-serif" font-size="14" lengthAdjust="spacing" textLength="132" x="2426.8463" y="623.3467">FileWriterManager</text><line style="stroke:#181818;stroke-width:0.5;" x1="1878.0963" x2="3075.0963" y1="634.5" y2="634.5"/><rect fill="none" height="6" style="stroke:#C82930;stroke-width:1.0;" width="6" x="1885.0963" y="645.1484"/><text fill="#000000" font-family="sans-serif" font-size="14" lengthAdjust="spacing" textLength="161" x="1897.0963" y="651.4951">readonly guard: IGuard</text><rect fill="none" height="6" style="stroke:#C82930;stroke-width:1.0;" width="6" x="1885.0963" y="661.4453"/><text fill="#000000" font-family="sans-serif" font-size="14" lengthAdjust="spacing" textLength="219" x="1897.0963" y="667.792">readonly fileWriter: IFileWriter</text><line style="stroke:#181818;stroke-width:0.5;" x1="1878.0963" x2="3075.0963" y1="675.0938" y2="675.0938"/><ellipse cx="1888.0963" cy="688.7422" fill="#84BE84" rx="3" ry="3" style="stroke:#038048;stroke-width:1.0;"/><text fill="#000000" font-family="sans-serif" font-size="14" lengthAdjust="spacing" textLength="398" x="1897.0963" y="692.0889">FileWriterManager(guard: IGuard, fileWriter: IFileWriter)</text><ellipse cx="1888.0963" cy="705.0391" fill="#84BE84" rx="3" ry="3" style="stroke:#038048;stroke-width:1.0;"/><text fill="#000000" font-family="sans-serif" font-size="14" lengthAdjust="spacing" textLength="1173" x="1897.0963" y="708.3857">WriteWordExcludeFile(outputPath: string, fileName: string, keyValuePairs: IEnumerable&lt;KeyValuePair&lt;string, long&gt;&gt;, cancellationToken: CancellationToken): Task</text><ellipse cx="1888.0963" cy="721.3359" fill="#84BE84" rx="3" ry="3" style="stroke:#038048;stroke-width:1.0;"/><text fill="#000000" font-family="sans-serif" font-size="14" lengthAdjust="spacing" textLength="1045" x="1897.0963" y="724.6826">WriteWordCountFiles(outputPath: string, keyValuePairs: IEnumerable&lt;KeyValuePair&lt;string, long&gt;&gt;, cancellationToken: CancellationToken): Task</text></g><!--class IWordCountManager--><g id="elem_IWordCountManager"><rect codeLine="185" fill="#F1F1F1" height="96.8906" id="IWordCountManager" rx="2.5" ry="2.5" style="stroke:#181818;stroke-width:0.5;" width="1102" x="3575.5963" y="429"/><ellipse cx="4048.8463" cy="445" fill="#B4A7E5" rx="11" ry="11" style="stroke:#181818;stroke-width:1.0;"/><path d="M4049.7994,441.7813 L4051.5182,441.7813 C4051.9088,441.7813 4052.0963,441.75 4052.2213,441.6719 C4052.4869,441.5156 4052.6276,441.2344 4052.6276,440.9375 C4052.6276,440.6719 4052.5182,440.4063 4052.2838,440.2344 C4052.1119,440.125 4051.9713,440.0938 4051.5182,440.0938 L4046.3776,440.0938 C4045.9401,440.0938 4045.8151,440.1094 4045.6588,440.2031 C4045.4088,440.3594 4045.2526,440.6563 4045.2526,440.9375 C4045.2526,441.2188 4045.3932,441.4688 4045.6119,441.6406 C4045.7682,441.75 4045.9557,441.7813 4046.3776,441.7813 L4048.0963,441.7813 L4048.0963,448.2969 L4046.3776,448.2969 C4045.9401,448.2969 4045.8151,448.3125 4045.6588,448.4219 C4045.4088,448.5781 4045.2526,448.8594 4045.2526,449.1563 C4045.2526,449.4063 4045.3932,449.6719 4045.6119,449.8281 C4045.7682,449.9531 4045.9713,450 4046.3776,450 L4051.5182,450 C4052.2682,450 4052.6276,449.7188 4052.6276,449.1563 C4052.6276,448.875 4052.5182,448.625 4052.2838,448.4531 C4052.1119,448.3281 4051.9713,448.2969 4051.5182,448.2969 L4049.7994,448.2969 L4049.7994,441.7813 Z " fill="#000000"/><text fill="#000000" font-family="sans-serif" font-size="14" font-style="italic" lengthAdjust="spacing" textLength="147" x="4069.3463" y="449.8467">IWordCountManager</text><line style="stroke:#181818;stroke-width:0.5;" x1="3576.5963" x2="4676.5963" y1="461" y2="461"/><line style="stroke:#181818;stroke-width:0.5;" x1="3576.5963" x2="4676.5963" y1="469" y2="469"/><ellipse cx="3586.5963" cy="482.6484" fill="#84BE84" rx="3" ry="3" style="stroke:#038048;stroke-width:1.0;"/><text fill="#000000" font-family="sans-serif" font-size="14" lengthAdjust="spacing" textLength="1076" x="3595.5963" y="485.9951">Execute(channel: ChannelReader&lt;string&gt;, cancel: CancellationToken, wordCorrector?: Func&lt;string, string&gt;, channelFilter?: Func&lt;string, bool&gt;): Task</text><ellipse cx="3586.5963" cy="498.9453" fill="#84BE84" rx="3" ry="3" style="stroke:#038048;stroke-width:1.0;"/><text fill="#000000" font-family="sans-serif" font-size="14" lengthAdjust="spacing" textLength="435" x="3595.5963" y="502.292">GetWordCount(): IEnumerable&lt;KeyValuePair&lt;string, long&gt;&gt;</text><ellipse cx="3586.5963" cy="515.2422" fill="#84BE84" rx="3" ry="3" style="stroke:#038048;stroke-width:1.0;"/><text fill="#000000" font-family="sans-serif" font-size="14" lengthAdjust="spacing" textLength="490" x="3595.5963" y="518.5889">GetExcludeWordCount(): IEnumerable&lt;KeyValuePair&lt;string, long&gt;&gt;</text></g><!--class WordCountManager--><g id="elem_WordCountManager"><rect codeLine="191" fill="#F1F1F1" height="162.0781" id="WordCountManager" rx="2.5" ry="2.5" style="stroke:#181818;stroke-width:0.5;" width="1102" x="3575.5963" y="586"/><ellipse cx="4051.3463" cy="602" fill="#ADD1B2" rx="11" ry="11" style="stroke:#181818;stroke-width:1.0;"/><path d="M4053.6901,597.6719 C4052.7526,597.2344 4052.1588,597.0938 4051.2838,597.0938 C4048.6588,597.0938 4046.6588,599.1719 4046.6588,601.8906 L4046.6588,603.0156 C4046.6588,605.5938 4048.7682,607.4844 4051.6588,607.4844 C4052.8776,607.4844 4054.0338,607.1875 4054.7838,606.6406 C4055.3619,606.2344 4055.6901,605.7813 4055.6901,605.3906 C4055.6901,604.9375 4055.2994,604.5469 4054.8307,604.5469 C4054.6119,604.5469 4054.4088,604.625 4054.2213,604.8125 C4053.7682,605.2969 4053.7682,605.2969 4053.5807,605.3906 C4053.1588,605.6563 4052.4713,605.7813 4051.7057,605.7813 C4049.6588,605.7813 4048.3619,604.6875 4048.3619,602.9844 L4048.3619,601.8906 C4048.3619,600.1094 4049.6119,598.7969 4051.3463,598.7969 C4051.9244,598.7969 4052.5338,598.9531 4053.0026,599.2031 C4053.4869,599.4844 4053.6588,599.7031 4053.7526,600.1094 C4053.8151,600.5156 4053.8463,600.6406 4053.9869,600.7656 C4054.1276,600.9063 4054.3619,601.0156 4054.5807,601.0156 C4054.8463,601.0156 4055.1119,600.875 4055.2838,600.6563 C4055.3932,600.5 4055.4244,600.3125 4055.4244,599.8906 L4055.4244,598.4688 C4055.4244,598.0313 4055.4088,597.9063 4055.3151,597.75 C4055.1588,597.4844 4054.8776,597.3438 4054.5807,597.3438 C4054.2838,597.3438 4054.0807,597.4375 4053.8619,597.75 L4053.6901,597.6719 Z " fill="#000000"/><text fill="#000000" font-family="sans-serif" font-size="14" lengthAdjust="spacing" textLength="142" x="4071.8463" y="606.8467">WordCountManager</text><line style="stroke:#181818;stroke-width:0.5;" x1="3576.5963" x2="4676.5963" y1="618" y2="618"/><rect fill="none" height="6" style="stroke:#C82930;stroke-width:1.0;" width="6" x="3583.5963" y="628.6484"/><text fill="#000000" font-family="sans-serif" font-size="14" lengthAdjust="spacing" textLength="161" x="3595.5963" y="634.9951">readonly guard: IGuard</text><rect fill="none" height="6" style="stroke:#C82930;stroke-width:1.0;" width="6" x="3583.5963" y="644.9453"/><text fill="#000000" font-family="sans-serif" font-size="14" lengthAdjust="spacing" textLength="268" x="3595.5963" y="651.292">readonly wordCounter: IWordCounter</text><rect fill="none" height="6" style="stroke:#C82930;stroke-width:1.0;" width="6" x="3583.5963" y="661.2422"/><text fill="#000000" font-family="sans-serif" font-size="14" lengthAdjust="spacing" textLength="274" x="3595.5963" y="667.5889">readonly wordExcluder: IWordExcluder</text><line style="stroke:#181818;stroke-width:0.5;" x1="3576.5963" x2="4676.5963" y1="674.8906" y2="674.8906"/><ellipse cx="3586.5963" cy="688.5391" fill="#84BE84" rx="3" ry="3" style="stroke:#038048;stroke-width:1.0;"/><text fill="#000000" font-family="sans-serif" font-size="14" lengthAdjust="spacing" textLength="673" x="3595.5963" y="691.8857">WordCountManager(guard: IGuard, wordExcluder: IWordExcluder, wordCounter: IWordCounter)</text><ellipse cx="3586.5963" cy="704.8359" fill="#84BE84" rx="3" ry="3" style="stroke:#038048;stroke-width:1.0;"/><text fill="#000000" font-family="sans-serif" font-size="14" lengthAdjust="spacing" textLength="1076" x="3595.5963" y="708.1826">Execute(channel: ChannelReader&lt;string&gt;, cancel: CancellationToken, wordCorrector?: Func&lt;string, string&gt;, channelFilter?: Func&lt;string, bool&gt;): Task</text><ellipse cx="3586.5963" cy="721.1328" fill="#84BE84" rx="3" ry="3" style="stroke:#038048;stroke-width:1.0;"/><text fill="#000000" font-family="sans-serif" font-size="14" lengthAdjust="spacing" textLength="435" x="3595.5963" y="724.4795">GetWordCount(): IEnumerable&lt;KeyValuePair&lt;string, long&gt;&gt;</text><ellipse cx="3586.5963" cy="737.4297" fill="#84BE84" rx="3" ry="3" style="stroke:#038048;stroke-width:1.0;"/><text fill="#000000" font-family="sans-serif" font-size="14" lengthAdjust="spacing" textLength="490" x="3595.5963" y="740.7764">GetExcludeWordCount(): IEnumerable&lt;KeyValuePair&lt;string, long&gt;&gt;</text></g><!--class IWordCountWorkFlow--><g id="elem_IWordCountWorkFlow"><rect codeLine="209" fill="#F1F1F1" height="64.2969" id="IWordCountWorkFlow" rx="2.5" ry="2.5" style="stroke:#181818;stroke-width:0.5;" width="1310" x="1318.5963" y="84"/><ellipse cx="1892.8463" cy="100" fill="#B4A7E5" rx="11" ry="11" style="stroke:#181818;stroke-width:1.0;"/><path d="M1893.7994,96.7813 L1895.5182,96.7813 C1895.9088,96.7813 1896.0963,96.75 1896.2213,96.6719 C1896.4869,96.5156 1896.6276,96.2344 1896.6276,95.9375 C1896.6276,95.6719 1896.5182,95.4063 1896.2838,95.2344 C1896.1119,95.125 1895.9713,95.0938 1895.5182,95.0938 L1890.3776,95.0938 C1889.9401,95.0938 1889.8151,95.1094 1889.6588,95.2031 C1889.4088,95.3594 1889.2526,95.6563 1889.2526,95.9375 C1889.2526,96.2188 1889.3932,96.4688 1889.6119,96.6406 C1889.7682,96.75 1889.9557,96.7813 1890.3776,96.7813 L1892.0963,96.7813 L1892.0963,103.2969 L1890.3776,103.2969 C1889.9401,103.2969 1889.8151,103.3125 1889.6588,103.4219 C1889.4088,103.5781 1889.2526,103.8594 1889.2526,104.1563 C1889.2526,104.4063 1889.3932,104.6719 1889.6119,104.8281 C1889.7682,104.9531 1889.9713,105 1890.3776,105 L1895.5182,105 C1896.2682,105 1896.6276,104.7188 1896.6276,104.1563 C1896.6276,103.875 1896.5182,103.625 1896.2838,103.4531 C1896.1119,103.3281 1895.9713,103.2969 1895.5182,103.2969 L1893.7994,103.2969 L1893.7994,96.7813 Z " fill="#000000"/><text fill="#000000" font-family="sans-serif" font-size="14" font-style="italic" lengthAdjust="spacing" textLength="153" x="1913.3463" y="104.8467">IWordCountWorkFlow</text><line style="stroke:#181818;stroke-width:0.5;" x1="1319.5963" x2="2627.5963" y1="116" y2="116"/><line style="stroke:#181818;stroke-width:0.5;" x1="1319.5963" x2="2627.5963" y1="124" y2="124"/><ellipse cx="1329.5963" cy="137.6484" fill="#84BE84" rx="3" ry="3" style="stroke:#038048;stroke-width:1.0;"/><text fill="#000000" font-family="sans-serif" font-size="14" lengthAdjust="spacing" textLength="1284" x="1338.5963" y="140.9951">Execute(channel: Channel&lt;string&gt;, configuration: Configuration, token: CancellationToken, wordCorrector?: Func&lt;string, string&gt;, channelReaderFilter?: Func&lt;string, bool&gt;): Task</text></g><!--class WordCountWorkFlow--><g id="elem_WordCountWorkFlow"><rect codeLine="213" fill="#F1F1F1" height="145.7813" id="WordCountWorkFlow" rx="2.5" ry="2.5" style="stroke:#181818;stroke-width:0.5;" width="1310" x="1318.5963" y="208"/><ellipse cx="1893.8463" cy="224" fill="#ADD1B2" rx="11" ry="11" style="stroke:#181818;stroke-width:1.0;"/><path d="M1896.1901,219.6719 C1895.2526,219.2344 1894.6588,219.0938 1893.7838,219.0938 C1891.1588,219.0938 1889.1588,221.1719 1889.1588,223.8906 L1889.1588,225.0156 C1889.1588,227.5938 1891.2682,229.4844 1894.1588,229.4844 C1895.3776,229.4844 1896.5338,229.1875 1897.2838,228.6406 C1897.8619,228.2344 1898.1901,227.7813 1898.1901,227.3906 C1898.1901,226.9375 1897.7994,226.5469 1897.3307,226.5469 C1897.1119,226.5469 1896.9088,226.625 1896.7213,226.8125 C1896.2682,227.2969 1896.2682,227.2969 1896.0807,227.3906 C1895.6588,227.6563 1894.9713,227.7813 1894.2057,227.7813 C1892.1588,227.7813 1890.8619,226.6875 1890.8619,224.9844 L1890.8619,223.8906 C1890.8619,222.1094 1892.1119,220.7969 1893.8463,220.7969 C1894.4244,220.7969 1895.0338,220.9531 1895.5026,221.2031 C1895.9869,221.4844 1896.1588,221.7031 1896.2526,222.1094 C1896.3151,222.5156 1896.3463,222.6406 1896.4869,222.7656 C1896.6276,222.9063 1896.8619,223.0156 1897.0807,223.0156 C1897.3463,223.0156 1897.6119,222.875 1897.7838,222.6563 C1897.8932,222.5 1897.9244,222.3125 1897.9244,221.8906 L1897.9244,220.4688 C1897.9244,220.0313 1897.9088,219.9063 1897.8151,219.75 C1897.6588,219.4844 1897.3776,219.3438 1897.0807,219.3438 C1896.7838,219.3438 1896.5807,219.4375 1896.3619,219.75 L1896.1901,219.6719 Z " fill="#000000"/><text fill="#000000" font-family="sans-serif" font-size="14" lengthAdjust="spacing" textLength="151" x="1914.3463" y="228.8467">WordCountWorkFlow</text><line style="stroke:#181818;stroke-width:0.5;" x1="1319.5963" x2="2627.5963" y1="240" y2="240"/><rect fill="none" height="6" style="stroke:#C82930;stroke-width:1.0;" width="6" x="1326.5963" y="250.6484"/><text fill="#000000" font-family="sans-serif" font-size="14" lengthAdjust="spacing" textLength="161" x="1338.5963" y="256.9951">readonly guard: IGuard</text><rect fill="none" height="6" style="stroke:#C82930;stroke-width:1.0;" width="6" x="1326.5963" y="266.9453"/><text fill="#000000" font-family="sans-serif" font-size="14" lengthAdjust="spacing" textLength="360" x="1338.5963" y="273.292">readonly wordCountManager: IWordCountManager</text><rect fill="none" height="6" style="stroke:#C82930;stroke-width:1.0;" width="6" x="1326.5963" y="283.2422"/><text fill="#000000" font-family="sans-serif" font-size="14" lengthAdjust="spacing" textLength="351" x="1338.5963" y="289.5889">readonly fileReaderManager: IFileReaderManager</text><rect fill="none" height="6" style="stroke:#C82930;stroke-width:1.0;" width="6" x="1326.5963" y="299.5391"/><text fill="#000000" font-family="sans-serif" font-size="14" lengthAdjust="spacing" textLength="341" x="1338.5963" y="305.8857">readonly fileWriterManager: IFileWriterManager</text><line style="stroke:#181818;stroke-width:0.5;" x1="1319.5963" x2="2627.5963" y1="313.1875" y2="313.1875"/><ellipse cx="1329.5963" cy="326.8359" fill="#84BE84" rx="3" ry="3" style="stroke:#038048;stroke-width:1.0;"/><text fill="#000000" font-family="sans-serif" font-size="14" lengthAdjust="spacing" textLength="1134" x="1338.5963" y="330.1826">WordCountWorkFlow(guard: IGuard, wordCountManager: IWordCountManager, fileReaderManager: IFileReaderManager, fileWriterManager: IFileWriterManager)</text><ellipse cx="1329.5963" cy="343.1328" fill="#84BE84" rx="3" ry="3" style="stroke:#038048;stroke-width:1.0;"/><text fill="#000000" font-family="sans-serif" font-size="14" lengthAdjust="spacing" textLength="1284" x="1338.5963" y="346.4795">Execute(channel: Channel&lt;string&gt;, configuration: Configuration, token: CancellationToken, wordCorrector?: Func&lt;string, string&gt;, channelReaderFilter?: Func&lt;string, bool&gt;): Task</text></g><!--reverse link IGuard to Guard--><g id="link_IGuard_Guard"><path codeLine="21" d="M2540.3763,1275.558 C2388.4963,1277.038 1978.5863,1289.34 1650.5963,1375 C1644.9363,1376.479 1639.1463,1378.335 1633.4263,1380.401 " fill="none" id="IGuard-backto-Guard" style="stroke:#181818;stroke-width:1.0;"/><polygon fill="none" points="2540.4163,1268.557,2560.4663,1275.412,2540.5163,1282.557,2540.4163,1268.557" style="stroke:#181818;stroke-width:1.0;"/></g><!--reverse link IGuard to GuardAgainstEmptyAndWhiteSpaceExtension--><g id="link_IGuard_GuardAgainstEmptyAndWhiteSpaceExtension"><path codeLine="22" d="M2547.8063,1290.842 C2476.9763,1311.429 2349.5463,1348.468 2258.3063,1374.984 " fill="none" id="IGuard-backto-GuardAgainstEmptyAndWhiteSpaceExtension" style="stroke:#181818;stroke-width:1.0;"/><polygon fill="#181818" points="2560.3563,1287.196,2553.4783,1285.0298,2548.8333,1290.5456,2555.7113,1292.7118,2560.3563,1287.196" style="stroke:#181818;stroke-width:1.0;"/></g><!--reverse link IGuard to GuardAgainstFileSystemInfoNotFoundExtension--><g id="link_IGuard_GuardAgainstFileSystemInfoNotFoundExtension"><path codeLine="23" d="M2653.4963,1290.842 C2724.4863,1311.429 2852.2063,1348.468 2943.6463,1374.984 " fill="none" id="IGuard-backto-GuardAgainstFileSystemInfoNotFoundExtension" style="stroke:#181818;stroke-width:1.0;"/><polygon fill="#181818" points="2640.9263,1287.196,2645.5775,1292.7066,2652.4531,1290.5327,2647.8019,1285.0221,2640.9263,1287.196" style="stroke:#181818;stroke-width:1.0;"/></g><!--reverse link IGuard to GuardAgainstNullExtensions--><g id="link_IGuard_GuardAgainstNullExtensions"><path codeLine="24" d="M2653.7663,1281.598 C2796.5663,1297.972 3195.9863,1343.776 3468.1863,1374.991 " fill="none" id="IGuard-backto-GuardAgainstNullExtensions" style="stroke:#181818;stroke-width:1.0;"/><polygon fill="#181818" points="2640.7663,1280.106,2646.2699,1284.7655,2652.6877,1281.4773,2647.1841,1276.8179,2640.7663,1280.106" style="stroke:#181818;stroke-width:1.0;"/></g><!--reverse link IFileReader to StreamFileReader--><g id="link_IFileReader_StreamFileReader"><path codeLine="40" d="M634.8253,931.466 C627.4023,963.607 617.8793,1004.84 610.6063,1036.33 " fill="none" id="IFileReader-backto-StreamFileReader" style="stroke:#181818;stroke-width:1.0;"/><polygon fill="none" points="628.0343,929.763,639.3553,911.851,641.6753,932.913,628.0343,929.763" style="stroke:#181818;stroke-width:1.0;"/></g><!--reverse link StreamFileReader to IGuard--><g id="link_StreamFileReader_IGuard"><path codeLine="41" d="M796.1623,1136.554 C891.8903,1159.146 1009.0653,1183.827 1115.5963,1198 C1685.2763,1273.793 2387.1763,1274.86 2560.5063,1273.85 " fill="none" id="StreamFileReader-backto-IGuard" style="stroke:#181818;stroke-width:1.0;"/><polygon fill="#181818" points="783.4003,1133.525,788.3141,1138.8027,795.0758,1136.2968,790.162,1131.0191,783.4003,1133.525" style="stroke:#181818;stroke-width:1.0;"/></g><!--reverse link IFileWriter to StreamFileWriter--><g id="link_IFileWriter_StreamFileWriter"><path codeLine="57" d="M2914.5963,931.925 C2914.5963,963.999 2914.5963,1004.99 2914.5963,1036.33 " fill="none" id="IFileWriter-backto-StreamFileWriter" style="stroke:#181818;stroke-width:1.0;"/><polygon fill="none" points="2907.5963,931.851,2914.5963,911.851,2921.5963,931.851,2907.5963,931.851" style="stroke:#181818;stroke-width:1.0;"/></g><!--reverse link StreamFileWriter to IGuard--><g id="link_StreamFileWriter_IGuard"><path codeLine="58" d="M2823.7263,1140.264 C2762.4763,1176.834 2684.8063,1223.213 2639.1263,1250.494 " fill="none" id="StreamFileWriter-backto-IGuard" style="stroke:#181818;stroke-width:1.0;"/><polygon fill="#181818" points="2834.9563,1133.557,2827.7539,1133.2019,2824.656,1139.7137,2831.8584,1140.0688,2834.9563,1133.557" style="stroke:#181818;stroke-width:1.0;"/></g><!--reverse link ILineSplitter to LineSplitter--><g id="link_ILineSplitter_LineSplitter"><path codeLine="74" d="M1574.5963,927.109 C1601.1063,957.251 1635.7563,996.644 1663.7063,1028.416 " fill="none" id="ILineSplitter-backto-LineSplitter" style="stroke:#181818;stroke-width:1.0;"/><polygon fill="none" points="1569.1263,931.491,1561.1763,911.851,1579.6363,922.245,1569.1263,931.491" style="stroke:#181818;stroke-width:1.0;"/></g><!--reverse link LineSplitter to IGuard--><g id="link_LineSplitter_IGuard"><path codeLine="75" d="M1988.6663,1144.292 C2196.0363,1188.077 2460.7063,1243.963 2560.2963,1264.991 " fill="none" id="LineSplitter-backto-IGuard" style="stroke:#181818;stroke-width:1.0;"/><polygon fill="#181818" points="1975.7163,1141.558,1980.7605,1146.7112,1987.4574,1144.037,1982.4132,1138.8838,1975.7163,1141.558" style="stroke:#181818;stroke-width:1.0;"/></g><!--reverse link IWordCounter to ConcurrentDictionaryWordCounter--><g id="link_IWordCounter_ConcurrentDictionaryWordCounter"><path codeLine="110" d="M4757.5963,940.489 C4757.5963,962.86 4757.5963,988.489 4757.5963,1011.841 " fill="none" id="IWordCounter-backto-ConcurrentDictionaryWordCounter" style="stroke:#181818;stroke-width:1.0;"/><polygon fill="none" points="4750.5963,940.22,4757.5963,920.22,4764.5963,940.22,4750.5963,940.22" style="stroke:#181818;stroke-width:1.0;"/></g><!--reverse link ConcurrentDictionaryWordCounter to IGuard--><g id="link_ConcurrentDictionaryWordCounter_IGuard"><path codeLine="111" d="M4496.0263,1161.194 C4436.2063,1175.768 4372.5763,1189.222 4312.5963,1198 C3974.6163,1247.463 2865.5463,1268.936 2640.6063,1272.836 " fill="none" id="ConcurrentDictionaryWordCounter-backto-IGuard" style="stroke:#181818;stroke-width:1.0;"/><polygon fill="#181818" points="4508.7363,1158.068,4501.9555,1155.6142,4497.0825,1160.9297,4503.8633,1163.3834,4508.7363,1158.068" style="stroke:#181818;stroke-width:1.0;"/></g><!--reverse link IWordCounter to TrieWordCounter--><g id="link_IWordCounter_TrieWordCounter"><path codeLine="112" d="M4940.0063,924.85 C5044.7563,950.316 5178.8263,982.913 5298.3163,1011.966 " fill="none" id="IWordCounter-backto-TrieWordCounter" style="stroke:#181818;stroke-width:1.0;"/><polygon fill="none" points="4938.2463,931.626,4920.4663,920.099,4941.5563,918.022,4938.2463,931.626" style="stroke:#181818;stroke-width:1.0;"/></g><!--reverse link TrieWordCounter to TrieNode--><g id="link_TrieWordCounter_TrieNode"><path codeLine="113" d="M5594.5963,1171.322 C5594.5963,1193.137 5594.5963,1215.566 5594.5963,1233.832 " fill="none" id="TrieWordCounter-backto-TrieNode" style="stroke:#181818;stroke-width:1.0;"/><polygon fill="#181818" points="5594.5963,1158.224,5590.5963,1164.224,5594.5963,1170.224,5598.5963,1164.224,5594.5963,1158.224" style="stroke:#181818;stroke-width:1.0;"/></g><!--reverse link IWordExcluder to WordExcluder--><g id="link_IWordExcluder_WordExcluder"><path codeLine="138" d="M3929.5963,955.474 C3925.9063,968.643 3922.0363,982.457 3918.2563,995.944 " fill="none" id="IWordExcluder-backto-WordExcluder" style="stroke:#181818;stroke-width:1.0;"/><polygon fill="none" points="3922.8863,953.478,3935.0163,936.107,3936.3663,957.254,3922.8863,953.478" style="stroke:#181818;stroke-width:1.0;"/></g><!--reverse link WordExcluder to IGuard--><g id="link_WordExcluder_IGuard"><path codeLine="139" d="M3579.9663,1177.125 C3546.2763,1185.032 3512.3463,1192.211 3479.5963,1198 C3159.4663,1254.584 2765.9463,1269.24 2640.7863,1272.596 " fill="none" id="WordExcluder-backto-IGuard" style="stroke:#181818;stroke-width:1.0;"/><polygon fill="#181818" points="3592.8663,1174.06,3586.1024,1171.56,3581.1933,1176.8421,3587.9572,1179.3421,3592.8663,1174.06" style="stroke:#181818;stroke-width:1.0;"/></g><!--reverse link IFileReaderManager to FileReaderManager--><g id="link_IFileReaderManager_FileReaderManager"><path codeLine="158" d="M1416.8863,529.548 C1412.3363,549.392 1407.0463,572.483 1402.1163,593.964 " fill="none" id="IFileReaderManager-backto-FileReaderManager" style="stroke:#181818;stroke-width:1.0;"/><polygon fill="none" points="1410.1063,527.812,1421.3963,509.883,1423.7463,530.942,1410.1063,527.812" style="stroke:#181818;stroke-width:1.0;"/></g><!--reverse link FileReaderManager to IFileReader--><g id="link_FileReaderManager_IFileReader"><path codeLine="159" d="M1119.9563,743.666 C994.4233,779.423 851.4833,820.139 755.8253,847.387 " fill="none" id="FileReaderManager-backto-IFileReader" style="stroke:#181818;stroke-width:1.0;"/><polygon fill="#181818" points="1132.8263,740.001,1125.9607,737.7956,1121.2843,743.2848,1128.1499,745.4902,1132.8263,740.001" style="stroke:#181818;stroke-width:1.0;"/></g><!--reverse link FileReaderManager to ILineSplitter--><g id="link_FileReaderManager_ILineSplitter"><path codeLine="160" d="M1443.9563,751.003 C1467.7463,784.842 1493.7963,821.897 1511.6563,847.294 " fill="none" id="FileReaderManager-backto-ILineSplitter" style="stroke:#181818;stroke-width:1.0;"/><polygon fill="#181818" points="1436.3263,740.148,1436.5025,747.357,1443.2246,749.967,1443.0485,742.7581,1436.3263,740.148" style="stroke:#181818;stroke-width:1.0;"/></g><!--reverse link IFileWriterManager to FileWriterManager--><g id="link_IFileWriterManager_FileWriterManager"><path codeLine="179" d="M2476.5963,538.419 C2476.5963,558.802 2476.5963,581.649 2476.5963,602.317 " fill="none" id="IFileWriterManager-backto-FileWriterManager" style="stroke:#181818;stroke-width:1.0;"/><polygon fill="none" points="2469.5963,538.264,2476.5963,518.264,2483.5963,538.264,2469.5963,538.264" style="stroke:#181818;stroke-width:1.0;"/></g><!--reverse link FileWriterManager to IFileWriter--><g id="link_FileWriterManager_IFileWriter"><path codeLine="180" d="M2620.7163,737.265 C2698.2363,774.519 2789.9763,818.61 2850.0863,847.497 " fill="none" id="FileWriterManager-backto-IFileWriter" style="stroke:#181818;stroke-width:1.0;"/><polygon fill="#181818" points="2608.9063,731.585,2612.5826,737.7886,2619.723,736.781,2616.0467,730.5774,2608.9063,731.585" style="stroke:#181818;stroke-width:1.0;"/></g><!--reverse link FileWriterManager to IGuard--><g id="link_FileWriterManager_IGuard"><path codeLine="181" d="M2375.3763,741.239 C2364.9763,753.003 2355.9263,765.975 2349.5963,780 C2311.3763,864.662 2294.1763,1123.456 2349.5963,1198 C2374.8763,1232.008 2496.2363,1256.495 2560.4863,1267.314 " fill="none" id="FileWriterManager-backto-IGuard" style="stroke:#181818;stroke-width:1.0;"/><polygon fill="#181818" points="2384.3963,731.646,2377.3722,733.2777,2376.1768,740.389,2383.2009,738.7573,2384.3963,731.646" style="stroke:#181818;stroke-width:1.0;"/></g><!--reverse link IWordCountManager to WordCountManager--><g id="link_IWordCountManager_WordCountManager"><path codeLine="201" d="M4126.5963,546.368 C4126.5963,559.191 4126.5963,572.714 4126.5963,585.872 " fill="none" id="IWordCountManager-backto-WordCountManager" style="stroke:#181818;stroke-width:1.0;"/><polygon fill="none" points="4119.5963,546.299,4126.5963,526.299,4133.5963,546.299,4119.5963,546.299" style="stroke:#181818;stroke-width:1.0;"/></g><!--reverse link WordCountManager to IGuard--><g id="link_WordCountManager_IGuard"><path codeLine="202" d="M4269.8763,758.614 C4275.0863,765.352 4279.7263,772.479 4283.5963,780 C4304.8563,821.29 4315.6963,1164.431 4283.5963,1198 C4224.9763,1259.306 2890.3763,1271.502 2640.6563,1273.25 " fill="none" id="WordCountManager-backto-IGuard" style="stroke:#181818;stroke-width:1.0;"/><polygon fill="#181818" points="4261.2263,748.346,4262.0252,755.5127,4268.9478,757.5317,4268.149,750.365,4261.2263,748.346" style="stroke:#181818;stroke-width:1.0;"/></g><!--reverse link WordCountManager to IWordExcluder--><g id="link_WordCountManager_IWordExcluder"><path codeLine="203" d="M4051.1963,758.179 C4032.8663,780.105 4013.7863,802.923 3997.2363,822.718 " fill="none" id="WordCountManager-backto-IWordExcluder" style="stroke:#181818;stroke-width:1.0;"/><polygon fill="#181818" points="4059.5563,748.182,4052.6388,750.2187,4051.8583,757.3875,4058.7758,755.3507,4059.5563,748.182" style="stroke:#181818;stroke-width:1.0;"/></g><!--reverse link WordCountManager to IWordCounter--><g id="link_WordCountManager_IWordCounter"><path codeLine="204" d="M4378.8363,752.148 C4468.6763,782.118 4565.6563,814.468 4638.9863,838.932 " fill="none" id="WordCountManager-backto-IWordCounter" style="stroke:#181818;stroke-width:1.0;"/><polygon fill="#181818" points="4366.4963,748.031,4370.9219,753.7243,4377.8794,751.8289,4373.4538,746.1356,4366.4963,748.031" style="stroke:#181818;stroke-width:1.0;"/></g><!--reverse link IWordCountWorkFlow to WordCountWorkFlow--><g id="link_IWordCountWorkFlow_WordCountWorkFlow"><path codeLine="222" d="M1973.5963,168.44 C1973.5963,180.95 1973.5963,194.57 1973.5963,207.85 " fill="none" id="IWordCountWorkFlow-backto-WordCountWorkFlow" style="stroke:#181818;stroke-width:1.0;"/><polygon fill="none" points="1966.5963,168.04,1973.5963,148.04,1980.5963,168.04,1966.5963,168.04" style="stroke:#181818;stroke-width:1.0;"/></g><!--reverse link WordCountWorkFlow to IGuard--><g id="link_WordCountWorkFlow_IGuard"><path codeLine="223" d="M1305.1363,327.05 C1181.1963,341.57 1053.4063,360.74 934.5963,386 C546.7863,468.46 87.5963,269.52 87.5963,666 C87.5963,666 87.5963,666 87.5963,880.5 C87.5963,1021.891 6,1099.666 107.5963,1198 C153.5867,1242.514 2242.2763,1269.217 2560.2063,1273.027 " fill="none" id="WordCountWorkFlow-backto-IGuard" style="stroke:#181818;stroke-width:1.0;"/><polygon fill="#181818" points="1318.2763,325.52,1311.8549,322.239,1306.3564,326.9045,1312.7779,330.1855,1318.2763,325.52" style="stroke:#181818;stroke-width:1.0;"/></g><!--reverse link WordCountWorkFlow to IWordCountManager--><g id="link_WordCountWorkFlow_IWordCountManager"><path codeLine="224" d="M2641.9663,342.38 C2950.5263,370.26 3311.6063,402.87 3600.3963,428.96 " fill="none" id="WordCountWorkFlow-backto-IWordCountManager" style="stroke:#181818;stroke-width:1.0;"/><polygon fill="#181818" points="2628.7063,341.18,2634.3213,345.7046,2640.6575,342.2617,2635.0424,337.7371,2628.7063,341.18" style="stroke:#181818;stroke-width:1.0;"/></g><!--reverse link WordCountWorkFlow to IFileReaderManager--><g id="link_WordCountWorkFlow_IFileReaderManager"><path codeLine="225" d="M1759.3263,358.47 C1674.2563,388.83 1581.2363,422.02 1515.5863,445.46 " fill="none" id="WordCountWorkFlow-backto-IFileReaderManager" style="stroke:#181818;stroke-width:1.0;"/><polygon fill="#181818" points="1771.8163,354.01,1764.8206,352.2605,1760.5151,358.0452,1767.5108,359.7947,1771.8163,354.01" style="stroke:#181818;stroke-width:1.0;"/></g><!--reverse link WordCountWorkFlow to IFileWriterManager--><g id="link_WordCountWorkFlow_IFileWriterManager"><path codeLine="226" d="M2172.2263,358.81 C2241.4563,385.58 2316.2863,414.51 2374.4163,436.99 " fill="none" id="WordCountWorkFlow-backto-IFileWriterManager" style="stroke:#181818;stroke-width:1.0;"/><polygon fill="#181818" points="2159.8263,354.01,2163.9816,359.9035,2171.02,358.3345,2166.8646,352.441,2159.8263,354.01" style="stroke:#181818;stroke-width:1.0;"/></g><!--SRC=[xLXHKziu47xdLsXuYdkcFy33qKbfk66k1vsIEHuO7eIjW2-Eb95a8DFotxkIBLkIPSU13iDD-mB9QbVwTlVRrIfhd2xnBK7xdp0LI_8Hq-NxlqhCittqRG-XjC1282tGtn7wuvJc4YNeL0j1zBG7Vt8g2L_WbDHohQnNh1scjpYdGivMQxcPqkpoBfVaOWr6iqT9gCWPDMTqzSzvgpx9wRgK2VfAS7PEYmq8wM5wX_bHZDQOunK1C6VmBq52yfpUVeZHYWW1VZQIA6JUZ_aaByZ5HaYoEgKBTiRa2IjfDemxR6F0LpXs0bnzwWTvLXP50qa4CIaLWs2-q-5pSswTuCFl1mS86HBKmdSW6vdgVgCjiUutTFtVsmEuwm2zrVugzuHN7BUusourqLDVfqNnEQT4JCM6ffC5A7t1ygxDOOffIee2IpXtpfQ49kZO5q48JxNzZ9Ohml5DGGuhUuzs5v8JlEeWEK0WpXZm5TqgdviAh75-Iy5doSjKClxKsMJYsA3ePSvTrJx0KRQVry_osWww9fMF7NGwCL6fh_qVoF8b1zhn_K2IgvKcoVghabT1OAM42d73e09ZLqcCxd5H4W4EMhxzJJR_Al4NdFD3erWmSFTe94sWjSwnMFPneW7-8b9Kk_IGukq6mqwTHvLAwb2bLjnE5KN_YtMHInbe2VPYmnSjc1Imr4P04DLD8T0G1NMRN5r7RZY2rHxOlZUftcArdpO-NwkOmS4N7LcO2lQnBWtYaVkYFmF2zr_9YjqJtVPd59Q9GDz3UdEUhsg5w2V6rCsMfeWj0Gr7OJirBXdFZk7wgPdXKiDQR9WnpJ8bdZmm5T8A7c2-PtbchcCY6yD9DBfYNDeSCvgMd1CgF-Mf2YdccowSiKpAcZsIuCukb32ZjY1oIHQzV8juHzJHwoO824u64y8PKpCOg9snZFYhdrcwJ12x-O-aCXnlxu39Q_Yd8CuvlYTS47N-X0BqrWcO9pbPv8-cNNmiym8kwnWzcECIg3yXXqvfeNh1L0SqLLPlfaoCv0xEukeMCSfNrqrNi1EXcy8Mfe7DjWApMaVe02yxeECJubsjfRC_r7vcZsbHPdtznwmseJaLjSYZ05obDumLHekcdAp0krfPKuQqdsqpYpf0hbu3_POGjHqqQkIJphAikOUUMLm1nyUsEkA1U7x3iq7uhUavfqGxdXBz4WbtIQvhovQ0XgCmxbrGFIB-mHGM0tNLKMcAQ_P8qbAI2SmYb982qbfzg4PDCurKyx6Qc4NIXCTClE6dONVaxmCnbkYBnZwnFVBL2ciUIjpvgJDlTeQnS65qaFlLqGCj7W8Jd0LVCoi1LcWsTiIWsrLLlFJIqAVaf63hutQGn8wA8R4MDZMfr4JmZRUqYlEdF-oQsDg0wYfMa4Q-Eby7erULeQZkKfMLVMAdo1HIP_jGwGJidQVxMmwb0_9D4D3_OQ5Jt8wuhbjNLLywpeyGFJhZdffMIOUVcsDlfQgxjFsljzMP2Htc4zN2FoJefAHf4zXsWsfVy0v0-Lfgs3XoC_sIbqRF1F62YJ4Gkx5b-z0ExeapxOSKpJ2IkCEBOR-7nA_mWHtYVXpHRogCd2KT5ZJpf2sjPqf7qNdkXLS3OsbOoL1dMn-03ykJWZqC_F1aLBQs0YlpZ2xosvBhbEjtIVirHhAdN-v8YufkeyWHAbBFhPshj0vvqiru_vJSseGckfvBt3NoRmgdt8rFeNhV0ZeU1pCU1opwVrCbG7wtYetOhi56DLp7xl9GFt0rGqmPK7NvyVG3]--></g></svg>