<?xml version="1.0" encoding="us-ascii" standalone="no"?><svg xmlns="http://www.w3.org/2000/svg" xmlns:xlink="http://www.w3.org/1999/xlink" contentStyleType="text/css" height="1168px" preserveAspectRatio="none" style="width:1475px;height:1168px;background:#FFFFFF;" version="1.1" viewBox="0 0 1475 1168" width="1475px" zoomAndPan="magnify"><defs/><g><rect fill="#FFFFFF" height="966.6563" style="stroke:#181818;stroke-width:1.0;" width="10" x="155.5" y="112.4297"/><rect fill="#FFFFFF" height="276.1953" style="stroke:#181818;stroke-width:1.0;" width="10" x="379.5" y="553.9609"/><rect fill="#FFFFFF" height="366.2656" style="stroke:#181818;stroke-width:1.0;" width="10" x="1005" y="141.5625"/><rect fill="none" height="340.1328" style="stroke:#000000;stroke-width:1.5;" width="556.5" x="834" y="185.6953"/><rect fill="none" height="90.2031" style="stroke:#000000;stroke-width:1.5;" width="458.5" x="922" y="410.625"/><rect fill="none" height="225.0625" style="stroke:#000000;stroke-width:1.5;" width="673" x="279" y="598.0938"/><rect fill="none" height="193.9297" style="stroke:#000000;stroke-width:1.5;" width="653" x="289" y="622.2266"/><rect fill="none" height="46.2656" style="stroke:#000000;stroke-width:1.5;" width="633" x="299" y="762.8906"/><line style="stroke:#181818;stroke-width:0.5;stroke-dasharray:5.0,5.0;" x1="36" x2="36" y1="81.2969" y2="1088.0859"/><line style="stroke:#181818;stroke-width:0.5;stroke-dasharray:5.0,5.0;" x1="160" x2="160" y1="81.2969" y2="1088.0859"/><line style="stroke:#181818;stroke-width:0.5;stroke-dasharray:5.0,5.0;" x1="384" x2="384" y1="81.2969" y2="1088.0859"/><line style="stroke:#181818;stroke-width:0.5;stroke-dasharray:5.0,5.0;" x1="543" x2="543" y1="81.2969" y2="1088.0859"/><line style="stroke:#181818;stroke-width:0.5;stroke-dasharray:5.0,5.0;" x1="673" x2="673" y1="81.2969" y2="1088.0859"/><line style="stroke:#181818;stroke-width:0.5;stroke-dasharray:5.0,5.0;" x1="782" x2="782" y1="81.2969" y2="1088.0859"/><line style="stroke:#181818;stroke-width:0.5;stroke-dasharray:5.0,5.0;" x1="883" x2="883" y1="81.2969" y2="1088.0859"/><line style="stroke:#181818;stroke-width:0.5;stroke-dasharray:5.0,5.0;" x1="1010" x2="1010" y1="81.2969" y2="1088.0859"/><line style="stroke:#181818;stroke-width:0.5;stroke-dasharray:5.0,5.0;" x1="1187.5" x2="1187.5" y1="81.2969" y2="1088.0859"/><line style="stroke:#181818;stroke-width:0.5;stroke-dasharray:5.0,5.0;" x1="1313.5" x2="1313.5" y1="81.2969" y2="1088.0859"/><line style="stroke:#181818;stroke-width:0.5;stroke-dasharray:5.0,5.0;" x1="1424.5" x2="1424.5" y1="81.2969" y2="1088.0859"/><text fill="#000000" font-family="sans-serif" font-size="14" lengthAdjust="spacing" textLength="57" x="5" y="77.9951">Console</text><ellipse cx="36.5" cy="13.5" fill="#E2E2F0" rx="8" ry="8" style="stroke:#181818;stroke-width:0.5;"/><path d="M36.5,21.5 L36.5,48.5 M23.5,29.5 L49.5,29.5 M36.5,48.5 L23.5,63.5 M36.5,48.5 L49.5,63.5 " fill="none" style="stroke:#181818;stroke-width:0.5;"/><text fill="#000000" font-family="sans-serif" font-size="14" lengthAdjust="spacing" textLength="57" x="5" y="1100.0811">Console</text><ellipse cx="36.5" cy="1111.8828" fill="#E2E2F0" rx="8" ry="8" style="stroke:#181818;stroke-width:0.5;"/><path d="M36.5,1119.8828 L36.5,1146.8828 M23.5,1127.8828 L49.5,1127.8828 M36.5,1146.8828 L23.5,1161.8828 M36.5,1146.8828 L49.5,1161.8828 " fill="none" style="stroke:#181818;stroke-width:0.5;"/><rect fill="#E2E2F0" height="30.2969" rx="2.5" ry="2.5" style="stroke:#181818;stroke-width:0.5;" width="165" x="78" y="50"/><text fill="#000000" font-family="sans-serif" font-size="14" lengthAdjust="spacing" textLength="151" x="85" y="69.9951">WordCountWorkFlow</text><rect fill="#E2E2F0" height="30.2969" rx="2.5" ry="2.5" style="stroke:#181818;stroke-width:0.5;" width="165" x="78" y="1087.0859"/><text fill="#000000" font-family="sans-serif" font-size="14" lengthAdjust="spacing" textLength="151" x="85" y="1107.0811">WordCountWorkFlow</text><rect fill="#E2E2F0" height="30.2969" rx="2.5" ry="2.5" style="stroke:#181818;stroke-width:0.5;" width="151" x="309" y="50"/><text fill="#000000" font-family="sans-serif" font-size="14" lengthAdjust="spacing" textLength="137" x="316" y="69.9951">FileReaderManager</text><rect fill="#E2E2F0" height="30.2969" rx="2.5" ry="2.5" style="stroke:#181818;stroke-width:0.5;" width="151" x="309" y="1087.0859"/><text fill="#000000" font-family="sans-serif" font-size="14" lengthAdjust="spacing" textLength="137" x="316" y="1107.0811">FileReaderManager</text><rect fill="#E2E2F0" height="30.2969" rx="2.5" ry="2.5" style="stroke:#181818;stroke-width:0.5;" width="146" x="470" y="50"/><text fill="#000000" font-family="sans-serif" font-size="14" lengthAdjust="spacing" textLength="132" x="477" y="69.9951">FileWriterManager</text><rect fill="#E2E2F0" height="30.2969" rx="2.5" ry="2.5" style="stroke:#181818;stroke-width:0.5;" width="146" x="470" y="1087.0859"/><text fill="#000000" font-family="sans-serif" font-size="14" lengthAdjust="spacing" textLength="132" x="477" y="1107.0811">FileWriterManager</text><rect fill="#E2E2F0" height="30.2969" rx="2.5" ry="2.5" style="stroke:#181818;stroke-width:0.5;" width="94" x="626" y="50"/><text fill="#000000" font-family="sans-serif" font-size="14" lengthAdjust="spacing" textLength="80" x="633" y="69.9951">IFileReader</text><rect fill="#E2E2F0" height="30.2969" rx="2.5" ry="2.5" style="stroke:#181818;stroke-width:0.5;" width="94" x="626" y="1087.0859"/><text fill="#000000" font-family="sans-serif" font-size="14" lengthAdjust="spacing" textLength="80" x="633" y="1107.0811">IFileReader</text><rect fill="#E2E2F0" height="30.2969" rx="2.5" ry="2.5" style="stroke:#181818;stroke-width:0.5;" width="104" x="730" y="50"/><text fill="#000000" font-family="sans-serif" font-size="14" lengthAdjust="spacing" textLength="90" x="737" y="69.9951">ILineSplitter</text><rect fill="#E2E2F0" height="30.2969" rx="2.5" ry="2.5" style="stroke:#181818;stroke-width:0.5;" width="104" x="730" y="1087.0859"/><text fill="#000000" font-family="sans-serif" font-size="14" lengthAdjust="spacing" textLength="90" x="737" y="1107.0811">ILineSplitter</text><path d="M849,55 L917,55 C922,55 922,68.1484 922,68.1484 C922,68.1484 922,81.2969 917,81.2969 L849,81.2969 C844,81.2969 844,68.1484 844,68.1484 C844,68.1484 844,55 849,55 " fill="#E2E2F0" style="stroke:#181818;stroke-width:0.5;"/><path d="M917,55 C912,55 912,68.1484 912,68.1484 C912,81.2969 917,81.2969 917,81.2969 " fill="none" style="stroke:#181818;stroke-width:0.5;"/><text fill="#000000" font-family="sans-serif" font-size="14" lengthAdjust="spacing" textLength="58" x="849" y="72.9951">Channel</text><path d="M849,1087.0859 L917,1087.0859 C922,1087.0859 922,1100.2344 922,1100.2344 C922,1100.2344 922,1113.3828 917,1113.3828 L849,1113.3828 C844,1113.3828 844,1100.2344 844,1100.2344 C844,1100.2344 844,1087.0859 849,1087.0859 " fill="#E2E2F0" style="stroke:#181818;stroke-width:0.5;"/><path d="M917,1087.0859 C912,1087.0859 912,1100.2344 912,1100.2344 C912,1113.3828 917,1113.3828 917,1113.3828 " fill="none" style="stroke:#181818;stroke-width:0.5;"/><text fill="#000000" font-family="sans-serif" font-size="14" lengthAdjust="spacing" textLength="58" x="849" y="1105.0811">Channel</text><rect fill="#E2E2F0" height="30.2969" rx="2.5" ry="2.5" style="stroke:#181818;stroke-width:0.5;" width="156" x="932" y="50"/><text fill="#000000" font-family="sans-serif" font-size="14" lengthAdjust="spacing" textLength="142" x="939" y="69.9951">WordCountManager</text><rect fill="#E2E2F0" height="30.2969" rx="2.5" ry="2.5" style="stroke:#181818;stroke-width:0.5;" width="156" x="932" y="1087.0859"/><text fill="#000000" font-family="sans-serif" font-size="14" lengthAdjust="spacing" textLength="142" x="939" y="1107.0811">WordCountManager</text><rect fill="#E2E2F0" height="30.2969" rx="2.5" ry="2.5" style="stroke:#181818;stroke-width:0.5;" width="117" x="1129.5" y="50"/><text fill="#000000" font-family="sans-serif" font-size="14" lengthAdjust="spacing" textLength="103" x="1136.5" y="69.9951">IWordExcluder</text><rect fill="#E2E2F0" height="30.2969" rx="2.5" ry="2.5" style="stroke:#181818;stroke-width:0.5;" width="117" x="1129.5" y="1087.0859"/><text fill="#000000" font-family="sans-serif" font-size="14" lengthAdjust="spacing" textLength="103" x="1136.5" y="1107.0811">IWordExcluder</text><rect fill="#E2E2F0" height="30.2969" rx="2.5" ry="2.5" style="stroke:#181818;stroke-width:0.5;" width="114" x="1256.5" y="50"/><text fill="#000000" font-family="sans-serif" font-size="14" lengthAdjust="spacing" textLength="100" x="1263.5" y="69.9951">IWordCounter</text><rect fill="#E2E2F0" height="30.2969" rx="2.5" ry="2.5" style="stroke:#181818;stroke-width:0.5;" width="114" x="1256.5" y="1087.0859"/><text fill="#000000" font-family="sans-serif" font-size="14" lengthAdjust="spacing" textLength="100" x="1263.5" y="1107.0811">IWordCounter</text><rect fill="#E2E2F0" height="30.2969" rx="2.5" ry="2.5" style="stroke:#181818;stroke-width:0.5;" width="89" x="1380.5" y="50"/><text fill="#000000" font-family="sans-serif" font-size="14" lengthAdjust="spacing" textLength="75" x="1387.5" y="69.9951">IFileWriter</text><rect fill="#E2E2F0" height="30.2969" rx="2.5" ry="2.5" style="stroke:#181818;stroke-width:0.5;" width="89" x="1380.5" y="1087.0859"/><text fill="#000000" font-family="sans-serif" font-size="14" lengthAdjust="spacing" textLength="75" x="1387.5" y="1107.0811">IFileWriter</text><rect fill="#FFFFFF" height="966.6563" style="stroke:#181818;stroke-width:1.0;" width="10" x="155.5" y="112.4297"/><rect fill="#FFFFFF" height="276.1953" style="stroke:#181818;stroke-width:1.0;" width="10" x="379.5" y="553.9609"/><rect fill="#FFFFFF" height="366.2656" style="stroke:#181818;stroke-width:1.0;" width="10" x="1005" y="141.5625"/><polygon fill="#181818" points="143.5,108.4297,153.5,112.4297,143.5,116.4297,147.5,112.4297" style="stroke:#181818;stroke-width:1.0;"/><line style="stroke:#181818;stroke-width:1.0;" x1="36.5" x2="149.5" y1="112.4297" y2="112.4297"/><text fill="#000000" font-family="sans-serif" font-size="13" lengthAdjust="spacing" textLength="52" x="43.5" y="107.3638">Execute</text><polygon fill="#181818" points="993,137.5625,1003,141.5625,993,145.5625,997,141.5625" style="stroke:#181818;stroke-width:1.0;"/><line style="stroke:#181818;stroke-width:1.0;" x1="165.5" x2="999" y1="141.5625" y2="141.5625"/><text fill="#000000" font-family="sans-serif" font-size="13" lengthAdjust="spacing" textLength="94" x="172.5" y="136.4966">async Execute</text><polygon fill="#181818" points="176.5,166.6953,166.5,170.6953,176.5,174.6953,172.5,170.6953" style="stroke:#181818;stroke-width:1.0;"/><line style="stroke:#181818;stroke-width:1.0;stroke-dasharray:2.0,2.0;" x1="170.5" x2="1004" y1="170.6953" y2="170.6953"/><text fill="#000000" font-family="sans-serif" font-size="13" lengthAdjust="spacing" textLength="30" x="182.5" y="165.6294">Task</text><path d="M834,185.6953 L912,185.6953 L912,192.8281 L902,202.8281 L834,202.8281 L834,185.6953 " fill="#EEEEEE" style="stroke:#000000;stroke-width:1.5;"/><rect fill="none" height="340.1328" style="stroke:#000000;stroke-width:1.5;" width="556.5" x="834" y="185.6953"/><text fill="#000000" font-family="sans-serif" font-size="13" font-weight="bold" lengthAdjust="spacing" textLength="33" x="849" y="198.7622">loop</text><text fill="#000000" font-family="sans-serif" font-size="11" font-weight="bold" lengthAdjust="spacing" textLength="210" x="927" y="197.9058">[until channel stream is closed]</text><polygon fill="#181818" points="894,219.9609,884,223.9609,894,227.9609,890,223.9609" style="stroke:#181818;stroke-width:1.0;"/><line style="stroke:#181818;stroke-width:1.0;" x1="888" x2="1004" y1="223.9609" y2="223.9609"/><text fill="#000000" font-family="sans-serif" font-size="13" lengthAdjust="spacing" textLength="87" x="900" y="218.895">ReadAllAsync</text><polygon fill="#181818" points="993,249.0938,1003,253.0938,993,257.0938,997,253.0938" style="stroke:#181818;stroke-width:1.0;"/><line style="stroke:#181818;stroke-width:1.0;stroke-dasharray:2.0,2.0;" x1="883" x2="999" y1="253.0938" y2="253.0938"/><text fill="#000000" font-family="sans-serif" font-size="13" lengthAdjust="spacing" textLength="72" x="890" y="248.0278">string word</text><line style="stroke:#181818;stroke-width:1.0;" x1="1015" x2="1057" y1="282.2266" y2="282.2266"/><line style="stroke:#181818;stroke-width:1.0;" x1="1057" x2="1057" y1="282.2266" y2="295.2266"/><line style="stroke:#181818;stroke-width:1.0;" x1="1016" x2="1057" y1="295.2266" y2="295.2266"/><polygon fill="#181818" points="1026,291.2266,1016,295.2266,1026,299.2266,1022,295.2266" style="stroke:#181818;stroke-width:1.0;"/><text fill="#000000" font-family="sans-serif" font-size="13" lengthAdjust="spacing" textLength="81" x="1022" y="277.1606">channelFilter</text><line style="stroke:#181818;stroke-width:1.0;" x1="1015" x2="1057" y1="324.3594" y2="324.3594"/><line style="stroke:#181818;stroke-width:1.0;" x1="1057" x2="1057" y1="324.3594" y2="337.3594"/><line style="stroke:#181818;stroke-width:1.0;" x1="1016" x2="1057" y1="337.3594" y2="337.3594"/><polygon fill="#181818" points="1026,333.3594,1016,337.3594,1026,341.3594,1022,337.3594" style="stroke:#181818;stroke-width:1.0;"/><text fill="#000000" font-family="sans-serif" font-size="13" lengthAdjust="spacing" textLength="92" x="1022" y="319.2935">wordCorrector</text><polygon fill="#181818" points="1176,362.4922,1186,366.4922,1176,370.4922,1180,366.4922" style="stroke:#181818;stroke-width:1.0;"/><line style="stroke:#181818;stroke-width:1.0;" x1="1015" x2="1182" y1="366.4922" y2="366.4922"/><text fill="#000000" font-family="sans-serif" font-size="13" lengthAdjust="spacing" textLength="68" x="1022" y="361.4263">IsExcluded</text><polygon fill="#181818" points="1026,391.625,1016,395.625,1026,399.625,1022,395.625" style="stroke:#181818;stroke-width:1.0;"/><line style="stroke:#181818;stroke-width:1.0;stroke-dasharray:2.0,2.0;" x1="1020" x2="1187" y1="395.625" y2="395.625"/><text fill="#000000" font-family="sans-serif" font-size="13" lengthAdjust="spacing" textLength="27" x="1032" y="390.5591">bool</text><path d="M922,410.625 L988,410.625 L988,417.7578 L978,427.7578 L922,427.7578 L922,410.625 " fill="#EEEEEE" style="stroke:#000000;stroke-width:1.5;"/><rect fill="none" height="90.2031" style="stroke:#000000;stroke-width:1.5;" width="458.5" x="922" y="410.625"/><text fill="#000000" font-family="sans-serif" font-size="13" font-weight="bold" lengthAdjust="spacing" textLength="21" x="937" y="423.6919">alt</text><text fill="#000000" font-family="sans-serif" font-size="11" font-weight="bold" lengthAdjust="spacing" textLength="54" x="1003" y="422.8354">[Is true]</text><polygon fill="#181818" points="1176,444.8906,1186,448.8906,1176,452.8906,1180,448.8906" style="stroke:#181818;stroke-width:1.0;"/><line style="stroke:#181818;stroke-width:1.0;" x1="1015" x2="1182" y1="448.8906" y2="448.8906"/><text fill="#000000" font-family="sans-serif" font-size="13" lengthAdjust="spacing" textLength="149" x="1022" y="443.8247">IncrementExcludeWord</text><line style="stroke:#000000;stroke-width:1.0;stroke-dasharray:2.0,2.0;" x1="922" x2="1380.5" y1="457.8906" y2="457.8906"/><text fill="#000000" font-family="sans-serif" font-size="11" font-weight="bold" lengthAdjust="spacing" textLength="59" x="927" y="468.1011">[Is False]</text><polygon fill="#181818" points="1301.5,488.8281,1311.5,492.8281,1301.5,496.8281,1305.5,492.8281" style="stroke:#181818;stroke-width:1.0;"/><line style="stroke:#181818;stroke-width:1.0;" x1="1015" x2="1307.5" y1="492.8281" y2="492.8281"/><text fill="#000000" font-family="sans-serif" font-size="13" lengthAdjust="spacing" textLength="59" x="1022" y="487.7622">AddWord</text><line style="stroke:#A80036;stroke-width:2.0;" x1="1001" x2="1019" y1="507.8281" y2="525.8281"/><line style="stroke:#A80036;stroke-width:2.0;" x1="1001" x2="1019" y1="525.8281" y2="507.8281"/><polygon fill="#181818" points="367.5,549.9609,377.5,553.9609,367.5,557.9609,371.5,553.9609" style="stroke:#181818;stroke-width:1.0;"/><line style="stroke:#181818;stroke-width:1.0;" x1="165.5" x2="373.5" y1="553.9609" y2="553.9609"/><text fill="#000000" font-family="sans-serif" font-size="13" lengthAdjust="spacing" textLength="94" x="172.5" y="548.895">async Execute</text><polygon fill="#181818" points="176.5,579.0938,166.5,583.0938,176.5,587.0938,172.5,583.0938" style="stroke:#181818;stroke-width:1.0;"/><line style="stroke:#181818;stroke-width:1.0;" x1="170.5" x2="378.5" y1="583.0938" y2="583.0938"/><text fill="#000000" font-family="sans-serif" font-size="13" lengthAdjust="spacing" textLength="30" x="182.5" y="578.0278">Task</text><path d="M279,598.0938 L357,598.0938 L357,605.2266 L347,615.2266 L279,615.2266 L279,598.0938 " fill="#EEEEEE" style="stroke:#000000;stroke-width:1.5;"/><rect fill="none" height="225.0625" style="stroke:#000000;stroke-width:1.5;" width="673" x="279" y="598.0938"/><text fill="#000000" font-family="sans-serif" font-size="13" font-weight="bold" lengthAdjust="spacing" textLength="33" x="294" y="611.1606">loop</text><text fill="#000000" font-family="sans-serif" font-size="11" font-weight="bold" lengthAdjust="spacing" textLength="177" x="372" y="610.3042">[Create task for each file]</text><path d="M289,622.2266 L367,622.2266 L367,629.3594 L357,639.3594 L289,639.3594 L289,622.2266 " fill="#EEEEEE" style="stroke:#000000;stroke-width:1.5;"/><rect fill="none" height="193.9297" style="stroke:#000000;stroke-width:1.5;" width="653" x="289" y="622.2266"/><text fill="#000000" font-family="sans-serif" font-size="13" font-weight="bold" lengthAdjust="spacing" textLength="33" x="304" y="635.2935">loop</text><text fill="#000000" font-family="sans-serif" font-size="11" font-weight="bold" lengthAdjust="spacing" textLength="103" x="382" y="634.437">[To end of file]</text><polygon fill="#181818" points="661,656.4922,671,660.4922,661,664.4922,665,660.4922" style="stroke:#181818;stroke-width:1.0;"/><line style="stroke:#181818;stroke-width:1.0;" x1="389.5" x2="667" y1="660.4922" y2="660.4922"/><text fill="#000000" font-family="sans-serif" font-size="13" lengthAdjust="spacing" textLength="120" x="396.5" y="655.4263">ReadAllLinesAsync</text><polygon fill="#181818" points="400.5,685.625,390.5,689.625,400.5,693.625,396.5,689.625" style="stroke:#181818;stroke-width:1.0;"/><line style="stroke:#181818;stroke-width:1.0;" x1="394.5" x2="672" y1="689.625" y2="689.625"/><text fill="#000000" font-family="sans-serif" font-size="13" lengthAdjust="spacing" textLength="62" x="406.5" y="684.5591">string line</text><polygon fill="#181818" points="770,714.7578,780,718.7578,770,722.7578,774,718.7578" style="stroke:#181818;stroke-width:1.0;"/><line style="stroke:#181818;stroke-width:1.0;" x1="389.5" x2="776" y1="718.7578" y2="718.7578"/><text fill="#000000" font-family="sans-serif" font-size="13" lengthAdjust="spacing" textLength="27" x="396.5" y="713.6919">Split</text><polygon fill="#181818" points="400.5,743.8906,390.5,747.8906,400.5,751.8906,396.5,747.8906" style="stroke:#181818;stroke-width:1.0;"/><line style="stroke:#181818;stroke-width:1.0;" x1="394.5" x2="781" y1="747.8906" y2="747.8906"/><text fill="#000000" font-family="sans-serif" font-size="13" lengthAdjust="spacing" textLength="179" x="406.5" y="742.8247">IEnumerable&lt;string&gt; words</text><path d="M299,762.8906 L377,762.8906 L377,770.0234 L367,780.0234 L299,780.0234 L299,762.8906 " fill="#EEEEEE" style="stroke:#000000;stroke-width:1.5;"/><rect fill="none" height="46.2656" style="stroke:#000000;stroke-width:1.5;" width="633" x="299" y="762.8906"/><text fill="#000000" font-family="sans-serif" font-size="13" font-weight="bold" lengthAdjust="spacing" textLength="33" x="314" y="775.9575">loop</text><text fill="#000000" font-family="sans-serif" font-size="11" font-weight="bold" lengthAdjust="spacing" textLength="156" x="392" y="775.1011">[For every word in Line]</text><polygon fill="#181818" points="871,797.1563,881,801.1563,871,805.1563,875,801.1563" style="stroke:#181818;stroke-width:1.0;"/><line style="stroke:#181818;stroke-width:1.0;" x1="389.5" x2="877" y1="801.1563" y2="801.1563"/><text fill="#000000" font-family="sans-serif" font-size="13" lengthAdjust="spacing" textLength="73" x="396.5" y="796.0903">WriteAsync</text><line style="stroke:#A80036;stroke-width:2.0;" x1="375.5" x2="393.5" y1="830.1563" y2="848.1563"/><line style="stroke:#A80036;stroke-width:2.0;" x1="375.5" x2="393.5" y1="848.1563" y2="830.1563"/><line style="stroke:#181818;stroke-width:1.0;" x1="165.5" x2="207.5" y1="869.2891" y2="869.2891"/><line style="stroke:#181818;stroke-width:1.0;" x1="207.5" x2="207.5" y1="869.2891" y2="882.2891"/><line style="stroke:#181818;stroke-width:1.0;" x1="166.5" x2="207.5" y1="882.2891" y2="882.2891"/><polygon fill="#181818" points="176.5,878.2891,166.5,882.2891,176.5,886.2891,172.5,882.2891" style="stroke:#181818;stroke-width:1.0;"/><text fill="#000000" font-family="sans-serif" font-size="13" lengthAdjust="spacing" textLength="195" x="172.5" y="864.2231">await FileReaderManager Task</text><polygon fill="#181818" points="871,907.4219,881,911.4219,871,915.4219,875,911.4219" style="stroke:#181818;stroke-width:1.0;"/><line style="stroke:#181818;stroke-width:1.0;" x1="165.5" x2="877" y1="911.4219" y2="911.4219"/><text fill="#000000" font-family="sans-serif" font-size="13" lengthAdjust="spacing" textLength="62" x="172.5" y="906.356">Complete</text><line style="stroke:#181818;stroke-width:1.0;" x1="165.5" x2="207.5" y1="940.5547" y2="940.5547"/><line style="stroke:#181818;stroke-width:1.0;" x1="207.5" x2="207.5" y1="940.5547" y2="953.5547"/><line style="stroke:#181818;stroke-width:1.0;" x1="166.5" x2="207.5" y1="953.5547" y2="953.5547"/><polygon fill="#181818" points="176.5,949.5547,166.5,953.5547,176.5,957.5547,172.5,953.5547" style="stroke:#181818;stroke-width:1.0;"/><text fill="#000000" font-family="sans-serif" font-size="13" lengthAdjust="spacing" textLength="200" x="172.5" y="935.4888">await WordCountManager Task</text><polygon fill="#181818" points="531,978.6875,541,982.6875,531,986.6875,535,982.6875" style="stroke:#181818;stroke-width:1.0;"/><line style="stroke:#181818;stroke-width:1.0;" x1="165.5" x2="537" y1="982.6875" y2="982.6875"/><text fill="#000000" font-family="sans-serif" font-size="13" lengthAdjust="spacing" textLength="134" x="172.5" y="977.6216">WriteWordCountFiles</text><polygon fill="#181818" points="1413,1007.8203,1423,1011.8203,1413,1015.8203,1417,1011.8203" style="stroke:#181818;stroke-width:1.0;"/><line style="stroke:#181818;stroke-width:1.0;" x1="543" x2="1419" y1="1011.8203" y2="1011.8203"/><text fill="#000000" font-family="sans-serif" font-size="13" lengthAdjust="spacing" textLength="94" x="550" y="1006.7544">WriteFileAsync</text><polygon fill="#181818" points="531,1036.9531,541,1040.9531,531,1044.9531,535,1040.9531" style="stroke:#181818;stroke-width:1.0;"/><line style="stroke:#181818;stroke-width:1.0;" x1="165.5" x2="537" y1="1040.9531" y2="1040.9531"/><text fill="#000000" font-family="sans-serif" font-size="13" lengthAdjust="spacing" textLength="139" x="172.5" y="1035.8872">WriteWordExcludeFile</text><polygon fill="#181818" points="1413,1066.0859,1423,1070.0859,1413,1074.0859,1417,1070.0859" style="stroke:#181818;stroke-width:1.0;"/><line style="stroke:#181818;stroke-width:1.0;" x1="543" x2="1419" y1="1070.0859" y2="1070.0859"/><text fill="#000000" font-family="sans-serif" font-size="13" lengthAdjust="spacing" textLength="94" x="550" y="1065.02">WriteFileAsync</text><!--SRC=[bLNRRkCW47tdA_Y1_41LLOgiH8hKlknMoZCramQLW0kuQVw-Cu1lc6orVeYScNCESsCisc0T7v_66cyryFKZF1U4PPrmGRMg4oQG_MYTR6nl0hvyxBMzpXad_5yIzah37n0It8imuXtSdE3cZXhpw5IeCgzpHyayJ8UkqqfdhYZFoi3VJgiG2X9IVBOpzjb3FojNSnR6WAxNhpspkzKhCufuSe2xtCc9kBllLlTo7I1aUvNK9DrrVCbUBLwg-pgdq-XZZCK1uPkds7V-m7VVqFO1oAw-H80q3onw4RNC3_72tqoxPXLrYFJ7pMRDVnN-Wp5jRSVHepHMFBN31spoXIlCKLiFal6IJE6SKOA6PAlrbY9Pe-Af14D1PTxv5QjProf3ov5WAQbKlrCUedPZdODuwsgCeSaeV_1v4cGzw1dqpLhD42LqG1eFhWT6pVotlcaTNC24VCmn9GxQ0udi1RxSKSaM5DbAEV2Cf10aO1tjhMnmz0v3ijW8TqTakJVoX9JSsNWqw49QG0i_uSo2mBRIB5DO4V5gAKfkJybCkItafjYcgQ6LuOVHAV5ZFDFuQCJNbOS5WzYuW-fwCzHXP_eBEF6cuJ6fFyK9yYnIOqfxIlGBt2rwk3ByUGYW51_lGxpRKqhKclGRcpGqS5d-iNTv3OYhKA6ozsC_ncL0fpNsqcd0nbOLLiioDNJ0Bhu0G-WZXuxtR8cX0wRTbXa4J0d_hfnl0r7-Krh2jDxEFm00]--></g></svg>