<?xml version="1.0" encoding="us-ascii" standalone="no"?><svg xmlns="http://www.w3.org/2000/svg" xmlns:xlink="http://www.w3.org/1999/xlink" contentStyleType="text/css" height="980px" preserveAspectRatio="none" style="width:1773px;height:980px;background:#FFFFFF;" version="1.1" viewBox="0 0 1773 980" width="1773px" zoomAndPan="magnify"><defs/><g><!--cluster DanskeBank--><g id="cluster_DanskeBank"><path d="M8.5,6 L107.5,6 A3.75,3.75 0 0 1 110,8.5 L117,28.2969 L1763.5,28.2969 A2.5,2.5 0 0 1 1766,30.7969 L1766,970.5 A2.5,2.5 0 0 1 1763.5,973 L8.5,973 A2.5,2.5 0 0 1 6,970.5 L6,8.5 A2.5,2.5 0 0 1 8.5,6 " fill="none" style="stroke:#000000;stroke-width:1.5;"/><line style="stroke:#000000;stroke-width:1.5;" x1="6" x2="117" y1="28.2969" y2="28.2969"/><text fill="#000000" font-family="sans-serif" font-size="14" font-weight="bold" lengthAdjust="spacing" textLength="98" x="10" y="20.9951">DanskeBank</text></g><!--cluster Guard--><g id="cluster_Guard"><path d="M32.5,742 L82.5,742 A3.75,3.75 0 0 1 85,744.5 L92,764.2969 L1208.5,764.2969 A2.5,2.5 0 0 1 1211,766.7969 L1211,946.5 A2.5,2.5 0 0 1 1208.5,949 L32.5,949 A2.5,2.5 0 0 1 30,946.5 L30,744.5 A2.5,2.5 0 0 1 32.5,742 " fill="none" style="stroke:#000000;stroke-width:1.5;"/><line style="stroke:#000000;stroke-width:1.5;" x1="30" x2="92" y1="764.2969" y2="764.2969"/><text fill="#000000" font-family="sans-serif" font-size="14" font-weight="bold" lengthAdjust="spacing" textLength="49" x="34" y="756.9951">Guard</text></g><!--cluster FileReader--><g id="cluster_FileReader"><path d="M395.5,511 L480.5,511 A3.75,3.75 0 0 1 483,513.5 L490,533.2969 L584.5,533.2969 A2.5,2.5 0 0 1 587,535.7969 L587,715.5 A2.5,2.5 0 0 1 584.5,718 L395.5,718 A2.5,2.5 0 0 1 393,715.5 L393,513.5 A2.5,2.5 0 0 1 395.5,511 " fill="none" style="stroke:#000000;stroke-width:1.5;"/><line style="stroke:#000000;stroke-width:1.5;" x1="393" x2="490" y1="533.2969" y2="533.2969"/><text fill="#000000" font-family="sans-serif" font-size="14" font-weight="bold" lengthAdjust="spacing" textLength="84" x="397" y="525.9951">FileReader</text></g><!--cluster FileWriter--><g id="cluster_FileWriter"><path d="M803.5,511 L883.5,511 A3.75,3.75 0 0 1 886,513.5 L893,533.2969 L986.5,533.2969 A2.5,2.5 0 0 1 989,535.7969 L989,715.5 A2.5,2.5 0 0 1 986.5,718 L803.5,718 A2.5,2.5 0 0 1 801,715.5 L801,513.5 A2.5,2.5 0 0 1 803.5,511 " fill="none" style="stroke:#000000;stroke-width:1.5;"/><line style="stroke:#000000;stroke-width:1.5;" x1="801" x2="893" y1="533.2969" y2="533.2969"/><text fill="#000000" font-family="sans-serif" font-size="14" font-weight="bold" lengthAdjust="spacing" textLength="79" x="805" y="525.9951">FileWriter</text></g><!--cluster LineSplitter--><g id="cluster_LineSplitter"><path d="M613.5,511 L709.5,511 A3.75,3.75 0 0 1 712,513.5 L719,533.2969 L758.5,533.2969 A2.5,2.5 0 0 1 761,535.7969 L761,715.5 A2.5,2.5 0 0 1 758.5,718 L613.5,718 A2.5,2.5 0 0 1 611,715.5 L611,513.5 A2.5,2.5 0 0 1 613.5,511 " fill="none" style="stroke:#000000;stroke-width:1.5;"/><line style="stroke:#000000;stroke-width:1.5;" x1="611" x2="719" y1="533.2969" y2="533.2969"/><text fill="#000000" font-family="sans-serif" font-size="14" font-weight="bold" lengthAdjust="spacing" textLength="95" x="615" y="525.9951">LineSplitter</text></g><!--cluster WordCounter--><g id="cluster_WordCounter"><path d="M1237.5,511 L1344.5,511 A3.75,3.75 0 0 1 1347,513.5 L1354,533.2969 L1739.5,533.2969 A2.5,2.5 0 0 1 1742,535.7969 L1742,838.5 A2.5,2.5 0 0 1 1739.5,841 L1237.5,841 A2.5,2.5 0 0 1 1235,838.5 L1235,513.5 A2.5,2.5 0 0 1 1237.5,511 " fill="none" style="stroke:#000000;stroke-width:1.5;"/><line style="stroke:#000000;stroke-width:1.5;" x1="1235" x2="1354" y1="533.2969" y2="533.2969"/><text fill="#000000" font-family="sans-serif" font-size="14" font-weight="bold" lengthAdjust="spacing" textLength="106" x="1239" y="525.9951">WordCounter</text></g><!--cluster WordExcluder--><g id="cluster_WordExcluder"><path d="M1015.5,511 L1126.5,511 A3.75,3.75 0 0 1 1129,513.5 L1136,533.2969 L1178.5,533.2969 A2.5,2.5 0 0 1 1181,535.7969 L1181,715.5 A2.5,2.5 0 0 1 1178.5,718 L1015.5,718 A2.5,2.5 0 0 1 1013,715.5 L1013,513.5 A2.5,2.5 0 0 1 1015.5,511 " fill="none" style="stroke:#000000;stroke-width:1.5;"/><line style="stroke:#000000;stroke-width:1.5;" x1="1013" x2="1136" y1="533.2969" y2="533.2969"/><text fill="#000000" font-family="sans-serif" font-size="14" font-weight="bold" lengthAdjust="spacing" textLength="110" x="1017" y="525.9951">WordExcluder</text></g><!--cluster FileReaderManager--><g id="cluster_FileReaderManager"><path d="M495.5,280 L650.5,280 A3.75,3.75 0 0 1 653,282.5 L660,302.2969 L698.5,302.2969 A2.5,2.5 0 0 1 701,304.7969 L701,484.5 A2.5,2.5 0 0 1 698.5,487 L495.5,487 A2.5,2.5 0 0 1 493,484.5 L493,282.5 A2.5,2.5 0 0 1 495.5,280 " fill="none" style="stroke:#000000;stroke-width:1.5;"/><line style="stroke:#000000;stroke-width:1.5;" x1="493" x2="660" y1="302.2969" y2="302.2969"/><text fill="#000000" font-family="sans-serif" font-size="14" font-weight="bold" lengthAdjust="spacing" textLength="154" x="497" y="294.9951">FileReaderManager</text></g><!--cluster FileWriterManager--><g id="cluster_FileWriterManager"><path d="M727.5,280 L877.5,280 A3.75,3.75 0 0 1 880,282.5 L887,302.2969 L922.5,302.2969 A2.5,2.5 0 0 1 925,304.7969 L925,484.5 A2.5,2.5 0 0 1 922.5,487 L727.5,487 A2.5,2.5 0 0 1 725,484.5 L725,282.5 A2.5,2.5 0 0 1 727.5,280 " fill="none" style="stroke:#000000;stroke-width:1.5;"/><line style="stroke:#000000;stroke-width:1.5;" x1="725" x2="887" y1="302.2969" y2="302.2969"/><text fill="#000000" font-family="sans-serif" font-size="14" font-weight="bold" lengthAdjust="spacing" textLength="149" x="729" y="294.9951">FileWriterManager</text></g><!--cluster WordCountManager--><g id="cluster_WordCountManager"><path d="M1044.5,280 L1205.5,280 A3.75,3.75 0 0 1 1208,282.5 L1215,302.2969 L1251.5,302.2969 A2.5,2.5 0 0 1 1254,304.7969 L1254,484.5 A2.5,2.5 0 0 1 1251.5,487 L1044.5,487 A2.5,2.5 0 0 1 1042,484.5 L1042,282.5 A2.5,2.5 0 0 1 1044.5,280 " fill="none" style="stroke:#000000;stroke-width:1.5;"/><line style="stroke:#000000;stroke-width:1.5;" x1="1042" x2="1215" y1="302.2969" y2="302.2969"/><text fill="#000000" font-family="sans-serif" font-size="14" font-weight="bold" lengthAdjust="spacing" textLength="160" x="1046" y="294.9951">WordCountManager</text></g><!--cluster WordCountWorkFlow--><g id="cluster_WordCountWorkFlow"><path d="M604.5,49 L773.5,49 A3.75,3.75 0 0 1 776,51.5 L783,71.2969 L817.5,71.2969 A2.5,2.5 0 0 1 820,73.7969 L820,253.5 A2.5,2.5 0 0 1 817.5,256 L604.5,256 A2.5,2.5 0 0 1 602,253.5 L602,51.5 A2.5,2.5 0 0 1 604.5,49 " fill="none" style="stroke:#000000;stroke-width:1.5;"/><line style="stroke:#000000;stroke-width:1.5;" x1="602" x2="783" y1="71.2969" y2="71.2969"/><text fill="#000000" font-family="sans-serif" font-size="14" font-weight="bold" lengthAdjust="spacing" textLength="168" x="606" y="63.9951">WordCountWorkFlow</text></g><!--class Guard--><g id="elem_Guard"><rect codeLine="2" fill="#F1F1F1" height="48" id="Guard" rx="2.5" ry="2.5" style="stroke:#181818;stroke-width:0.5;" width="74" x="46" y="885"/><ellipse cx="61" cy="901" fill="#ADD1B2" rx="11" ry="11" style="stroke:#181818;stroke-width:1.0;"/><path d="M63.3438,896.6719 C62.4063,896.2344 61.8125,896.0938 60.9375,896.0938 C58.3125,896.0938 56.3125,898.1719 56.3125,900.8906 L56.3125,902.0156 C56.3125,904.5938 58.4219,906.4844 61.3125,906.4844 C62.5313,906.4844 63.6875,906.1875 64.4375,905.6406 C65.0156,905.2344 65.3438,904.7813 65.3438,904.3906 C65.3438,903.9375 64.9531,903.5469 64.4844,903.5469 C64.2656,903.5469 64.0625,903.625 63.875,903.8125 C63.4219,904.2969 63.4219,904.2969 63.2344,904.3906 C62.8125,904.6563 62.125,904.7813 61.3594,904.7813 C59.3125,904.7813 58.0156,903.6875 58.0156,901.9844 L58.0156,900.8906 C58.0156,899.1094 59.2656,897.7969 61,897.7969 C61.5781,897.7969 62.1875,897.9531 62.6563,898.2031 C63.1406,898.4844 63.3125,898.7031 63.4063,899.1094 C63.4688,899.5156 63.5,899.6406 63.6406,899.7656 C63.7813,899.9063 64.0156,900.0156 64.2344,900.0156 C64.5,900.0156 64.7656,899.875 64.9375,899.6563 C65.0469,899.5 65.0781,899.3125 65.0781,898.8906 L65.0781,897.4688 C65.0781,897.0313 65.0625,896.9063 64.9688,896.75 C64.8125,896.4844 64.5313,896.3438 64.2344,896.3438 C63.9375,896.3438 63.7344,896.4375 63.5156,896.75 L63.3438,896.6719 Z " fill="#000000"/><text fill="#000000" font-family="sans-serif" font-size="14" lengthAdjust="spacing" textLength="42" x="75" y="905.8467">Guard</text><line style="stroke:#181818;stroke-width:0.5;" x1="47" x2="119" y1="917" y2="917"/><line style="stroke:#181818;stroke-width:0.5;" x1="47" x2="119" y1="925" y2="925"/></g><!--class IGuard--><g id="elem_IGuard"><rect codeLine="5" fill="#F1F1F1" height="48" id="IGuard" rx="2.5" ry="2.5" style="stroke:#181818;stroke-width:0.5;" width="80" x="714" y="777"/><ellipse cx="729" cy="793" fill="#B4A7E5" rx="11" ry="11" style="stroke:#181818;stroke-width:1.0;"/><path d="M729.9531,789.7813 L731.6719,789.7813 C732.0625,789.7813 732.25,789.75 732.375,789.6719 C732.6406,789.5156 732.7813,789.2344 732.7813,788.9375 C732.7813,788.6719 732.6719,788.4063 732.4375,788.2344 C732.2656,788.125 732.125,788.0938 731.6719,788.0938 L726.5313,788.0938 C726.0938,788.0938 725.9688,788.1094 725.8125,788.2031 C725.5625,788.3594 725.4063,788.6563 725.4063,788.9375 C725.4063,789.2188 725.5469,789.4688 725.7656,789.6406 C725.9219,789.75 726.1094,789.7813 726.5313,789.7813 L728.25,789.7813 L728.25,796.2969 L726.5313,796.2969 C726.0938,796.2969 725.9688,796.3125 725.8125,796.4219 C725.5625,796.5781 725.4063,796.8594 725.4063,797.1563 C725.4063,797.4063 725.5469,797.6719 725.7656,797.8281 C725.9219,797.9531 726.125,798 726.5313,798 L731.6719,798 C732.4219,798 732.7813,797.7188 732.7813,797.1563 C732.7813,796.875 732.6719,796.625 732.4375,796.4531 C732.2656,796.3281 732.125,796.2969 731.6719,796.2969 L729.9531,796.2969 L729.9531,789.7813 Z " fill="#000000"/><text fill="#000000" font-family="sans-serif" font-size="14" font-style="italic" lengthAdjust="spacing" textLength="48" x="743" y="797.8467">IGuard</text><line style="stroke:#181818;stroke-width:0.5;" x1="715" x2="793" y1="809" y2="809"/><line style="stroke:#181818;stroke-width:0.5;" x1="715" x2="793" y1="817" y2="817"/></g><!--class GuardAgainstEmptyAndWhiteSpaceExtension--><g id="elem_GuardAgainstEmptyAndWhiteSpaceExtension"><rect codeLine="8" fill="#F1F1F1" height="48" id="GuardAgainstEmptyAndWhiteSpaceExtension" rx="2.5" ry="2.5" style="stroke:#181818;stroke-width:0.5;" width="362" x="155" y="885"/><ellipse cx="170" cy="901" fill="#ADD1B2" rx="11" ry="11" style="stroke:#181818;stroke-width:1.0;"/><path d="M172.3438,896.6719 C171.4063,896.2344 170.8125,896.0938 169.9375,896.0938 C167.3125,896.0938 165.3125,898.1719 165.3125,900.8906 L165.3125,902.0156 C165.3125,904.5938 167.4219,906.4844 170.3125,906.4844 C171.5313,906.4844 172.6875,906.1875 173.4375,905.6406 C174.0156,905.2344 174.3438,904.7813 174.3438,904.3906 C174.3438,903.9375 173.9531,903.5469 173.4844,903.5469 C173.2656,903.5469 173.0625,903.625 172.875,903.8125 C172.4219,904.2969 172.4219,904.2969 172.2344,904.3906 C171.8125,904.6563 171.125,904.7813 170.3594,904.7813 C168.3125,904.7813 167.0156,903.6875 167.0156,901.9844 L167.0156,900.8906 C167.0156,899.1094 168.2656,897.7969 170,897.7969 C170.5781,897.7969 171.1875,897.9531 171.6563,898.2031 C172.1406,898.4844 172.3125,898.7031 172.4063,899.1094 C172.4688,899.5156 172.5,899.6406 172.6406,899.7656 C172.7813,899.9063 173.0156,900.0156 173.2344,900.0156 C173.5,900.0156 173.7656,899.875 173.9375,899.6563 C174.0469,899.5 174.0781,899.3125 174.0781,898.8906 L174.0781,897.4688 C174.0781,897.0313 174.0625,896.9063 173.9688,896.75 C173.8125,896.4844 173.5313,896.3438 173.2344,896.3438 C172.9375,896.3438 172.7344,896.4375 172.5156,896.75 L172.3438,896.6719 Z " fill="#000000"/><text fill="#000000" font-family="sans-serif" font-size="14" lengthAdjust="spacing" textLength="330" x="184" y="905.8467">GuardAgainstEmptyAndWhiteSpaceExtension</text><line style="stroke:#181818;stroke-width:0.5;" x1="156" x2="516" y1="917" y2="917"/><line style="stroke:#181818;stroke-width:0.5;" x1="156" x2="516" y1="925" y2="925"/></g><!--class GuardAgainstFileSystemInfoNotFoundExtension--><g id="elem_GuardAgainstFileSystemInfoNotFoundExtension"><rect codeLine="11" fill="#F1F1F1" height="48" id="GuardAgainstFileSystemInfoNotFoundExtension" rx="2.5" ry="2.5" style="stroke:#181818;stroke-width:0.5;" width="375" x="552.5" y="885"/><ellipse cx="567.5" cy="901" fill="#ADD1B2" rx="11" ry="11" style="stroke:#181818;stroke-width:1.0;"/><path d="M569.8438,896.6719 C568.9063,896.2344 568.3125,896.0938 567.4375,896.0938 C564.8125,896.0938 562.8125,898.1719 562.8125,900.8906 L562.8125,902.0156 C562.8125,904.5938 564.9219,906.4844 567.8125,906.4844 C569.0313,906.4844 570.1875,906.1875 570.9375,905.6406 C571.5156,905.2344 571.8438,904.7813 571.8438,904.3906 C571.8438,903.9375 571.4531,903.5469 570.9844,903.5469 C570.7656,903.5469 570.5625,903.625 570.375,903.8125 C569.9219,904.2969 569.9219,904.2969 569.7344,904.3906 C569.3125,904.6563 568.625,904.7813 567.8594,904.7813 C565.8125,904.7813 564.5156,903.6875 564.5156,901.9844 L564.5156,900.8906 C564.5156,899.1094 565.7656,897.7969 567.5,897.7969 C568.0781,897.7969 568.6875,897.9531 569.1563,898.2031 C569.6406,898.4844 569.8125,898.7031 569.9063,899.1094 C569.9688,899.5156 570,899.6406 570.1406,899.7656 C570.2813,899.9063 570.5156,900.0156 570.7344,900.0156 C571,900.0156 571.2656,899.875 571.4375,899.6563 C571.5469,899.5 571.5781,899.3125 571.5781,898.8906 L571.5781,897.4688 C571.5781,897.0313 571.5625,896.9063 571.4688,896.75 C571.3125,896.4844 571.0313,896.3438 570.7344,896.3438 C570.4375,896.3438 570.2344,896.4375 570.0156,896.75 L569.8438,896.6719 Z " fill="#000000"/><text fill="#000000" font-family="sans-serif" font-size="14" lengthAdjust="spacing" textLength="343" x="581.5" y="905.8467">GuardAgainstFileSystemInfoNotFoundExtension</text><line style="stroke:#181818;stroke-width:0.5;" x1="553.5" x2="926.5" y1="917" y2="917"/><line style="stroke:#181818;stroke-width:0.5;" x1="553.5" x2="926.5" y1="925" y2="925"/></g><!--class GuardAgainstNullExtensions--><g id="elem_GuardAgainstNullExtensions"><rect codeLine="14" fill="#F1F1F1" height="48" id="GuardAgainstNullExtensions" rx="2.5" ry="2.5" style="stroke:#181818;stroke-width:0.5;" width="232" x="963" y="885"/><ellipse cx="978" cy="901" fill="#ADD1B2" rx="11" ry="11" style="stroke:#181818;stroke-width:1.0;"/><path d="M980.3438,896.6719 C979.4063,896.2344 978.8125,896.0938 977.9375,896.0938 C975.3125,896.0938 973.3125,898.1719 973.3125,900.8906 L973.3125,902.0156 C973.3125,904.5938 975.4219,906.4844 978.3125,906.4844 C979.5313,906.4844 980.6875,906.1875 981.4375,905.6406 C982.0156,905.2344 982.3438,904.7813 982.3438,904.3906 C982.3438,903.9375 981.9531,903.5469 981.4844,903.5469 C981.2656,903.5469 981.0625,903.625 980.875,903.8125 C980.4219,904.2969 980.4219,904.2969 980.2344,904.3906 C979.8125,904.6563 979.125,904.7813 978.3594,904.7813 C976.3125,904.7813 975.0156,903.6875 975.0156,901.9844 L975.0156,900.8906 C975.0156,899.1094 976.2656,897.7969 978,897.7969 C978.5781,897.7969 979.1875,897.9531 979.6563,898.2031 C980.1406,898.4844 980.3125,898.7031 980.4063,899.1094 C980.4688,899.5156 980.5,899.6406 980.6406,899.7656 C980.7813,899.9063 981.0156,900.0156 981.2344,900.0156 C981.5,900.0156 981.7656,899.875 981.9375,899.6563 C982.0469,899.5 982.0781,899.3125 982.0781,898.8906 L982.0781,897.4688 C982.0781,897.0313 982.0625,896.9063 981.9688,896.75 C981.8125,896.4844 981.5313,896.3438 981.2344,896.3438 C980.9375,896.3438 980.7344,896.4375 980.5156,896.75 L980.3438,896.6719 Z " fill="#000000"/><text fill="#000000" font-family="sans-serif" font-size="14" lengthAdjust="spacing" textLength="200" x="992" y="905.8467">GuardAgainstNullExtensions</text><line style="stroke:#181818;stroke-width:0.5;" x1="964" x2="1194" y1="917" y2="917"/><line style="stroke:#181818;stroke-width:0.5;" x1="964" x2="1194" y1="925" y2="925"/></g><!--class IFileReader--><g id="elem_IFileReader"><rect codeLine="25" fill="#F1F1F1" height="48" id="IFileReader" rx="2.5" ry="2.5" style="stroke:#181818;stroke-width:0.5;" width="113" x="445.5" y="546"/><ellipse cx="460.5" cy="562" fill="#B4A7E5" rx="11" ry="11" style="stroke:#181818;stroke-width:1.0;"/><path d="M461.4531,558.7813 L463.1719,558.7813 C463.5625,558.7813 463.75,558.75 463.875,558.6719 C464.1406,558.5156 464.2813,558.2344 464.2813,557.9375 C464.2813,557.6719 464.1719,557.4063 463.9375,557.2344 C463.7656,557.125 463.625,557.0938 463.1719,557.0938 L458.0313,557.0938 C457.5938,557.0938 457.4688,557.1094 457.3125,557.2031 C457.0625,557.3594 456.9063,557.6563 456.9063,557.9375 C456.9063,558.2188 457.0469,558.4688 457.2656,558.6406 C457.4219,558.75 457.6094,558.7813 458.0313,558.7813 L459.75,558.7813 L459.75,565.2969 L458.0313,565.2969 C457.5938,565.2969 457.4688,565.3125 457.3125,565.4219 C457.0625,565.5781 456.9063,565.8594 456.9063,566.1563 C456.9063,566.4063 457.0469,566.6719 457.2656,566.8281 C457.4219,566.9531 457.625,567 458.0313,567 L463.1719,567 C463.9219,567 464.2813,566.7188 464.2813,566.1563 C464.2813,565.875 464.1719,565.625 463.9375,565.4531 C463.7656,565.3281 463.625,565.2969 463.1719,565.2969 L461.4531,565.2969 L461.4531,558.7813 Z " fill="#000000"/><text fill="#000000" font-family="sans-serif" font-size="14" font-style="italic" lengthAdjust="spacing" textLength="81" x="474.5" y="566.8467">IFileReader</text><line style="stroke:#181818;stroke-width:0.5;" x1="446.5" x2="557.5" y1="578" y2="578"/><line style="stroke:#181818;stroke-width:0.5;" x1="446.5" x2="557.5" y1="586" y2="586"/></g><!--class StreamFileReader--><g id="elem_StreamFileReader"><rect codeLine="28" fill="#F1F1F1" height="48" id="StreamFileReader" rx="2.5" ry="2.5" style="stroke:#181818;stroke-width:0.5;" width="161" x="409.5" y="654"/><ellipse cx="424.5" cy="670" fill="#ADD1B2" rx="11" ry="11" style="stroke:#181818;stroke-width:1.0;"/><path d="M426.8438,665.6719 C425.9063,665.2344 425.3125,665.0938 424.4375,665.0938 C421.8125,665.0938 419.8125,667.1719 419.8125,669.8906 L419.8125,671.0156 C419.8125,673.5938 421.9219,675.4844 424.8125,675.4844 C426.0313,675.4844 427.1875,675.1875 427.9375,674.6406 C428.5156,674.2344 428.8438,673.7813 428.8438,673.3906 C428.8438,672.9375 428.4531,672.5469 427.9844,672.5469 C427.7656,672.5469 427.5625,672.625 427.375,672.8125 C426.9219,673.2969 426.9219,673.2969 426.7344,673.3906 C426.3125,673.6563 425.625,673.7813 424.8594,673.7813 C422.8125,673.7813 421.5156,672.6875 421.5156,670.9844 L421.5156,669.8906 C421.5156,668.1094 422.7656,666.7969 424.5,666.7969 C425.0781,666.7969 425.6875,666.9531 426.1563,667.2031 C426.6406,667.4844 426.8125,667.7031 426.9063,668.1094 C426.9688,668.5156 427,668.6406 427.1406,668.7656 C427.2813,668.9063 427.5156,669.0156 427.7344,669.0156 C428,669.0156 428.2656,668.875 428.4375,668.6563 C428.5469,668.5 428.5781,668.3125 428.5781,667.8906 L428.5781,666.4688 C428.5781,666.0313 428.5625,665.9063 428.4688,665.75 C428.3125,665.4844 428.0313,665.3438 427.7344,665.3438 C427.4375,665.3438 427.2344,665.4375 427.0156,665.75 L426.8438,665.6719 Z " fill="#000000"/><text fill="#000000" font-family="sans-serif" font-size="14" lengthAdjust="spacing" textLength="129" x="438.5" y="674.8467">StreamFileReader</text><line style="stroke:#181818;stroke-width:0.5;" x1="410.5" x2="569.5" y1="686" y2="686"/><line style="stroke:#181818;stroke-width:0.5;" x1="410.5" x2="569.5" y1="694" y2="694"/></g><!--class IFileWriter--><g id="elem_IFileWriter"><rect codeLine="36" fill="#F1F1F1" height="48" id="IFileWriter" rx="2.5" ry="2.5" style="stroke:#181818;stroke-width:0.5;" width="105" x="829.5" y="546"/><ellipse cx="844.5" cy="562" fill="#B4A7E5" rx="11" ry="11" style="stroke:#181818;stroke-width:1.0;"/><path d="M845.4531,558.7813 L847.1719,558.7813 C847.5625,558.7813 847.75,558.75 847.875,558.6719 C848.1406,558.5156 848.2813,558.2344 848.2813,557.9375 C848.2813,557.6719 848.1719,557.4063 847.9375,557.2344 C847.7656,557.125 847.625,557.0938 847.1719,557.0938 L842.0313,557.0938 C841.5938,557.0938 841.4688,557.1094 841.3125,557.2031 C841.0625,557.3594 840.9063,557.6563 840.9063,557.9375 C840.9063,558.2188 841.0469,558.4688 841.2656,558.6406 C841.4219,558.75 841.6094,558.7813 842.0313,558.7813 L843.75,558.7813 L843.75,565.2969 L842.0313,565.2969 C841.5938,565.2969 841.4688,565.3125 841.3125,565.4219 C841.0625,565.5781 840.9063,565.8594 840.9063,566.1563 C840.9063,566.4063 841.0469,566.6719 841.2656,566.8281 C841.4219,566.9531 841.625,567 842.0313,567 L847.1719,567 C847.9219,567 848.2813,566.7188 848.2813,566.1563 C848.2813,565.875 848.1719,565.625 847.9375,565.4531 C847.7656,565.3281 847.625,565.2969 847.1719,565.2969 L845.4531,565.2969 L845.4531,558.7813 Z " fill="#000000"/><text fill="#000000" font-family="sans-serif" font-size="14" font-style="italic" lengthAdjust="spacing" textLength="73" x="858.5" y="566.8467">IFileWriter</text><line style="stroke:#181818;stroke-width:0.5;" x1="830.5" x2="933.5" y1="578" y2="578"/><line style="stroke:#181818;stroke-width:0.5;" x1="830.5" x2="933.5" y1="586" y2="586"/></g><!--class StreamFileWriter--><g id="elem_StreamFileWriter"><rect codeLine="39" fill="#F1F1F1" height="48" id="StreamFileWriter" rx="2.5" ry="2.5" style="stroke:#181818;stroke-width:0.5;" width="156" x="817" y="654"/><ellipse cx="832" cy="670" fill="#ADD1B2" rx="11" ry="11" style="stroke:#181818;stroke-width:1.0;"/><path d="M834.3438,665.6719 C833.4063,665.2344 832.8125,665.0938 831.9375,665.0938 C829.3125,665.0938 827.3125,667.1719 827.3125,669.8906 L827.3125,671.0156 C827.3125,673.5938 829.4219,675.4844 832.3125,675.4844 C833.5313,675.4844 834.6875,675.1875 835.4375,674.6406 C836.0156,674.2344 836.3438,673.7813 836.3438,673.3906 C836.3438,672.9375 835.9531,672.5469 835.4844,672.5469 C835.2656,672.5469 835.0625,672.625 834.875,672.8125 C834.4219,673.2969 834.4219,673.2969 834.2344,673.3906 C833.8125,673.6563 833.125,673.7813 832.3594,673.7813 C830.3125,673.7813 829.0156,672.6875 829.0156,670.9844 L829.0156,669.8906 C829.0156,668.1094 830.2656,666.7969 832,666.7969 C832.5781,666.7969 833.1875,666.9531 833.6563,667.2031 C834.1406,667.4844 834.3125,667.7031 834.4063,668.1094 C834.4688,668.5156 834.5,668.6406 834.6406,668.7656 C834.7813,668.9063 835.0156,669.0156 835.2344,669.0156 C835.5,669.0156 835.7656,668.875 835.9375,668.6563 C836.0469,668.5 836.0781,668.3125 836.0781,667.8906 L836.0781,666.4688 C836.0781,666.0313 836.0625,665.9063 835.9688,665.75 C835.8125,665.4844 835.5313,665.3438 835.2344,665.3438 C834.9375,665.3438 834.7344,665.4375 834.5156,665.75 L834.3438,665.6719 Z " fill="#000000"/><text fill="#000000" font-family="sans-serif" font-size="14" lengthAdjust="spacing" textLength="124" x="846" y="674.8467">StreamFileWriter</text><line style="stroke:#181818;stroke-width:0.5;" x1="818" x2="972" y1="686" y2="686"/><line style="stroke:#181818;stroke-width:0.5;" x1="818" x2="972" y1="694" y2="694"/></g><!--class ILineSplitter--><g id="elem_ILineSplitter"><rect codeLine="47" fill="#F1F1F1" height="48" id="ILineSplitter" rx="2.5" ry="2.5" style="stroke:#181818;stroke-width:0.5;" width="117" x="627.5" y="546"/><ellipse cx="642.5" cy="562" fill="#B4A7E5" rx="11" ry="11" style="stroke:#181818;stroke-width:1.0;"/><path d="M643.4531,558.7813 L645.1719,558.7813 C645.5625,558.7813 645.75,558.75 645.875,558.6719 C646.1406,558.5156 646.2813,558.2344 646.2813,557.9375 C646.2813,557.6719 646.1719,557.4063 645.9375,557.2344 C645.7656,557.125 645.625,557.0938 645.1719,557.0938 L640.0313,557.0938 C639.5938,557.0938 639.4688,557.1094 639.3125,557.2031 C639.0625,557.3594 638.9063,557.6563 638.9063,557.9375 C638.9063,558.2188 639.0469,558.4688 639.2656,558.6406 C639.4219,558.75 639.6094,558.7813 640.0313,558.7813 L641.75,558.7813 L641.75,565.2969 L640.0313,565.2969 C639.5938,565.2969 639.4688,565.3125 639.3125,565.4219 C639.0625,565.5781 638.9063,565.8594 638.9063,566.1563 C638.9063,566.4063 639.0469,566.6719 639.2656,566.8281 C639.4219,566.9531 639.625,567 640.0313,567 L645.1719,567 C645.9219,567 646.2813,566.7188 646.2813,566.1563 C646.2813,565.875 646.1719,565.625 645.9375,565.4531 C645.7656,565.3281 645.625,565.2969 645.1719,565.2969 L643.4531,565.2969 L643.4531,558.7813 Z " fill="#000000"/><text fill="#000000" font-family="sans-serif" font-size="14" font-style="italic" lengthAdjust="spacing" textLength="85" x="656.5" y="566.8467">ILineSplitter</text><line style="stroke:#181818;stroke-width:0.5;" x1="628.5" x2="743.5" y1="578" y2="578"/><line style="stroke:#181818;stroke-width:0.5;" x1="628.5" x2="743.5" y1="586" y2="586"/></g><!--class LineSplitter--><g id="elem_LineSplitter"><rect codeLine="50" fill="#F1F1F1" height="48" id="LineSplitter" rx="2.5" ry="2.5" style="stroke:#181818;stroke-width:0.5;" width="118" x="627" y="654"/><ellipse cx="642" cy="670" fill="#ADD1B2" rx="11" ry="11" style="stroke:#181818;stroke-width:1.0;"/><path d="M644.3438,665.6719 C643.4063,665.2344 642.8125,665.0938 641.9375,665.0938 C639.3125,665.0938 637.3125,667.1719 637.3125,669.8906 L637.3125,671.0156 C637.3125,673.5938 639.4219,675.4844 642.3125,675.4844 C643.5313,675.4844 644.6875,675.1875 645.4375,674.6406 C646.0156,674.2344 646.3438,673.7813 646.3438,673.3906 C646.3438,672.9375 645.9531,672.5469 645.4844,672.5469 C645.2656,672.5469 645.0625,672.625 644.875,672.8125 C644.4219,673.2969 644.4219,673.2969 644.2344,673.3906 C643.8125,673.6563 643.125,673.7813 642.3594,673.7813 C640.3125,673.7813 639.0156,672.6875 639.0156,670.9844 L639.0156,669.8906 C639.0156,668.1094 640.2656,666.7969 642,666.7969 C642.5781,666.7969 643.1875,666.9531 643.6563,667.2031 C644.1406,667.4844 644.3125,667.7031 644.4063,668.1094 C644.4688,668.5156 644.5,668.6406 644.6406,668.7656 C644.7813,668.9063 645.0156,669.0156 645.2344,669.0156 C645.5,669.0156 645.7656,668.875 645.9375,668.6563 C646.0469,668.5 646.0781,668.3125 646.0781,667.8906 L646.0781,666.4688 C646.0781,666.0313 646.0625,665.9063 645.9688,665.75 C645.8125,665.4844 645.5313,665.3438 645.2344,665.3438 C644.9375,665.3438 644.7344,665.4375 644.5156,665.75 L644.3438,665.6719 Z " fill="#000000"/><text fill="#000000" font-family="sans-serif" font-size="14" lengthAdjust="spacing" textLength="86" x="656" y="674.8467">LineSplitter</text><line style="stroke:#181818;stroke-width:0.5;" x1="628" x2="744" y1="686" y2="686"/><line style="stroke:#181818;stroke-width:0.5;" x1="628" x2="744" y1="694" y2="694"/></g><!--class IWordCounter--><g id="elem_IWordCounter"><rect codeLine="59" fill="#F1F1F1" height="48" id="IWordCounter" rx="2.5" ry="2.5" style="stroke:#181818;stroke-width:0.5;" width="131" x="1327.5" y="546"/><ellipse cx="1342.5" cy="562" fill="#B4A7E5" rx="11" ry="11" style="stroke:#181818;stroke-width:1.0;"/><path d="M1343.4531,558.7813 L1345.1719,558.7813 C1345.5625,558.7813 1345.75,558.75 1345.875,558.6719 C1346.1406,558.5156 1346.2813,558.2344 1346.2813,557.9375 C1346.2813,557.6719 1346.1719,557.4063 1345.9375,557.2344 C1345.7656,557.125 1345.625,557.0938 1345.1719,557.0938 L1340.0313,557.0938 C1339.5938,557.0938 1339.4688,557.1094 1339.3125,557.2031 C1339.0625,557.3594 1338.9063,557.6563 1338.9063,557.9375 C1338.9063,558.2188 1339.0469,558.4688 1339.2656,558.6406 C1339.4219,558.75 1339.6094,558.7813 1340.0313,558.7813 L1341.75,558.7813 L1341.75,565.2969 L1340.0313,565.2969 C1339.5938,565.2969 1339.4688,565.3125 1339.3125,565.4219 C1339.0625,565.5781 1338.9063,565.8594 1338.9063,566.1563 C1338.9063,566.4063 1339.0469,566.6719 1339.2656,566.8281 C1339.4219,566.9531 1339.625,567 1340.0313,567 L1345.1719,567 C1345.9219,567 1346.2813,566.7188 1346.2813,566.1563 C1346.2813,565.875 1346.1719,565.625 1345.9375,565.4531 C1345.7656,565.3281 1345.625,565.2969 1345.1719,565.2969 L1343.4531,565.2969 L1343.4531,558.7813 Z " fill="#000000"/><text fill="#000000" font-family="sans-serif" font-size="14" font-style="italic" lengthAdjust="spacing" textLength="99" x="1356.5" y="566.8467">IWordCounter</text><line style="stroke:#181818;stroke-width:0.5;" x1="1328.5" x2="1457.5" y1="578" y2="578"/><line style="stroke:#181818;stroke-width:0.5;" x1="1328.5" x2="1457.5" y1="586" y2="586"/></g><!--class ConcurrentDictionaryWordCounter--><g id="elem_ConcurrentDictionaryWordCounter"><rect codeLine="62" fill="#F1F1F1" height="48" id="ConcurrentDictionaryWordCounter" rx="2.5" ry="2.5" style="stroke:#181818;stroke-width:0.5;" width="283" x="1251.5" y="654"/><ellipse cx="1266.5" cy="670" fill="#ADD1B2" rx="11" ry="11" style="stroke:#181818;stroke-width:1.0;"/><path d="M1268.8438,665.6719 C1267.9063,665.2344 1267.3125,665.0938 1266.4375,665.0938 C1263.8125,665.0938 1261.8125,667.1719 1261.8125,669.8906 L1261.8125,671.0156 C1261.8125,673.5938 1263.9219,675.4844 1266.8125,675.4844 C1268.0313,675.4844 1269.1875,675.1875 1269.9375,674.6406 C1270.5156,674.2344 1270.8438,673.7813 1270.8438,673.3906 C1270.8438,672.9375 1270.4531,672.5469 1269.9844,672.5469 C1269.7656,672.5469 1269.5625,672.625 1269.375,672.8125 C1268.9219,673.2969 1268.9219,673.2969 1268.7344,673.3906 C1268.3125,673.6563 1267.625,673.7813 1266.8594,673.7813 C1264.8125,673.7813 1263.5156,672.6875 1263.5156,670.9844 L1263.5156,669.8906 C1263.5156,668.1094 1264.7656,666.7969 1266.5,666.7969 C1267.0781,666.7969 1267.6875,666.9531 1268.1563,667.2031 C1268.6406,667.4844 1268.8125,667.7031 1268.9063,668.1094 C1268.9688,668.5156 1269,668.6406 1269.1406,668.7656 C1269.2813,668.9063 1269.5156,669.0156 1269.7344,669.0156 C1270,669.0156 1270.2656,668.875 1270.4375,668.6563 C1270.5469,668.5 1270.5781,668.3125 1270.5781,667.8906 L1270.5781,666.4688 C1270.5781,666.0313 1270.5625,665.9063 1270.4688,665.75 C1270.3125,665.4844 1270.0313,665.3438 1269.7344,665.3438 C1269.4375,665.3438 1269.2344,665.4375 1269.0156,665.75 L1268.8438,665.6719 Z " fill="#000000"/><text fill="#000000" font-family="sans-serif" font-size="14" lengthAdjust="spacing" textLength="251" x="1280.5" y="674.8467">ConcurrentDictionaryWordCounter</text><line style="stroke:#181818;stroke-width:0.5;" x1="1252.5" x2="1533.5" y1="686" y2="686"/><line style="stroke:#181818;stroke-width:0.5;" x1="1252.5" x2="1533.5" y1="694" y2="694"/></g><!--class TrieWordCounter--><g id="elem_TrieWordCounter"><rect codeLine="65" fill="#F1F1F1" height="48" id="TrieWordCounter" rx="2.5" ry="2.5" style="stroke:#181818;stroke-width:0.5;" width="156" x="1570" y="654"/><ellipse cx="1585" cy="670" fill="#ADD1B2" rx="11" ry="11" style="stroke:#181818;stroke-width:1.0;"/><path d="M1587.3438,665.6719 C1586.4063,665.2344 1585.8125,665.0938 1584.9375,665.0938 C1582.3125,665.0938 1580.3125,667.1719 1580.3125,669.8906 L1580.3125,671.0156 C1580.3125,673.5938 1582.4219,675.4844 1585.3125,675.4844 C1586.5313,675.4844 1587.6875,675.1875 1588.4375,674.6406 C1589.0156,674.2344 1589.3438,673.7813 1589.3438,673.3906 C1589.3438,672.9375 1588.9531,672.5469 1588.4844,672.5469 C1588.2656,672.5469 1588.0625,672.625 1587.875,672.8125 C1587.4219,673.2969 1587.4219,673.2969 1587.2344,673.3906 C1586.8125,673.6563 1586.125,673.7813 1585.3594,673.7813 C1583.3125,673.7813 1582.0156,672.6875 1582.0156,670.9844 L1582.0156,669.8906 C1582.0156,668.1094 1583.2656,666.7969 1585,666.7969 C1585.5781,666.7969 1586.1875,666.9531 1586.6563,667.2031 C1587.1406,667.4844 1587.3125,667.7031 1587.4063,668.1094 C1587.4688,668.5156 1587.5,668.6406 1587.6406,668.7656 C1587.7813,668.9063 1588.0156,669.0156 1588.2344,669.0156 C1588.5,669.0156 1588.7656,668.875 1588.9375,668.6563 C1589.0469,668.5 1589.0781,668.3125 1589.0781,667.8906 L1589.0781,666.4688 C1589.0781,666.0313 1589.0625,665.9063 1588.9688,665.75 C1588.8125,665.4844 1588.5313,665.3438 1588.2344,665.3438 C1587.9375,665.3438 1587.7344,665.4375 1587.5156,665.75 L1587.3438,665.6719 Z " fill="#000000"/><text fill="#000000" font-family="sans-serif" font-size="14" lengthAdjust="spacing" textLength="124" x="1599" y="674.8467">TrieWordCounter</text><line style="stroke:#181818;stroke-width:0.5;" x1="1571" x2="1725" y1="686" y2="686"/><line style="stroke:#181818;stroke-width:0.5;" x1="1571" x2="1725" y1="694" y2="694"/></g><!--class TrieNode--><g id="elem_TrieNode"><rect codeLine="68" fill="#F1F1F1" height="48" id="TrieNode" rx="2.5" ry="2.5" style="stroke:#181818;stroke-width:0.5;" width="97" x="1599.5" y="777"/><ellipse cx="1614.5" cy="793" fill="#ADD1B2" rx="11" ry="11" style="stroke:#181818;stroke-width:1.0;"/><path d="M1616.8438,788.6719 C1615.9063,788.2344 1615.3125,788.0938 1614.4375,788.0938 C1611.8125,788.0938 1609.8125,790.1719 1609.8125,792.8906 L1609.8125,794.0156 C1609.8125,796.5938 1611.9219,798.4844 1614.8125,798.4844 C1616.0313,798.4844 1617.1875,798.1875 1617.9375,797.6406 C1618.5156,797.2344 1618.8438,796.7813 1618.8438,796.3906 C1618.8438,795.9375 1618.4531,795.5469 1617.9844,795.5469 C1617.7656,795.5469 1617.5625,795.625 1617.375,795.8125 C1616.9219,796.2969 1616.9219,796.2969 1616.7344,796.3906 C1616.3125,796.6563 1615.625,796.7813 1614.8594,796.7813 C1612.8125,796.7813 1611.5156,795.6875 1611.5156,793.9844 L1611.5156,792.8906 C1611.5156,791.1094 1612.7656,789.7969 1614.5,789.7969 C1615.0781,789.7969 1615.6875,789.9531 1616.1563,790.2031 C1616.6406,790.4844 1616.8125,790.7031 1616.9063,791.1094 C1616.9688,791.5156 1617,791.6406 1617.1406,791.7656 C1617.2813,791.9063 1617.5156,792.0156 1617.7344,792.0156 C1618,792.0156 1618.2656,791.875 1618.4375,791.6563 C1618.5469,791.5 1618.5781,791.3125 1618.5781,790.8906 L1618.5781,789.4688 C1618.5781,789.0313 1618.5625,788.9063 1618.4688,788.75 C1618.3125,788.4844 1618.0313,788.3438 1617.7344,788.3438 C1617.4375,788.3438 1617.2344,788.4375 1617.0156,788.75 L1616.8438,788.6719 Z " fill="#000000"/><text fill="#000000" font-family="sans-serif" font-size="14" lengthAdjust="spacing" textLength="65" x="1628.5" y="797.8467">TrieNode</text><line style="stroke:#181818;stroke-width:0.5;" x1="1600.5" x2="1695.5" y1="809" y2="809"/><line style="stroke:#181818;stroke-width:0.5;" x1="1600.5" x2="1695.5" y1="817" y2="817"/></g><!--class IWordExcluder--><g id="elem_IWordExcluder"><rect codeLine="80" fill="#F1F1F1" height="48" id="IWordExcluder" rx="2.5" ry="2.5" style="stroke:#181818;stroke-width:0.5;" width="136" x="1029" y="546"/><ellipse cx="1044" cy="562" fill="#B4A7E5" rx="11" ry="11" style="stroke:#181818;stroke-width:1.0;"/><path d="M1044.9531,558.7813 L1046.6719,558.7813 C1047.0625,558.7813 1047.25,558.75 1047.375,558.6719 C1047.6406,558.5156 1047.7813,558.2344 1047.7813,557.9375 C1047.7813,557.6719 1047.6719,557.4063 1047.4375,557.2344 C1047.2656,557.125 1047.125,557.0938 1046.6719,557.0938 L1041.5313,557.0938 C1041.0938,557.0938 1040.9688,557.1094 1040.8125,557.2031 C1040.5625,557.3594 1040.4063,557.6563 1040.4063,557.9375 C1040.4063,558.2188 1040.5469,558.4688 1040.7656,558.6406 C1040.9219,558.75 1041.1094,558.7813 1041.5313,558.7813 L1043.25,558.7813 L1043.25,565.2969 L1041.5313,565.2969 C1041.0938,565.2969 1040.9688,565.3125 1040.8125,565.4219 C1040.5625,565.5781 1040.4063,565.8594 1040.4063,566.1563 C1040.4063,566.4063 1040.5469,566.6719 1040.7656,566.8281 C1040.9219,566.9531 1041.125,567 1041.5313,567 L1046.6719,567 C1047.4219,567 1047.7813,566.7188 1047.7813,566.1563 C1047.7813,565.875 1047.6719,565.625 1047.4375,565.4531 C1047.2656,565.3281 1047.125,565.2969 1046.6719,565.2969 L1044.9531,565.2969 L1044.9531,558.7813 Z " fill="#000000"/><text fill="#000000" font-family="sans-serif" font-size="14" font-style="italic" lengthAdjust="spacing" textLength="104" x="1058" y="566.8467">IWordExcluder</text><line style="stroke:#181818;stroke-width:0.5;" x1="1030" x2="1164" y1="578" y2="578"/><line style="stroke:#181818;stroke-width:0.5;" x1="1030" x2="1164" y1="586" y2="586"/></g><!--class WordExcluder--><g id="elem_WordExcluder"><rect codeLine="83" fill="#F1F1F1" height="48" id="WordExcluder" rx="2.5" ry="2.5" style="stroke:#181818;stroke-width:0.5;" width="131" x="1030.5" y="654"/><ellipse cx="1045.5" cy="670" fill="#ADD1B2" rx="11" ry="11" style="stroke:#181818;stroke-width:1.0;"/><path d="M1047.8438,665.6719 C1046.9063,665.2344 1046.3125,665.0938 1045.4375,665.0938 C1042.8125,665.0938 1040.8125,667.1719 1040.8125,669.8906 L1040.8125,671.0156 C1040.8125,673.5938 1042.9219,675.4844 1045.8125,675.4844 C1047.0313,675.4844 1048.1875,675.1875 1048.9375,674.6406 C1049.5156,674.2344 1049.8438,673.7813 1049.8438,673.3906 C1049.8438,672.9375 1049.4531,672.5469 1048.9844,672.5469 C1048.7656,672.5469 1048.5625,672.625 1048.375,672.8125 C1047.9219,673.2969 1047.9219,673.2969 1047.7344,673.3906 C1047.3125,673.6563 1046.625,673.7813 1045.8594,673.7813 C1043.8125,673.7813 1042.5156,672.6875 1042.5156,670.9844 L1042.5156,669.8906 C1042.5156,668.1094 1043.7656,666.7969 1045.5,666.7969 C1046.0781,666.7969 1046.6875,666.9531 1047.1563,667.2031 C1047.6406,667.4844 1047.8125,667.7031 1047.9063,668.1094 C1047.9688,668.5156 1048,668.6406 1048.1406,668.7656 C1048.2813,668.9063 1048.5156,669.0156 1048.7344,669.0156 C1049,669.0156 1049.2656,668.875 1049.4375,668.6563 C1049.5469,668.5 1049.5781,668.3125 1049.5781,667.8906 L1049.5781,666.4688 C1049.5781,666.0313 1049.5625,665.9063 1049.4688,665.75 C1049.3125,665.4844 1049.0313,665.3438 1048.7344,665.3438 C1048.4375,665.3438 1048.2344,665.4375 1048.0156,665.75 L1047.8438,665.6719 Z " fill="#000000"/><text fill="#000000" font-family="sans-serif" font-size="14" lengthAdjust="spacing" textLength="99" x="1059.5" y="674.8467">WordExcluder</text><line style="stroke:#181818;stroke-width:0.5;" x1="1031.5" x2="1160.5" y1="686" y2="686"/><line style="stroke:#181818;stroke-width:0.5;" x1="1031.5" x2="1160.5" y1="694" y2="694"/></g><!--class IFileReaderManager--><g id="elem_IFileReaderManager"><rect codeLine="92" fill="#F1F1F1" height="48" id="IFileReaderManager" rx="2.5" ry="2.5" style="stroke:#181818;stroke-width:0.5;" width="176" x="509" y="315"/><ellipse cx="524" cy="331" fill="#B4A7E5" rx="11" ry="11" style="stroke:#181818;stroke-width:1.0;"/><path d="M524.9531,327.7813 L526.6719,327.7813 C527.0625,327.7813 527.25,327.75 527.375,327.6719 C527.6406,327.5156 527.7813,327.2344 527.7813,326.9375 C527.7813,326.6719 527.6719,326.4063 527.4375,326.2344 C527.2656,326.125 527.125,326.0938 526.6719,326.0938 L521.5313,326.0938 C521.0938,326.0938 520.9688,326.1094 520.8125,326.2031 C520.5625,326.3594 520.4063,326.6563 520.4063,326.9375 C520.4063,327.2188 520.5469,327.4688 520.7656,327.6406 C520.9219,327.75 521.1094,327.7813 521.5313,327.7813 L523.25,327.7813 L523.25,334.2969 L521.5313,334.2969 C521.0938,334.2969 520.9688,334.3125 520.8125,334.4219 C520.5625,334.5781 520.4063,334.8594 520.4063,335.1563 C520.4063,335.4063 520.5469,335.6719 520.7656,335.8281 C520.9219,335.9531 521.125,336 521.5313,336 L526.6719,336 C527.4219,336 527.7813,335.7188 527.7813,335.1563 C527.7813,334.875 527.6719,334.625 527.4375,334.4531 C527.2656,334.3281 527.125,334.2969 526.6719,334.2969 L524.9531,334.2969 L524.9531,327.7813 Z " fill="#000000"/><text fill="#000000" font-family="sans-serif" font-size="14" font-style="italic" lengthAdjust="spacing" textLength="144" x="538" y="335.8467">IFileReaderManager</text><line style="stroke:#181818;stroke-width:0.5;" x1="510" x2="684" y1="347" y2="347"/><line style="stroke:#181818;stroke-width:0.5;" x1="510" x2="684" y1="355" y2="355"/></g><!--class FileReaderManager--><g id="elem_FileReaderManager"><rect codeLine="95" fill="#F1F1F1" height="48" id="FileReaderManager" rx="2.5" ry="2.5" style="stroke:#181818;stroke-width:0.5;" width="169" x="512.5" y="423"/><ellipse cx="527.5" cy="439" fill="#ADD1B2" rx="11" ry="11" style="stroke:#181818;stroke-width:1.0;"/><path d="M529.8438,434.6719 C528.9063,434.2344 528.3125,434.0938 527.4375,434.0938 C524.8125,434.0938 522.8125,436.1719 522.8125,438.8906 L522.8125,440.0156 C522.8125,442.5938 524.9219,444.4844 527.8125,444.4844 C529.0313,444.4844 530.1875,444.1875 530.9375,443.6406 C531.5156,443.2344 531.8438,442.7813 531.8438,442.3906 C531.8438,441.9375 531.4531,441.5469 530.9844,441.5469 C530.7656,441.5469 530.5625,441.625 530.375,441.8125 C529.9219,442.2969 529.9219,442.2969 529.7344,442.3906 C529.3125,442.6563 528.625,442.7813 527.8594,442.7813 C525.8125,442.7813 524.5156,441.6875 524.5156,439.9844 L524.5156,438.8906 C524.5156,437.1094 525.7656,435.7969 527.5,435.7969 C528.0781,435.7969 528.6875,435.9531 529.1563,436.2031 C529.6406,436.4844 529.8125,436.7031 529.9063,437.1094 C529.9688,437.5156 530,437.6406 530.1406,437.7656 C530.2813,437.9063 530.5156,438.0156 530.7344,438.0156 C531,438.0156 531.2656,437.875 531.4375,437.6563 C531.5469,437.5 531.5781,437.3125 531.5781,436.8906 L531.5781,435.4688 C531.5781,435.0313 531.5625,434.9063 531.4688,434.75 C531.3125,434.4844 531.0313,434.3438 530.7344,434.3438 C530.4375,434.3438 530.2344,434.4375 530.0156,434.75 L529.8438,434.6719 Z " fill="#000000"/><text fill="#000000" font-family="sans-serif" font-size="14" lengthAdjust="spacing" textLength="137" x="541.5" y="443.8467">FileReaderManager</text><line style="stroke:#181818;stroke-width:0.5;" x1="513.5" x2="680.5" y1="455" y2="455"/><line style="stroke:#181818;stroke-width:0.5;" x1="513.5" x2="680.5" y1="463" y2="463"/></g><!--class IFileWriterManager--><g id="elem_IFileWriterManager"><rect codeLine="105" fill="#F1F1F1" height="48" id="IFileWriterManager" rx="2.5" ry="2.5" style="stroke:#181818;stroke-width:0.5;" width="168" x="741" y="315"/><ellipse cx="756" cy="331" fill="#B4A7E5" rx="11" ry="11" style="stroke:#181818;stroke-width:1.0;"/><path d="M756.9531,327.7813 L758.6719,327.7813 C759.0625,327.7813 759.25,327.75 759.375,327.6719 C759.6406,327.5156 759.7813,327.2344 759.7813,326.9375 C759.7813,326.6719 759.6719,326.4063 759.4375,326.2344 C759.2656,326.125 759.125,326.0938 758.6719,326.0938 L753.5313,326.0938 C753.0938,326.0938 752.9688,326.1094 752.8125,326.2031 C752.5625,326.3594 752.4063,326.6563 752.4063,326.9375 C752.4063,327.2188 752.5469,327.4688 752.7656,327.6406 C752.9219,327.75 753.1094,327.7813 753.5313,327.7813 L755.25,327.7813 L755.25,334.2969 L753.5313,334.2969 C753.0938,334.2969 752.9688,334.3125 752.8125,334.4219 C752.5625,334.5781 752.4063,334.8594 752.4063,335.1563 C752.4063,335.4063 752.5469,335.6719 752.7656,335.8281 C752.9219,335.9531 753.125,336 753.5313,336 L758.6719,336 C759.4219,336 759.7813,335.7188 759.7813,335.1563 C759.7813,334.875 759.6719,334.625 759.4375,334.4531 C759.2656,334.3281 759.125,334.2969 758.6719,334.2969 L756.9531,334.2969 L756.9531,327.7813 Z " fill="#000000"/><text fill="#000000" font-family="sans-serif" font-size="14" font-style="italic" lengthAdjust="spacing" textLength="136" x="770" y="335.8467">IFileWriterManager</text><line style="stroke:#181818;stroke-width:0.5;" x1="742" x2="908" y1="347" y2="347"/><line style="stroke:#181818;stroke-width:0.5;" x1="742" x2="908" y1="355" y2="355"/></g><!--class FileWriterManager--><g id="elem_FileWriterManager"><rect codeLine="108" fill="#F1F1F1" height="48" id="FileWriterManager" rx="2.5" ry="2.5" style="stroke:#181818;stroke-width:0.5;" width="164" x="743" y="423"/><ellipse cx="758" cy="439" fill="#ADD1B2" rx="11" ry="11" style="stroke:#181818;stroke-width:1.0;"/><path d="M760.3438,434.6719 C759.4063,434.2344 758.8125,434.0938 757.9375,434.0938 C755.3125,434.0938 753.3125,436.1719 753.3125,438.8906 L753.3125,440.0156 C753.3125,442.5938 755.4219,444.4844 758.3125,444.4844 C759.5313,444.4844 760.6875,444.1875 761.4375,443.6406 C762.0156,443.2344 762.3438,442.7813 762.3438,442.3906 C762.3438,441.9375 761.9531,441.5469 761.4844,441.5469 C761.2656,441.5469 761.0625,441.625 760.875,441.8125 C760.4219,442.2969 760.4219,442.2969 760.2344,442.3906 C759.8125,442.6563 759.125,442.7813 758.3594,442.7813 C756.3125,442.7813 755.0156,441.6875 755.0156,439.9844 L755.0156,438.8906 C755.0156,437.1094 756.2656,435.7969 758,435.7969 C758.5781,435.7969 759.1875,435.9531 759.6563,436.2031 C760.1406,436.4844 760.3125,436.7031 760.4063,437.1094 C760.4688,437.5156 760.5,437.6406 760.6406,437.7656 C760.7813,437.9063 761.0156,438.0156 761.2344,438.0156 C761.5,438.0156 761.7656,437.875 761.9375,437.6563 C762.0469,437.5 762.0781,437.3125 762.0781,436.8906 L762.0781,435.4688 C762.0781,435.0313 762.0625,434.9063 761.9688,434.75 C761.8125,434.4844 761.5313,434.3438 761.2344,434.3438 C760.9375,434.3438 760.7344,434.4375 760.5156,434.75 L760.3438,434.6719 Z " fill="#000000"/><text fill="#000000" font-family="sans-serif" font-size="14" lengthAdjust="spacing" textLength="132" x="772" y="443.8467">FileWriterManager</text><line style="stroke:#181818;stroke-width:0.5;" x1="744" x2="906" y1="455" y2="455"/><line style="stroke:#181818;stroke-width:0.5;" x1="744" x2="906" y1="463" y2="463"/></g><!--class IWordCountManager--><g id="elem_IWordCountManager"><rect codeLine="118" fill="#F1F1F1" height="48" id="IWordCountManager" rx="2.5" ry="2.5" style="stroke:#181818;stroke-width:0.5;" width="179" x="1058.5" y="315"/><ellipse cx="1073.5" cy="331" fill="#B4A7E5" rx="11" ry="11" style="stroke:#181818;stroke-width:1.0;"/><path d="M1074.4531,327.7813 L1076.1719,327.7813 C1076.5625,327.7813 1076.75,327.75 1076.875,327.6719 C1077.1406,327.5156 1077.2813,327.2344 1077.2813,326.9375 C1077.2813,326.6719 1077.1719,326.4063 1076.9375,326.2344 C1076.7656,326.125 1076.625,326.0938 1076.1719,326.0938 L1071.0313,326.0938 C1070.5938,326.0938 1070.4688,326.1094 1070.3125,326.2031 C1070.0625,326.3594 1069.9063,326.6563 1069.9063,326.9375 C1069.9063,327.2188 1070.0469,327.4688 1070.2656,327.6406 C1070.4219,327.75 1070.6094,327.7813 1071.0313,327.7813 L1072.75,327.7813 L1072.75,334.2969 L1071.0313,334.2969 C1070.5938,334.2969 1070.4688,334.3125 1070.3125,334.4219 C1070.0625,334.5781 1069.9063,334.8594 1069.9063,335.1563 C1069.9063,335.4063 1070.0469,335.6719 1070.2656,335.8281 C1070.4219,335.9531 1070.625,336 1071.0313,336 L1076.1719,336 C1076.9219,336 1077.2813,335.7188 1077.2813,335.1563 C1077.2813,334.875 1077.1719,334.625 1076.9375,334.4531 C1076.7656,334.3281 1076.625,334.2969 1076.1719,334.2969 L1074.4531,334.2969 L1074.4531,327.7813 Z " fill="#000000"/><text fill="#000000" font-family="sans-serif" font-size="14" font-style="italic" lengthAdjust="spacing" textLength="147" x="1087.5" y="335.8467">IWordCountManager</text><line style="stroke:#181818;stroke-width:0.5;" x1="1059.5" x2="1236.5" y1="347" y2="347"/><line style="stroke:#181818;stroke-width:0.5;" x1="1059.5" x2="1236.5" y1="355" y2="355"/></g><!--class WordCountManager--><g id="elem_WordCountManager"><rect codeLine="121" fill="#F1F1F1" height="48" id="WordCountManager" rx="2.5" ry="2.5" style="stroke:#181818;stroke-width:0.5;" width="174" x="1062" y="423"/><ellipse cx="1077" cy="439" fill="#ADD1B2" rx="11" ry="11" style="stroke:#181818;stroke-width:1.0;"/><path d="M1079.3438,434.6719 C1078.4063,434.2344 1077.8125,434.0938 1076.9375,434.0938 C1074.3125,434.0938 1072.3125,436.1719 1072.3125,438.8906 L1072.3125,440.0156 C1072.3125,442.5938 1074.4219,444.4844 1077.3125,444.4844 C1078.5313,444.4844 1079.6875,444.1875 1080.4375,443.6406 C1081.0156,443.2344 1081.3438,442.7813 1081.3438,442.3906 C1081.3438,441.9375 1080.9531,441.5469 1080.4844,441.5469 C1080.2656,441.5469 1080.0625,441.625 1079.875,441.8125 C1079.4219,442.2969 1079.4219,442.2969 1079.2344,442.3906 C1078.8125,442.6563 1078.125,442.7813 1077.3594,442.7813 C1075.3125,442.7813 1074.0156,441.6875 1074.0156,439.9844 L1074.0156,438.8906 C1074.0156,437.1094 1075.2656,435.7969 1077,435.7969 C1077.5781,435.7969 1078.1875,435.9531 1078.6563,436.2031 C1079.1406,436.4844 1079.3125,436.7031 1079.4063,437.1094 C1079.4688,437.5156 1079.5,437.6406 1079.6406,437.7656 C1079.7813,437.9063 1080.0156,438.0156 1080.2344,438.0156 C1080.5,438.0156 1080.7656,437.875 1080.9375,437.6563 C1081.0469,437.5 1081.0781,437.3125 1081.0781,436.8906 L1081.0781,435.4688 C1081.0781,435.0313 1081.0625,434.9063 1080.9688,434.75 C1080.8125,434.4844 1080.5313,434.3438 1080.2344,434.3438 C1079.9375,434.3438 1079.7344,434.4375 1079.5156,434.75 L1079.3438,434.6719 Z " fill="#000000"/><text fill="#000000" font-family="sans-serif" font-size="14" lengthAdjust="spacing" textLength="142" x="1091" y="443.8467">WordCountManager</text><line style="stroke:#181818;stroke-width:0.5;" x1="1063" x2="1235" y1="455" y2="455"/><line style="stroke:#181818;stroke-width:0.5;" x1="1063" x2="1235" y1="463" y2="463"/></g><!--class IWordCountWorkFlow--><g id="elem_IWordCountWorkFlow"><rect codeLine="132" fill="#F1F1F1" height="48" id="IWordCountWorkFlow" rx="2.5" ry="2.5" style="stroke:#181818;stroke-width:0.5;" width="185" x="618.5" y="84"/><ellipse cx="633.5" cy="100" fill="#B4A7E5" rx="11" ry="11" style="stroke:#181818;stroke-width:1.0;"/><path d="M634.4531,96.7813 L636.1719,96.7813 C636.5625,96.7813 636.75,96.75 636.875,96.6719 C637.1406,96.5156 637.2813,96.2344 637.2813,95.9375 C637.2813,95.6719 637.1719,95.4063 636.9375,95.2344 C636.7656,95.125 636.625,95.0938 636.1719,95.0938 L631.0313,95.0938 C630.5938,95.0938 630.4688,95.1094 630.3125,95.2031 C630.0625,95.3594 629.9063,95.6563 629.9063,95.9375 C629.9063,96.2188 630.0469,96.4688 630.2656,96.6406 C630.4219,96.75 630.6094,96.7813 631.0313,96.7813 L632.75,96.7813 L632.75,103.2969 L631.0313,103.2969 C630.5938,103.2969 630.4688,103.3125 630.3125,103.4219 C630.0625,103.5781 629.9063,103.8594 629.9063,104.1563 C629.9063,104.4063 630.0469,104.6719 630.2656,104.8281 C630.4219,104.9531 630.625,105 631.0313,105 L636.1719,105 C636.9219,105 637.2813,104.7188 637.2813,104.1563 C637.2813,103.875 637.1719,103.625 636.9375,103.4531 C636.7656,103.3281 636.625,103.2969 636.1719,103.2969 L634.4531,103.2969 L634.4531,96.7813 Z " fill="#000000"/><text fill="#000000" font-family="sans-serif" font-size="14" font-style="italic" lengthAdjust="spacing" textLength="153" x="647.5" y="104.8467">IWordCountWorkFlow</text><line style="stroke:#181818;stroke-width:0.5;" x1="619.5" x2="802.5" y1="116" y2="116"/><line style="stroke:#181818;stroke-width:0.5;" x1="619.5" x2="802.5" y1="124" y2="124"/></g><!--class WordCountWorkFlow--><g id="elem_WordCountWorkFlow"><rect codeLine="136" fill="#F1F1F1" height="48" id="WordCountWorkFlow" rx="2.5" ry="2.5" style="stroke:#181818;stroke-width:0.5;" width="183" x="619.5" y="192"/><ellipse cx="634.5" cy="208" fill="#ADD1B2" rx="11" ry="11" style="stroke:#181818;stroke-width:1.0;"/><path d="M636.8438,203.6719 C635.9063,203.2344 635.3125,203.0938 634.4375,203.0938 C631.8125,203.0938 629.8125,205.1719 629.8125,207.8906 L629.8125,209.0156 C629.8125,211.5938 631.9219,213.4844 634.8125,213.4844 C636.0313,213.4844 637.1875,213.1875 637.9375,212.6406 C638.5156,212.2344 638.8438,211.7813 638.8438,211.3906 C638.8438,210.9375 638.4531,210.5469 637.9844,210.5469 C637.7656,210.5469 637.5625,210.625 637.375,210.8125 C636.9219,211.2969 636.9219,211.2969 636.7344,211.3906 C636.3125,211.6563 635.625,211.7813 634.8594,211.7813 C632.8125,211.7813 631.5156,210.6875 631.5156,208.9844 L631.5156,207.8906 C631.5156,206.1094 632.7656,204.7969 634.5,204.7969 C635.0781,204.7969 635.6875,204.9531 636.1563,205.2031 C636.6406,205.4844 636.8125,205.7031 636.9063,206.1094 C636.9688,206.5156 637,206.6406 637.1406,206.7656 C637.2813,206.9063 637.5156,207.0156 637.7344,207.0156 C638,207.0156 638.2656,206.875 638.4375,206.6563 C638.5469,206.5 638.5781,206.3125 638.5781,205.8906 L638.5781,204.4688 C638.5781,204.0313 638.5625,203.9063 638.4688,203.75 C638.3125,203.4844 638.0313,203.3438 637.7344,203.3438 C637.4375,203.3438 637.2344,203.4375 637.0156,203.75 L636.8438,203.6719 Z " fill="#000000"/><text fill="#000000" font-family="sans-serif" font-size="14" lengthAdjust="spacing" textLength="151" x="648.5" y="212.8467">WordCountWorkFlow</text><line style="stroke:#181818;stroke-width:0.5;" x1="620.5" x2="801.5" y1="224" y2="224"/><line style="stroke:#181818;stroke-width:0.5;" x1="620.5" x2="801.5" y1="232" y2="232"/></g><!--reverse link IGuard to Guard--><g id="link_IGuard_Guard"><path codeLine="17" d="M693.744,804.735 C582.093,810.976 336.282,830.236 137,885 C131.399,886.539 125.616,888.533 120.008,890.703 " fill="none" id="IGuard-backto-Guard" style="stroke:#181818;stroke-width:1.0;"/><polygon fill="none" points="693.58,797.734,713.921,803.669,694.319,811.714,693.58,797.734" style="stroke:#181818;stroke-width:1.0;"/></g><!--reverse link IGuard to GuardAgainstEmptyAndWhiteSpaceExtension--><g id="link_IGuard_GuardAgainstEmptyAndWhiteSpaceExtension"><path codeLine="18" d="M701.28,815.369 C632.373,832.843 510.616,863.719 426.738,884.99 " fill="none" id="IGuard-backto-GuardAgainstEmptyAndWhiteSpaceExtension" style="stroke:#181818;stroke-width:1.0;"/><polygon fill="#181818" points="713.92,812.164,707.1208,809.7616,702.2882,815.1138,709.0874,817.5162,713.92,812.164" style="stroke:#181818;stroke-width:1.0;"/></g><!--reverse link IGuard to GuardAgainstFileSystemInfoNotFoundExtension--><g id="link_IGuard_GuardAgainstFileSystemInfoNotFoundExtension"><path codeLine="19" d="M749.201,838.338 C747.174,853.681 744.874,871.098 743.08,884.678 " fill="none" id="IGuard-backto-GuardAgainstFileSystemInfoNotFoundExtension" style="stroke:#181818;stroke-width:1.0;"/><polygon fill="#181818" points="750.962,825,746.2112,830.4249,749.3915,836.8968,754.1423,831.4719,750.962,825" style="stroke:#181818;stroke-width:1.0;"/></g><!--reverse link IGuard to GuardAgainstNullExtensions--><g id="link_IGuard_GuardAgainstNullExtensions"><path codeLine="20" d="M806.732,819.199 C861.566,837.083 947.716,865.181 1008.4,884.972 " fill="none" id="IGuard-backto-GuardAgainstNullExtensions" style="stroke:#181818;stroke-width:1.0;"/><polygon fill="#181818" points="794.177,815.104,798.6415,820.7669,805.5859,818.8239,801.1214,813.161,794.177,815.104" style="stroke:#181818;stroke-width:1.0;"/></g><!--reverse link IFileReader to StreamFileReader--><g id="link_IFileReader_StreamFileReader"><path codeLine="31" d="M497.129,614.024 C495.595,627.579 493.958,642.038 492.64,653.678 " fill="none" id="IFileReader-backto-StreamFileReader" style="stroke:#181818;stroke-width:1.0;"/><polygon fill="none" points="490.191,613.086,499.396,594,504.102,614.661,490.191,613.086" style="stroke:#181818;stroke-width:1.0;"/></g><!--reverse link StreamFileReader to IGuard--><g id="link_StreamFileReader_IGuard"><path codeLine="32" d="M552.23,707.522 C602.195,730.423 670.875,761.901 713.833,781.59 " fill="none" id="StreamFileReader-backto-IGuard" style="stroke:#181818;stroke-width:1.0;"/><polygon fill="#181818" points="540.278,702.044,544.0663,708.1799,551.1872,707.043,547.3989,700.9071,540.278,702.044" style="stroke:#181818;stroke-width:1.0;"/></g><!--reverse link IFileWriter to StreamFileWriter--><g id="link_IFileWriter_StreamFileWriter"><path codeLine="42" d="M887.276,614.024 C888.939,627.579 890.712,642.038 892.14,653.678 " fill="none" id="IFileWriter-backto-StreamFileWriter" style="stroke:#181818;stroke-width:1.0;"/><polygon fill="none" points="880.308,614.704,884.821,594,894.203,613,880.308,614.704" style="stroke:#181818;stroke-width:1.0;"/></g><!--reverse link StreamFileWriter to IGuard--><g id="link_StreamFileWriter_IGuard"><path codeLine="43" d="M857.959,710.787 C833.893,731.439 803.055,757.903 781.233,776.63 " fill="none" id="StreamFileWriter-backto-IGuard" style="stroke:#181818;stroke-width:1.0;"/><polygon fill="#181818" points="868.147,702.044,860.9888,702.9156,859.0402,709.8585,866.1984,708.9868,868.147,702.044" style="stroke:#181818;stroke-width:1.0;"/></g><!--reverse link ILineSplitter to LineSplitter--><g id="link_ILineSplitter_LineSplitter"><path codeLine="53" d="M686,614.024 C686,627.579 686,642.038 686,653.678 " fill="none" id="ILineSplitter-backto-LineSplitter" style="stroke:#181818;stroke-width:1.0;"/><polygon fill="none" points="679,614,686,594,693,614,679,614" style="stroke:#181818;stroke-width:1.0;"/></g><!--reverse link LineSplitter to IGuard--><g id="link_LineSplitter_IGuard"><path codeLine="54" d="M705.444,713.599 C716.795,733.797 730.814,758.743 740.866,776.63 " fill="none" id="LineSplitter-backto-IGuard" style="stroke:#181818;stroke-width:1.0;"/><polygon fill="#181818" points="698.95,702.044,698.4023,709.2343,704.8288,712.5053,705.3765,705.3151,698.95,702.044" style="stroke:#181818;stroke-width:1.0;"/></g><!--reverse link IWordCounter to ConcurrentDictionaryWordCounter--><g id="link_IWordCounter_ConcurrentDictionaryWordCounter"><path codeLine="71" d="M1393,614.024 C1393,627.579 1393,642.038 1393,653.678 " fill="none" id="IWordCounter-backto-ConcurrentDictionaryWordCounter" style="stroke:#181818;stroke-width:1.0;"/><polygon fill="none" points="1386,614,1393,594,1400,614,1386,614" style="stroke:#181818;stroke-width:1.0;"/></g><!--reverse link ConcurrentDictionaryWordCounter to IGuard--><g id="link_ConcurrentDictionaryWordCounter_IGuard"><path codeLine="72" d="M1297.35,705.307 C1269.32,712.542 1238.54,720.032 1210,726 C1057.51,757.888 873.886,783.99 794.177,794.726 " fill="none" id="ConcurrentDictionaryWordCounter-backto-IGuard" style="stroke:#181818;stroke-width:1.0;"/><polygon fill="#181818" points="1310.02,702.007,1303.2064,699.6458,1298.4063,705.0271,1305.2199,707.3883,1310.02,702.007" style="stroke:#181818;stroke-width:1.0;"/></g><!--reverse link IWordCounter to TrieWordCounter--><g id="link_IWordCounter_TrieWordCounter"><path codeLine="73" d="M1466.9,601.721 C1506.92,618.356 1555.55,638.57 1592.34,653.862 " fill="none" id="IWordCounter-backto-TrieWordCounter" style="stroke:#181818;stroke-width:1.0;"/><polygon fill="none" points="1464.11,608.141,1448.33,594,1469.49,595.214,1464.11,608.141" style="stroke:#181818;stroke-width:1.0;"/></g><!--reverse link TrieWordCounter to TrieNode--><g id="link_TrieWordCounter_TrieNode"><path codeLine="74" d="M1648,715.317 C1648,735.197 1648,759.247 1648,776.63 " fill="none" id="TrieWordCounter-backto-TrieNode" style="stroke:#181818;stroke-width:1.0;"/><polygon fill="#181818" points="1648,702.044,1644,708.044,1648,714.044,1652,708.044,1648,702.044" style="stroke:#181818;stroke-width:1.0;"/></g><!--reverse link IWordExcluder to WordExcluder--><g id="link_IWordExcluder_WordExcluder"><path codeLine="86" d="M1096.59,614.024 C1096.47,627.579 1096.33,642.038 1096.22,653.678 " fill="none" id="IWordExcluder-backto-WordExcluder" style="stroke:#181818;stroke-width:1.0;"/><polygon fill="none" points="1089.59,613.933,1096.78,594,1103.59,614.066,1089.59,613.933" style="stroke:#181818;stroke-width:1.0;"/></g><!--reverse link WordExcluder to IGuard--><g id="link_WordExcluder_IGuard"><path codeLine="87" d="M1034.52,707.368 C1019.74,713.808 1003.91,720.396 989,726 C921.733,751.279 841.548,775.248 794.369,788.74 " fill="none" id="WordExcluder-backto-IGuard" style="stroke:#181818;stroke-width:1.0;"/><polygon fill="#181818" points="1046.65,702.017,1039.5463,700.7772,1035.6696,706.8576,1042.7733,708.0974,1046.65,702.017" style="stroke:#181818;stroke-width:1.0;"/></g><!--reverse link IFileReaderManager to FileReaderManager--><g id="link_IFileReaderManager_FileReaderManager"><path codeLine="98" d="M597,383.024 C597,396.579 597,411.038 597,422.678 " fill="none" id="IFileReaderManager-backto-FileReaderManager" style="stroke:#181818;stroke-width:1.0;"/><polygon fill="none" points="590,383,597,363,604,383,590,383" style="stroke:#181818;stroke-width:1.0;"/></g><!--reverse link FileReaderManager to IFileReader--><g id="link_FileReaderManager_IFileReader"><path codeLine="99" d="M570.725,481.466 C554.715,501.858 534.655,527.407 520.349,545.63 " fill="none" id="FileReaderManager-backto-IFileReader" style="stroke:#181818;stroke-width:1.0;"/><polygon fill="#181818" points="578.908,471.044,572.0564,473.2926,571.4969,480.482,578.3484,478.2334,578.908,471.044" style="stroke:#181818;stroke-width:1.0;"/></g><!--reverse link FileReaderManager to ILineSplitter--><g id="link_FileReaderManager_ILineSplitter"><path codeLine="100" d="M621.823,481.748 C636.787,502.093 655.469,527.491 668.81,545.63 " fill="none" id="FileReaderManager-backto-ILineSplitter" style="stroke:#181818;stroke-width:1.0;"/><polygon fill="#181818" points="613.95,471.044,614.2827,478.2474,621.06,480.7108,620.7273,473.5074,613.95,471.044" style="stroke:#181818;stroke-width:1.0;"/></g><!--reverse link IFileWriterManager to FileWriterManager--><g id="link_IFileWriterManager_FileWriterManager"><path codeLine="111" d="M825,383.024 C825,396.579 825,411.038 825,422.678 " fill="none" id="IFileWriterManager-backto-FileWriterManager" style="stroke:#181818;stroke-width:1.0;"/><polygon fill="none" points="818,383,825,363,832,383,818,383" style="stroke:#181818;stroke-width:1.0;"/></g><!--reverse link FileWriterManager to IFileWriter--><g id="link_FileWriterManager_IFileWriter"><path codeLine="112" d="M841.433,482.884 C850.924,503.031 862.605,527.827 870.991,545.63 " fill="none" id="FileWriterManager-backto-IFileWriter" style="stroke:#181818;stroke-width:1.0;"/><polygon fill="#181818" points="835.855,471.044,834.7931,478.1765,840.9685,481.9,842.0304,474.7675,835.855,471.044" style="stroke:#181818;stroke-width:1.0;"/></g><!--reverse link FileWriterManager to IGuard--><g id="link_FileWriterManager_IGuard"><path codeLine="113" d="M808.126,483.067 C805.443,489.586 802.922,496.419 801,503 C785.887,554.739 764.574,716.257 756.897,776.785 " fill="none" id="FileWriterManager-backto-IGuard" style="stroke:#181818;stroke-width:1.0;"/><polygon fill="#181818" points="813.374,471.064,807.3052,474.9588,808.5662,482.0588,814.6351,478.164,813.374,471.064" style="stroke:#181818;stroke-width:1.0;"/></g><!--reverse link IWordCountManager to WordCountManager--><g id="link_IWordCountManager_WordCountManager"><path codeLine="124" d="M1148.41,383.024 C1148.53,396.579 1148.67,411.038 1148.78,422.678 " fill="none" id="IWordCountManager-backto-WordCountManager" style="stroke:#181818;stroke-width:1.0;"/><polygon fill="none" points="1141.41,383.066,1148.22,363,1155.41,382.933,1141.41,383.066" style="stroke:#181818;stroke-width:1.0;"/></g><!--reverse link WordCountManager to IGuard--><g id="link_WordCountManager_IGuard"><path codeLine="125" d="M1172.64,482.398 C1176.09,488.975 1179.11,496 1181,503 C1206.81,598.691 1244.82,650.17 1181,726 C1131.71,784.571 890.96,796.784 794.29,799.33 " fill="none" id="WordCountManager-backto-IGuard" style="stroke:#181818;stroke-width:1.0;"/><polygon fill="#181818" points="1166.11,471.143,1165.6598,478.34,1172.13,481.5237,1172.5803,474.3267,1166.11,471.143" style="stroke:#181818;stroke-width:1.0;"/></g><!--reverse link WordCountManager to IWordExcluder--><g id="link_WordCountManager_IWordExcluder"><path codeLine="126" d="M1133.89,483.169 C1125.25,503.265 1114.66,527.911 1107.04,545.63 " fill="none" id="WordCountManager-backto-IWordExcluder" style="stroke:#181818;stroke-width:1.0;"/><polygon fill="#181818" points="1139.1,471.044,1133.0559,474.977,1134.3617,482.0689,1140.4058,478.1359,1139.1,471.044" style="stroke:#181818;stroke-width:1.0;"/></g><!--reverse link WordCountManager to IWordCounter--><g id="link_WordCountManager_IWordCounter"><path codeLine="127" d="M1207.34,476.929 C1249.87,498.021 1306.74,526.225 1346.29,545.836 " fill="none" id="WordCountManager-backto-IWordCounter" style="stroke:#181818;stroke-width:1.0;"/><polygon fill="#181818" points="1195.47,471.044,1199.064,477.2957,1206.2171,476.3826,1202.6231,470.1309,1195.47,471.044" style="stroke:#181818;stroke-width:1.0;"/></g><!--reverse link IWordCountWorkFlow to WordCountWorkFlow--><g id="link_IWordCountWorkFlow_WordCountWorkFlow"><path codeLine="139" d="M711,152.024 C711,165.579 711,180.038 711,191.678 " fill="none" id="IWordCountWorkFlow-backto-WordCountWorkFlow" style="stroke:#181818;stroke-width:1.0;"/><polygon fill="none" points="704,152,711,132,718,152,704,152" style="stroke:#181818;stroke-width:1.0;"/></g><!--reverse link WordCountWorkFlow to IGuard--><g id="link_WordCountWorkFlow_IGuard"><path codeLine="140" d="M606.46,227.753 C568.201,235.54 526.195,248.943 493,272 C415.845,325.592 373,352.059 373,446 C373,446 373,446 373,571 C373,640.46 345.731,675.104 393,726 C436.156,772.468 628.969,791.344 713.764,797.496 " fill="none" id="WordCountWorkFlow-backto-IGuard" style="stroke:#181818;stroke-width:1.0;"/><polygon fill="#181818" points="619.274,225.322,612.6334,222.511,607.4845,227.5596,614.1251,230.3707,619.274,225.322" style="stroke:#181818;stroke-width:1.0;"/></g><!--reverse link WordCountWorkFlow to IWordCountManager--><g id="link_WordCountWorkFlow_IWordCountManager"><path codeLine="141" d="M815.247,242.987 C850.204,251.916 889.353,262.148 925,272 C974.326,285.633 1029.47,301.946 1072.59,314.942 " fill="none" id="WordCountWorkFlow-backto-IWordCountManager" style="stroke:#181818;stroke-width:1.0;"/><polygon fill="#181818" points="802.572,239.76,807.3992,245.1171,814.2008,242.7216,809.3736,237.3645,802.572,239.76" style="stroke:#181818;stroke-width:1.0;"/></g><!--reverse link WordCountWorkFlow to IFileReaderManager--><g id="link_WordCountWorkFlow_IFileReaderManager"><path codeLine="142" d="M680.264,249.623 C660.925,270.15 636.424,296.155 619.018,314.63 " fill="none" id="WordCountWorkFlow-backto-IFileReaderManager" style="stroke:#181818;stroke-width:1.0;"/><polygon fill="#181818" points="689.289,240.044,682.2632,241.668,681.06,248.7781,688.0859,247.154,689.289,240.044" style="stroke:#181818;stroke-width:1.0;"/></g><!--reverse link WordCountWorkFlow to IFileWriterManager--><g id="link_WordCountWorkFlow_IFileWriterManager"><path codeLine="143" d="M741.736,249.623 C761.075,270.15 785.576,296.155 802.982,314.63 " fill="none" id="WordCountWorkFlow-backto-IFileWriterManager" style="stroke:#181818;stroke-width:1.0;"/><polygon fill="#181818" points="732.711,240.044,733.9141,247.154,740.94,248.7781,739.7368,241.668,732.711,240.044" style="stroke:#181818;stroke-width:1.0;"/></g><!--SRC=[ZPHDRi8m48NtEKN44ecUe1lAJrMfPL4giROIGwq4Et8S5THozpfE21vxOcU3ODxtmflnE1N92dAYwMnDU5tG5yABfzU6o7oM_YPfcfMahbDJCBzlYVvWN55v91bDtnp5mfSdmdYjDkTANPSyFtmpHVULDcqkYlAQ2HwoRLb9zzTQqVCRFugTK5lHy7oITTUKvG3M3xBF-lotMAITuL6Swzh4rEEcIEPn8qoS93fkXHnB-_nFId8gkxEnZk4XkPFPAqd96TDjancAYsh6SxVHkov2AGzIZqtEa92TCXxIrMsJ4xAhWf0z60_vphW-rf8fXGpJ5jsak0Oj9gTTqGG0ulaEGkOhlJrzF9ZF4jruAy6pHahArPfbIcyJaTS0_YKPZSWxaLEhKPisVKR-KNjYcQnfO7_WPDICcthUKstK93JHpIKhctnif7VLdGAkGOj9QbSq0O1fzwQxP1-4Qn59wI5kr020c4rehwnP7stZsuy8G63ne- -8OAy0mNeT0H3pq2iezsr0r1mLUC6CCDDky6Y7Be7j7Qxxrc7_x6g_Wm04bmrNaJN6eVkDZ8v0VocsfVZnthGUqGq96u95U5COD3Y6UzbkOa3nGK0vD518OhSeWC8blFq3]--></g></svg>